<svg viewBox="0 0 100 100" xmlns="http://www.w3.org/2000/svg">
  <defs>
    <radialGradient id="grassGrad" cx="50%" cy="30%">
      <stop offset="0%" stop-color="#7dd857"/>
      <stop offset="100%" stop-color="#4a9c2d"/>
    </radialGradient>
    <linearGradient id="castleGrad" x1="0%" y1="0%" x2="0%" y2="100%">
      <stop offset="0%" stop-color="#795548"/>
      <stop offset="100%" stop-color="#3e2723"/>
    </linearGradient>
  </defs>
  
  <polygon points="50,15 85,32.5 85,67.5 50,85 15,67.5 15,32.5" fill="url(#grassGrad)" stroke="#2e7d32" stroke-width="2"/>
  <!-- Fortified walls -->
  <rect x="25" y="35" width="50" height="30" fill="url(#castleGrad)" stroke="#3e2723" stroke-width="2"/>
  <!-- Battlements -->
  <rect x="25" y="35" width="5" height="5" fill="#5d4037"/>
  <rect x="35" y="35" width="5" height="5" fill="#5d4037"/>
  <rect x="45" y="35" width="5" height="5" fill="#5d4037"/>
  <rect x="55" y="35" width="5" height="5" fill="#5d4037"/>
  <rect x="65" y="35" width="5" height="5" fill="#5d4037"/>
  <!-- Gate -->
  <rect x="45" y="55" width="10" height="10" fill="#3e2723"/>
  <circle cx="50" cy="60" r="3" fill="#424242"/>
  <!-- Towers -->
  <rect x="20" y="30" width="8" height="15" fill="#5d4037"/>
  <rect x="72" y="30" width="8" height="15" fill="#5d4037"/>
  <!-- Flag -->
  <line x1="50" y1="35" x2="50" y2="25" stroke="#3e2723" stroke-width="2"/>
  <polygon points="50,25 58,28 50,31" fill="#f44336"/>
</svg>