<svg viewBox="0 0 100 100" xmlns="http://www.w3.org/2000/svg">
  <defs>
    <linearGradient id="mountainGrad" x1="0%" y1="0%" x2="0%" y2="100%">
      <stop offset="0%" stop-color="#8b7355"/>
      <stop offset="70%" stop-color="#654832"/>
      <stop offset="100%" stop-color="#3e2723"/>
    </linearGradient>
  </defs>
  
  <polygon points="50,15 85,32.5 85,67.5 50,85 15,67.5 15,32.5" fill="url(#mountainGrad)" stroke="#3e2723" stroke-width="2"/>
  <!-- Mine entrance -->
  <rect x="35" y="45" width="30" height="20" fill="#212121"/>
  <path d="M35 45 Q50 35 65 45" fill="#424242"/>
  <!-- Mine cart tracks -->
  <line x1="35" y1="62" x2="65" y2="62" stroke="#795548" stroke-width="2"/>
  <line x1="37" y1="60" x2="37" y2="64" stroke="#795548" stroke-width="1"/>
  <line x1="47" y1="60" x2="47" y2="64" stroke="#795548" stroke-width="1"/>
  <line x1="57" y1="60" x2="57" y2="64" stroke="#795548" stroke-width="1"/>
  <!-- Mine cart -->
  <rect x="40" y="58" width="8" height="4" fill="#3e2723"/>
  <!-- Ore pile -->
  <circle cx="25" cy="60" r="4" fill="#ffc107"/>
  <circle cx="75" cy="55" r="3" fill="#ff5722"/>
  <!-- Pickaxe -->
  <line x1="60" y1="35" x2="65" y2="40" stroke="#5d4037" stroke-width="2"/>
  <polygon points="65,40 67,38 69,42 67,44" fill="#616161"/>
</svg>