<svg viewBox="0 0 100 100" xmlns="http://www.w3.org/2000/svg">
  <defs>
    <radialGradient id="grassGrad" cx="50%" cy="30%">
      <stop offset="0%" stop-color="#7dd857"/>
      <stop offset="100%" stop-color="#4a9c2d"/>
    </radialGradient>
  </defs>
  
  <polygon points="50,15 85,32.5 85,67.5 50,85 15,67.5 15,32.5" fill="url(#grassGrad)" stroke="#2e7d32" stroke-width="2"/>
  <!-- Buildings -->
  <rect x="25" y="40" width="12" height="25" fill="#9e9e9e"/>
  <rect x="40" y="35" width="10" height="30" fill="#757575"/>
  <rect x="53" y="42" width="8" height="23" fill="#9e9e9e"/>
  <rect x="64" y="38" width="10" height="27" fill="#757575"/>
  <!-- Windows -->
  <rect x="27" y="45" width="2" height="2" fill="#ffeb3b"/>
  <rect x="31" y="45" width="2" height="2" fill="#ffeb3b"/>
  <rect x="27" y="52" width="2" height="2" fill="#ffeb3b"/>
  <rect x="42" y="40" width="2" height="2" fill="#ffeb3b"/>
  <rect x="46" y="40" width="2" height="2" fill="#ffeb3b"/>
  <rect x="55" y="47" width="2" height="2" fill="#ffeb3b"/>
  <rect x="66" y="43" width="2" height="2" fill="#ffeb3b"/>
  <rect x="70" y="43" width="2" height="2" fill="#ffeb3b"/>
  <!-- Chimneys with smoke -->
  <rect x="30" y="38" width="2" height="4" fill="#5d4037"/>
  <circle cx="31" cy="36" r="1.5" fill="#e0e0e0" opacity="0.7"/>
  <circle cx="31" cy="33" r="1" fill="#e0e0e0" opacity="0.5"/>
</svg>