<svg viewBox="0 0 100 100" xmlns="http://www.w3.org/2000/svg">
  <defs>
    <radialGradient id="grassGrad" cx="50%" cy="30%">
      <stop offset="0%" stop-color="#7dd857"/>
      <stop offset="100%" stop-color="#4a9c2d"/>
    </radialGradient>
    <linearGradient id="castleGrad" x1="0%" y1="0%" x2="0%" y2="100%">
      <stop offset="0%" stop-color="#795548"/>
      <stop offset="100%" stop-color="#3e2723"/>
    </linearGradient>
  </defs>
  
  <polygon points="50,15 85,32.5 85,67.5 50,85 15,67.5 15,32.5" fill="url(#grassGrad)" stroke="#2e7d32" stroke-width="2"/>
  <!-- Tower base -->
  <rect x="40" y="45" width="20" height="20" fill="url(#castleGrad)"/>
  <!-- Tower -->
  <rect x="45" y="25" width="10" height="25" fill="#5d4037"/>
  <!-- Battlements -->
  <rect x="43" y="25" width="3" height="3" fill="#5d4037"/>
  <rect x="48" y="25" width="3" height="3" fill="#5d4037"/>
  <rect x="53" y="25" width="3" height="3" fill="#5d4037"/>
  <!-- Arrow slits -->
  <rect x="48" y="35" width="1" height="4" fill="#212121"/>
  <rect x="51" y="35" width="1" height="4" fill="#212121"/>
  <!-- Archer -->
  <circle cx="50" cy="22" r="2" fill="#ffdbcb"/>
  <rect x="49" y="24" width="2" height="3" fill="#8d6e63"/>
  <!-- Bow -->
  <path d="M47 22 Q49 20 51 22" stroke="#5d4037" stroke-width="1" fill="none"/>
  <!-- Fire beacon -->
  <circle cx="50" cy="18" r="2" fill="#ff5722"/>
  <circle cx="50" cy="16" r="1" fill="#ffeb3b"/>
</svg>