<svg viewBox="0 0 100 100" xmlns="http://www.w3.org/2000/svg">
  <defs>
    <linearGradient id="metalGrad" x1="0%" y1="0%" x2="0%" y2="100%">
      <stop offset="0%" stop-color="#9e9e9e"/>
      <stop offset="50%" stop-color="#616161"/>
      <stop offset="100%" stop-color="#212121"/>
    </linearGradient>
    <linearGradient id="woodGrad" x1="0%" y1="0%" x2="0%" y2="100%">
      <stop offset="0%" stop-color="#8d6e63"/>
      <stop offset="100%" stop-color="#3e2723"/>
    </linearGradient>
    <linearGradient id="leatherGrad" x1="0%" y1="0%" x2="0%" y2="100%">
      <stop offset="0%" stop-color="#a1887f"/>
      <stop offset="100%" stop-color="#5d4037"/>
    </linearGradient>
    <radialGradient id="dustGrad" cx="50%" cy="50%">
      <stop offset="0%" stop-color="#d7ccc8"/>
      <stop offset="100%" stop-color="#bcaaa4"/>
    </radialGradient>
  </defs>
  
  <!-- Armored Chariot - Stryker equivalent -->
  
  <!-- Main chariot body with armor plating -->
  <rect x="25" y="35" width="50" height="20" fill="url(#woodGrad)" stroke="#212121" stroke-width="2" rx="3"/>
  <!-- Metal armor reinforcement -->
  <rect x="27" y="37" width="46" height="16" fill="url(#metalGrad)" stroke="#000" stroke-width="1"/>
  <!-- Armor plate rivets -->
  <circle cx="32" cy="40" r="1" fill="#424242"/>
  <circle cx="38" cy="40" r="1" fill="#424242"/>
  <circle cx="44" cy="40" r="1" fill="#424242"/>
  <circle cx="50" cy="40" r="1" fill="#424242"/>
  <circle cx="56" cy="40" r="1" fill="#424242"/>
  <circle cx="62" cy="40" r="1" fill="#424242"/>
  <circle cx="68" cy="40" r="1" fill="#424242"/>
  <circle cx="32" cy="47" r="1" fill="#424242"/>
  <circle cx="38" cy="47" r="1" fill="#424242"/>
  <circle cx="44" cy="47" r="1" fill="#424242"/>
  <circle cx="50" cy="47" r="1" fill="#424242"/>
  <circle cx="56" cy="47" r="1" fill="#424242"/>
  <circle cx="62" cy="47" r="1" fill="#424242"/>
  <circle cx="68" cy="47" r="1" fill="#424242"/>
  
  <!-- Armored front with ram -->
  <polygon points="75,35 85,42.5 75,50" fill="url(#metalGrad)" stroke="#000" stroke-width="2"/>
  <!-- Ram spikes -->
  <polygon points="85,40 88,42.5 85,45" fill="#424242"/>
  <polygon points="85,37 88,39.5 85,42" fill="#424242"/>
  <polygon points="85,45 88,47.5 85,50" fill="#424242"/>
  
  <!-- Side armor plates -->
  <rect x="25" y="32" width="50" height="3" fill="url(#metalGrad)" stroke="#000" stroke-width="1"/>
  <rect x="25" y="55" width="50" height="3" fill="url(#metalGrad)" stroke="#000" stroke-width="1"/>
  
  <!-- Heavy wheels with metal rims -->
  <circle cx="35" cy="65" r="10" fill="url(#woodGrad)" stroke="#212121" stroke-width="3"/>
  <circle cx="65" cy="65" r="10" fill="url(#woodGrad)" stroke="#212121" stroke-width="3"/>
  <!-- Metal wheel rims -->
  <circle cx="35" cy="65" r="10" fill="none" stroke="url(#metalGrad)" stroke-width="3"/>
  <circle cx="65" cy="65" r="10" fill="none" stroke="url(#metalGrad)" stroke-width="3"/>
  <!-- Reinforced spokes -->
  <line x1="35" y1="55" x2="35" y2="75" stroke="#212121" stroke-width="3"/>
  <line x1="25" y1="65" x2="45" y2="65" stroke="#212121" stroke-width="3"/>
  <line x1="28" y1="58" x2="42" y2="72" stroke="#212121" stroke-width="2"/>
  <line x1="42" y1="58" x2="28" y2="72" stroke="#212121" stroke-width="2"/>
  <line x1="65" y1="55" x2="65" y2="75" stroke="#212121" stroke-width="3"/>
  <line x1="55" y1="65" x2="75" y2="65" stroke="#212121" stroke-width="3"/>
  <line x1="58" y1="58" x2="72" y2="72" stroke="#212121" stroke-width="2"/>
  <line x1="72" y1="58" x2="58" y2="72" stroke="#212121" stroke-width="2"/>
  
  <!-- Charioteer with detailed armor -->
  <circle cx="45" cy="25" r="5" fill="#ffdbcb" stroke="#d4a574" stroke-width="1"/>
  <!-- Helmet with crest -->
  <path d="M40 18 Q45 14 50 18 Q50 28 45 28 Q40 28 40 18" fill="url(#metalGrad)" stroke="#000" stroke-width="1"/>
  <line x1="45" y1="14" x2="45" y2="10" stroke="#d32f2f" stroke-width="3"/>
  <polygon points="45,10 47,8 43,8" fill="#f44336"/>
  <!-- Eye holes -->
  <circle cx="43" cy="23" r="1.5" fill="#1976d2"/>
  <circle cx="47" cy="23" r="1.5" fill="#1976d2"/>
  
  <!-- Armored torso -->
  <rect x="40" y="30" width="10" height="15" fill="url(#metalGrad)" stroke="#000" stroke-width="1"/>
  <!-- Chest plate details -->
  <circle cx="42" cy="33" r="1" fill="#424242"/>
  <circle cx="48" cy="33" r="1" fill="#424242"/>
  <circle cx="45" cy="37" r="1" fill="#424242"/>
  <!-- Belt -->
  <rect x="39" y="43" width="12" height="3" fill="url(#leatherGrad)" stroke="#3e2723" stroke-width="1"/>
  
  <!-- Armored arms holding reins -->
  <ellipse cx="35" cy="35" rx="3" ry="6" fill="url(#metalGrad)" stroke="#000" stroke-width="1"/>
  <ellipse cx="55" cy="35" rx="3" ry="6" fill="url(#metalGrad)" stroke="#000" stroke-width="1"/>
  <!-- Gauntlets -->
  <circle cx="33" cy="41" r="3" fill="url(#metalGrad)" stroke="#000" stroke-width="1"/>
  <circle cx="57" cy="41" r="3" fill="url(#metalGrad)" stroke="#000" stroke-width="1"/>
  
  <!-- War horses with armor -->
  <!-- Horse 1 -->
  <ellipse cx="15" cy="50" rx="10" ry="15" fill="#8d6e63" stroke="#5d4037" stroke-width="2"/>
  <ellipse cx="8" cy="42" rx="5" ry="8" fill="#8d6e63" stroke="#5d4037" stroke-width="2"/>
  <!-- Horse armor -->
  <rect x="10" y="40" width="15" height="20" fill="url(#metalGrad)" stroke="#000" stroke-width="1"/>
  <!-- Horse head armor -->
  <ellipse cx="8" cy="42" rx="5" ry="8" fill="url(#metalGrad)" stroke="#000" stroke-width="1"/>
  <!-- Horse eye -->
  <circle cx="6" cy="40" r="1.5" fill="#8d4a47"/>
  <!-- Horse mane -->
  <path d="M3 35 Q8 30 13 35 Q10 38 8 38 Q6 38 3 35" fill="#6d4c41" stroke="#3e2723" stroke-width="1"/>
  
  <!-- Horse legs -->
  <rect x="8" y="65" width="3" height="12" fill="#8d6e63"/>
  <rect x="12" y="65" width="3" height="12" fill="#8d6e63"/>
  <rect x="16" y="65" width="3" height="12" fill="#8d6e63"/>
  <rect x="20" y="65" width="3" height="12" fill="#8d6e63"/>
  <!-- Hooves -->
  <ellipse cx="9.5" cy="79" rx="2" ry="1.5" fill="#212121"/>
  <ellipse cx="13.5" cy="79" rx="2" ry="1.5" fill="#212121"/>
  <ellipse cx="17.5" cy="79" rx="2" ry="1.5" fill="#212121"/>
  <ellipse cx="21.5" cy="79" rx="2" ry="1.5" fill="#212121"/>
  
  <!-- Reins and harness -->
  <path d="M33 41 Q25 38 15 42" stroke="url(#leatherGrad)" stroke-width="2" fill="none"/>
  <path d="M57 41 Q65 38 75 42" stroke="url(#leatherGrad)" stroke-width="2" fill="none"/>
  <!-- Harness details -->
  <rect x="12" y="45" width="8" height="2" fill="url(#leatherGrad)" stroke="#3e2723" stroke-width="1"/>
  <circle cx="16" cy="46" r="1" fill="#424242"/>
  
  <!-- Weapons rack -->
  <line x1="30" y1="25" x2="30" y2="35" stroke="url(#woodGrad)" stroke-width="2"/>
  <line x1="32" y1="25" x2="32" y2="35" stroke="url(#woodGrad)" stroke-width="2"/>
  <!-- Spears -->
  <line x1="28" y1="15" x2="28" y2="35" stroke="url(#woodGrad)" stroke-width="2"/>
  <line x1="34" y1="15" x2="34" y2="35" stroke="url(#woodGrad)" stroke-width="2"/>
  <polygon points="28,15 26,17 30,17" fill="url(#metalGrad)"/>
  <polygon points="34,15 32,17 36,17" fill="url(#metalGrad)"/>
  
  <!-- Shield mounted on side -->
  <ellipse cx="75" cy="30" rx="5" ry="8" fill="url(#metalGrad)" stroke="#000" stroke-width="2"/>
  <circle cx="75" cy="30" r="3" fill="#d32f2f"/>
  <polygon points="75,27 73,30 75,33 77,30" fill="#ffc107"/>
  
  <!-- Dust clouds from movement -->
  <circle cx="20" cy="75" r="3" fill="url(#dustGrad)" opacity="0.6"/>
  <circle cx="25" cy="78" r="2" fill="url(#dustGrad)" opacity="0.4"/>
  <circle cx="15" cy="80" r="2.5" fill="url(#dustGrad)" opacity="0.5"/>
  <circle cx="80" cy="75" r="3" fill="url(#dustGrad)" opacity="0.6"/>
  <circle cx="85" cy="78" r="2" fill="url(#dustGrad)" opacity="0.4"/>
  <circle cx="75" cy="80" r="2.5" fill="url(#dustGrad)" opacity="0.5"/>
  
  <!-- Speed lines -->
  <path d="M5 45 Q2 43 5 40" stroke="#e3f2fd" stroke-width="2" fill="none" opacity="0.7"/>
  <path d="M7 50 Q4 48 7 45" stroke="#e3f2fd" stroke-width="2" fill="none" opacity="0.7"/>
  <path d="M9 55 Q6 53 9 50" stroke="#e3f2fd" stroke-width="2" fill="none" opacity="0.7"/>
  
  <!-- Banner -->
  <line x1="70" y1="15" x2="70" y2="35" stroke="url(#woodGrad)" stroke-width="3"/>
  <rect x="70" y="15" width="15" height="10" fill="#f44336" stroke="#d32f2f" stroke-width="1"/>
  <polygon points="74,18 72,20 74,22 76,20" fill="#ffc107"/>
</svg>