<svg viewBox="0 0 100 100" xmlns="http://www.w3.org/2000/svg">
  <defs>
    <linearGradient id="woodGrad" x1="0%" y1="0%" x2="0%" y2="100%">
      <stop offset="0%" stop-color="#a1887f"/>
      <stop offset="50%" stop-color="#8d6e63"/>
      <stop offset="100%" stop-color="#5d4037"/>
    </linearGradient>
    <linearGradient id="metalGrad" x1="0%" y1="0%" x2="0%" y2="100%">
      <stop offset="0%" stop-color="#9e9e9e"/>
      <stop offset="50%" stop-color="#616161"/>
      <stop offset="100%" stop-color="#212121"/>
    </linearGradient>
    <linearGradient id="boltGrad" x1="0%" y1="0%" x2="100%" y2="0%">
      <stop offset="0%" stop-color="#8d6e63"/>
      <stop offset="70%" stop-color="#6d4c41"/>
      <stop offset="100%" stop-color="#424242"/>
    </linearGradient>
  </defs>
  
  <!-- Ballista - Artillery Level 3 (Quick) -->
  
  <!-- Wheeled base platform -->
  <rect x="25" y="60" width="50" height="8" fill="url(#woodGrad)" stroke="#3e2723" stroke-width="2" rx="2"/>
  <!-- Platform reinforcements -->
  <rect x="27" y="61" width="46" height="2" fill="#6d4c41"/>
  <rect x="27" y="65" width="46" height="2" fill="#6d4c41"/>
  <!-- Metal corner brackets -->
  <rect x="25" y="60" width="3" height="8" fill="url(#metalGrad)" stroke="#000" stroke-width="1"/>
  <rect x="72" y="60" width="3" height="8" fill="url(#metalGrad)" stroke="#000" stroke-width="1"/>
  
  <!-- Quick-deploy wheels -->
  <circle cx="32" cy="75" r="7" fill="url(#woodGrad)" stroke="#3e2723" stroke-width="2"/>
  <circle cx="68" cy="75" r="7" fill="url(#woodGrad)" stroke="#3e2723" stroke-width="2"/>
  <!-- Wheel spokes for fast movement -->
  <line x1="32" y1="68" x2="32" y2="82" stroke="#3e2723" stroke-width="2"/>
  <line x1="25" y1="75" x2="39" y2="75" stroke="#3e2723" stroke-width="2"/>
  <line x1="68" y1="68" x2="68" y2="82" stroke="#3e2723" stroke-width="2"/>
  <line x1="61" y1="75" x2="75" y2="75" stroke="#3e2723" stroke-width="2"/>
  <!-- Metal wheel reinforcements -->
  <circle cx="32" cy="75" r="7" fill="none" stroke="url(#metalGrad)" stroke-width="1"/>
  <circle cx="68" cy="75" r="7" fill="none" stroke="url(#metalGrad)" stroke-width="1"/>
  
  <!-- Main ballista frame -->
  <rect x="35" y="35" width="30" height="6" fill="url(#woodGrad)" stroke="#3e2723" stroke-width="2"/>
  <!-- Frame details -->
  <rect x="36" y="36" width="28" height="2" fill="#6d4c41"/>
  <rect x="36" y="39" width="28" height="2" fill="#6d4c41"/>
  
  <!-- Bow arms (flexible design) -->
  <path d="M35 38 Q20 25 15 35 Q25 45 35 41" fill="url(#woodGrad)" stroke="#3e2723" stroke-width="2"/>
  <path d="M65 38 Q80 25 85 35 Q75 45 65 41" fill="url(#woodGrad)" stroke="#3e2723" stroke-width="2"/>
  <!-- Bow string tension -->
  <path d="M15 35 Q50 20 85 35" stroke="#8d6e63" stroke-width="2" fill="none"/>
  <path d="M15 35 Q50 22 85 35" stroke="#6d4c41" stroke-width="1" fill="none"/>
  
  <!-- Bolt track with precision grooves -->
  <rect x="40" y="37" width="20" height="2" fill="url(#metalGrad)" stroke="#000" stroke-width="1"/>
  <line x1="41" y1="37.5" x2="59" y2="37.5" stroke="#424242" stroke-width="0.5"/>
  <line x1="41" y1="38.5" x2="59" y2="38.5" stroke="#424242" stroke-width="0.5"/>
  
  <!-- Loaded bolt with detailed fletching -->
  <rect x="42" y="36" width="18" height="1" fill="url(#boltGrad)"/>
  <polygon points="60,36 65,37.5 60,39" fill="#424242"/>
  <!-- Fletching details -->
  <polygon points="42,35.5 40,36.5 42,37.5 44,36.5" fill="#f44336"/>
  <polygon points="42,37.5 40,38.5 42,39.5 44,38.5" fill="#f44336"/>
  
  <!-- Quick-release mechanism -->
  <rect x="47" y="41" width="6" height="4" fill="url(#metalGrad)" stroke="#000" stroke-width="1"/>
  <circle cx="50" cy="43" r="1.5" fill="#424242"/>
  <!-- Trigger lever -->
  <rect x="48" y="45" width="4" height="8" fill="url(#woodGrad)" stroke="#3e2723" stroke-width="1"/>
  
  <!-- Support legs for stability -->
  <line x1="40" y1="41" x2="35" y2="60" stroke="url(#woodGrad)" stroke-width="3"/>
  <line x1="60" y1="41" x2="65" y2="60" stroke="url(#woodGrad)" stroke-width="3"/>
  <!-- Leg reinforcements -->
  <rect x="37" y="50" width="2" height="8" fill="url(#metalGrad)" stroke="#000" stroke-width="1"/>
  <rect x="63" y="50" width="2" height="8" fill="url(#metalGrad)" stroke="#000" stroke-width="1"/>
  
  <!-- Operator with detailed gear -->
  <circle cx="50" cy="25" r="4" fill="#ffdbcb" stroke="#d4a574" stroke-width="1"/>
  <!-- Archer's cap -->
  <path d="M46 20 Q50 17 54 20 Q54 25 50 25 Q46 25 46 20" fill="#4caf50" stroke="#2e7d32" stroke-width="1"/>
  <!-- Feather in cap -->
  <line x1="52" y1="18" x2="55" y2="15" stroke="#ff5722" stroke-width="2"/>
  <!-- Eyes focused on target -->
  <circle cx="48" cy="23" r="1" fill="#1976d2"/>
  <circle cx="52" cy="23" r="1" fill="#1976d2"/>
  <!-- Concentrated expression -->
  <path d="M48 26 Q50 27 52 26" stroke="#8d4a47" stroke-width="1" fill="none"/>
  
  <!-- Archer's tunic -->
  <rect x="46" y="29" width="8" height="12" fill="#4caf50" stroke="#2e7d32" stroke-width="1"/>
  <rect x="47" y="31" width="6" height="2" fill="#2e7d32"/>
  <!-- Belt with quiver -->
  <rect x="45" y="37" width="10" height="2" fill="url(#metalGrad)" stroke="#000" stroke-width="1"/>
  
  <!-- Arms positioned for quick reload -->
  <ellipse cx="42" cy="33" rx="3" ry="5" fill="#ffdbcb" stroke="#d4a574" stroke-width="1"/>
  <ellipse cx="58" cy="33" rx="3" ry="5" fill="#ffdbcb" stroke="#d4a574" stroke-width="1"/>
  <!-- Hands on controls -->
  <circle cx="40" cy="38" r="2" fill="#ffdbcb"/>
  <circle cx="60" cy="38" r="2" fill="#ffdbcb"/>
  
  <!-- Spare bolts ready for quick loading -->
  <rect x="20" y="50" width="1" height="12" fill="url(#boltGrad)"/>
  <rect x="22" y="52" width="1" height="12" fill="url(#boltGrad)"/>
  <rect x="24" y="54" width="1" height="12" fill="url(#boltGrad)"/>
  <!-- Bolt tips -->
  <polygon points="20,50 18,51 20,52" fill="#424242"/>
  <polygon points="22,52 20,53 22,54" fill="#424242"/>
  <polygon points="24,54 22,55 24,56" fill="#424242"/>
  
  <!-- Quick-adjust sight -->
  <rect x="62" y="32" width="2" height="6" fill="url(#metalGrad)" stroke="#000" stroke-width="1"/>
  <circle cx="63" cy="34" r="1" fill="#424242"/>
  
  <!-- Movement indicator lines -->
  <path d="M10 40 Q5 38 8 35" stroke="#e3f2fd" stroke-width="1" fill="none" opacity="0.6"/>
  <path d="M12 45 Q7 43 10 40" stroke="#e3f2fd" stroke-width="1" fill="none" opacity="0.6"/>
  <path d="M90 40 Q95 38 92 35" stroke="#e3f2fd" stroke-width="1" fill="none" opacity="0.6"/>
  <path d="M88 45 Q93 43 90 40" stroke="#e3f2fd" stroke-width="1" fill="none" opacity="0.6"/>
</svg>