<svg viewBox="0 0 100 100" xmlns="http://www.w3.org/2000/svg">
  <defs>
    <linearGradient id="hullGrad" x1="0%" y1="0%" x2="0%" y2="100%">
      <stop offset="0%" stop-color="#6d4c41"/>
      <stop offset="50%" stop-color="#5d4037"/>
      <stop offset="100%" stop-color="#3e2723"/>
    </linearGradient>
    <linearGradient id="metalGrad" x1="0%" y1="0%" x2="0%" y2="100%">
      <stop offset="0%" stop-color="#9e9e9e"/>
      <stop offset="50%" stop-color="#616161"/>
      <stop offset="100%" stop-color="#212121"/>
    </linearGradient>
    <linearGradient id="sailGrad" x1="0%" y1="0%" x2="0%" y2="100%">
      <stop offset="0%" stop-color="#f5f5f5"/>
      <stop offset="50%" stop-color="#e0e0e0"/>
      <stop offset="100%" stop-color="#bdbdbd"/>
    </linearGradient>
    <radialGradient id="cannonGrad" cx="50%" cy="50%">
      <stop offset="0%" stop-color="#424242"/>
      <stop offset="100%" stop-color="#212121"/>
    </radialGradient>
  </defs>
  
  <!-- Battle Frigate - Destroyer equivalent -->
  
  <!-- Reinforced warship hull -->
  <path d="M12 57 Q50 47 88 57 Q88 67 83 72 Q50 77 17 72 Q12 67 12 57" fill="url(#hullGrad)" stroke="#212121" stroke-width="3"/>
  <!-- Hull armor plating -->
  <path d="M15 59 Q50 51 85 59" stroke="#3e2723" stroke-width="2" fill="none"/>
  <path d="M15 63 Q50 55 85 63" stroke="#3e2723" stroke-width="2" fill="none"/>
  <path d="M15 67 Q50 59 85 67" stroke="#3e2723" stroke-width="2" fill="none"/>
  <!-- Metal reinforcement bands -->
  <rect x="20" y="58" width="60" height="2" fill="url(#metalGrad)"/>
  <rect x="20" y="65" width="60" height="2" fill="url(#metalGrad)"/>
  
  <!-- Armored deck -->
  <ellipse cx="50" cy="54" rx="33" ry="5" fill="#795548" stroke="#5d4037" stroke-width="1"/>
  
  <!-- Main war mast -->
  <line x1="50" y1="15" x2="50" y2="54" stroke="#5d4037" stroke-width="4"/>
  <!-- Mast reinforcements -->
  <rect x="49" y="20" width="2" height="30" fill="#3e2723"/>
  
  <!-- Battle sail with heraldic design -->
  <rect x="32" y="18" width="36" height="28" fill="url(#sailGrad)" stroke="#bdbdbd" stroke-width="1"/>
  <!-- War banner design -->
  <polygon points="50,25 45,30 50,35 55,30" fill="#f44336"/>
  <rect x="47" y="32" width="6" height="8" fill="#f44336"/>
  <!-- Sail battle damage -->
  <polygon points="38,20 42,22 38,26" fill="none" stroke="#bdbdbd" stroke-width="2"/>
  <polygon points="62,40 66,42 62,46" fill="none" stroke="#bdbdbd" stroke-width="2"/>
  
  <!-- Forward mast -->
  <line x1="25" y1="25" x2="25" y2="54" stroke="#5d4037" stroke-width="3"/>
  <!-- Forward battle sail -->
  <rect x="15" y="28" width="20" height="18" fill="url(#sailGrad)" stroke="#bdbdbd" stroke-width="1"/>
  
  <!-- Rear mast -->
  <line x1="75" y1="25" x2="75" y2="54" stroke="#5d4037" stroke-width="3"/>
  <!-- Rear sail -->
  <rect x="65" y="28" width="20" height="18" fill="url(#sailGrad)" stroke="#bdbdbd" stroke-width="1"/>
  
  <!-- Heavy cannon battery -->
  <circle cx="25" cy="54" r="3" fill="url(#cannonGrad)" stroke="#000" stroke-width="1"/>
  <rect x="22" y="52" width="6" height="4" fill="url(#metalGrad)" stroke="#000" stroke-width="1"/>
  <circle cx="35" cy="54" r="3" fill="url(#cannonGrad)" stroke="#000" stroke-width="1"/>
  <rect x="32" y="52" width="6" height="4" fill="url(#metalGrad)" stroke="#000" stroke-width="1"/>
  <circle cx="45" cy="54" r="3" fill="url(#cannonGrad)" stroke="#000" stroke-width="1"/>
  <rect x="42" y="52" width="6" height="4" fill="url(#metalGrad)" stroke="#000" stroke-width="1"/>
  <circle cx="55" cy="54" r="3" fill="url(#cannonGrad)" stroke="#000" stroke-width="1"/>
  <rect x="52" y="52" width="6" height="4" fill="url(#metalGrad)" stroke="#000" stroke-width="1"/>
  <circle cx="65" cy="54" r="3" fill="url(#cannonGrad)" stroke="#000" stroke-width="1"/>
  <rect x="62" y="52" width="6" height="4" fill="url(#metalGrad)" stroke="#000" stroke-width="1"/>
  <circle cx="75" cy="54" r="3" fill="url(#cannonGrad)" stroke="#000" stroke-width="1"/>
  <rect x="72" y="52" width="6" height="4" fill="url(#metalGrad)" stroke="#000" stroke-width="1"/>
  
  <!-- Cannon ports -->
  <rect x="23" y="56" width="4" height="3" fill="#212121"/>
  <rect x="33" y="56" width="4" height="3" fill="#212121"/>
  <rect x="43" y="56" width="4" height="3" fill="#212121"/>
  <rect x="53" y="56" width="4" height="3" fill="#212121"/>
  <rect x="63" y="56" width="4" height="3" fill="#212121"/>
  <rect x="73" y="56" width="4" height="3" fill="#212121"/>
  
  <!-- Cannon muzzle flashes -->
  <ellipse cx="25" cy="51" rx="2" ry="3" fill="#ffeb3b" opacity="0.8"/>
  <ellipse cx="35" cy="51" rx="2" ry="3" fill="#ff5722" opacity="0.8"/>
  <ellipse cx="65" cy="51" rx="2" ry="3" fill="#ffeb3b" opacity="0.8"/>
  <!-- Smoke -->
  <circle cx="23" cy="48" r="2" fill="#9e9e9e" opacity="0.7"/>
  <circle cx="21" cy="45" r="1.5" fill="#9e9e9e" opacity="0.5"/>
  <circle cx="33" cy="48" r="2" fill="#9e9e9e" opacity="0.7"/>
  <circle cx="31" cy="45" r="1.5" fill="#9e9e9e" opacity="0.5"/>
  <circle cx="67" cy="48" r="2" fill="#9e9e9e" opacity="0.7"/>
  <circle cx="69" cy="45" r="1.5" fill="#9e9e9e" opacity="0.5"/>
  
  <!-- Armored bridge -->
  <rect x="70" y="35" width="15" height="12" fill="url(#metalGrad)" stroke="#000" stroke-width="2"/>
  <!-- Bridge windows -->
  <rect x="72" y="38" width="3" height="3" fill="#81d4fa"/>
  <rect x="76" y="38" width="3" height="3" fill="#81d4fa"/>
  <rect x="80" y="38" width="3" height="3" fill="#81d4fa"/>
  <!-- Bridge armor plating -->
  <rect x="71" y="36" width="12" height="2" fill="#616161"/>
  <rect x="71" y="45" width="12" height="2" fill="#616161"/>
  
  <!-- Naval crew -->
  <!-- Captain -->
  <circle cx="78" cy="30" r="3" fill="#ffdbcb" stroke="#d4a574" stroke-width="1"/>
  <!-- Naval tricorn hat -->
  <path d="M75 25 Q78 22 81 25 Q81 30 78 30 Q75 30 75 25" fill="#1976d2" stroke="#0d47a1" stroke-width="1"/>
  <circle cx="79" cy="27" r="0.8" fill="#ffc107"/>
  <!-- Eyes -->
  <circle cx="76" cy="28" r="1" fill="#1976d2"/>
  <circle cx="80" cy="28" r="1" fill="#1976d2"/>
  <!-- Naval uniform -->
  <rect x="75" y="33" width="6" height="10" fill="#1976d2" stroke="#0d47a1" stroke-width="1"/>
  <rect x="76" y="35" width="4" height="2" fill="#ffc107"/>
  <circle cx="77" cy="39" r="0.8" fill="#ffc107"/>
  <circle cx="79" cy="39" r="0.8" fill="#ffc107"/>
  
  <!-- Gunner -->
  <circle cx="30" cy="45" r="3" fill="#ffdbcb" stroke="#d4a574" stroke-width="1"/>
  <path d="M27 41 Q30 38 33 41" fill="#8d6e63"/>
  <circle cx="28" cy="43" r="1" fill="#1976d2"/>
  <circle cx="32" cy="43" r="1" fill="#1976d2"/>
  <rect x="27" y="48" width="6" height="8" fill="#795548" stroke="#5d4037" stroke-width="1"/>
  <!-- Gunner's ramrod -->
  <line x1="25" y1="40" x2="25" y2="50" stroke="#8d6e63" stroke-width="2"/>
  
  <!-- Sailor -->
  <circle cx="60" cy="45" r="3" fill="#ffdbcb" stroke="#d4a574" stroke-width="1"/>
  <path d="M57 41 Q60 38 63 41" fill="#8d6e63"/>
  <circle cx="58" cy="43" r="1" fill="#1976d2"/>
  <circle cx="62" cy="43" r="1" fill="#1976d2"/>
  <rect x="57" y="48" width="6" height="8" fill="#795548" stroke="#5d4037" stroke-width="1"/>
  
  <!-- Powder barrels -->
  <ellipse cx="20" cy="48" rx="3" ry="4" fill="#3e2723" stroke="#212121" stroke-width="1"/>
  <ellipse cx="80" cy="48" rx="3" ry="4" fill="#3e2723" stroke="#212121" stroke-width="1"/>
  <!-- Barrel hoops -->
  <ellipse cx="20" cy="46" rx="2.5" ry="1" fill="none" stroke="#616161" stroke-width="1"/>
  <ellipse cx="20" cy="50" rx="2.5" ry="1" fill="none" stroke="#616161" stroke-width="1"/>
  <ellipse cx="80" cy="46" rx="2.5" ry="1" fill="none" stroke="#616161" stroke-width="1"/>
  <ellipse cx="80" cy="50" rx="2.5" ry="1" fill="none" stroke="#616161" stroke-width="1"/>
  <!-- Danger symbols -->
  <polygon points="20,44 18,46 20,48 22,46" fill="#f44336"/>
  <polygon points="80,44 78,46 80,48 82,46" fill="#f44336"/>
  
  <!-- Cannon balls -->
  <circle cx="15" cy="60" r="1.5" fill="#424242"/>
  <circle cx="17" cy="62" r="1.5" fill="#424242"/>
  <circle cx="19" cy="60" r="1.5" fill="#424242"/>
  <circle cx="85" cy="60" r="1.5" fill="#424242"/>
  <circle cx="83" cy="62" r="1.5" fill="#424242"/>
  <circle cx="81" cy="60" r="1.5" fill="#424242"/>
  
  <!-- Ram prow -->
  <polygon points="88,57 95,60 88,63" fill="url(#metalGrad)" stroke="#000" stroke-width="2"/>
  <!-- Ram spikes -->
  <polygon points="95,59 98,60 95,61" fill="#424242"/>
  <polygon points="95,61 98,62 95,63" fill="#424242"/>
  
  <!-- Battle flag -->
  <line x1="50" y1="15" x2="50" y2="10" stroke="#5d4037" stroke-width="2"/>
  <rect x="50" y="10" width="15" height="10" fill="#f44336" stroke="#d32f2f" stroke-width="1"/>
  <polygon points="55,13 53,15 55,17 57,15" fill="#ffc107"/>
  <rect x="52" y="16" width="6" height="2" fill="#ffc107"/>
  
  <!-- Rigging -->
  <path d="M15 28 Q25 20 50 15" stroke="#8d6e63" stroke-width="2" fill="none"/>
  <path d="M85 28 Q75 20 50 15" stroke="#8d6e63" stroke-width="2" fill="none"/>
  <path d="M25 46 Q37 40 50 38" stroke="#8d6e63" stroke-width="2" fill="none"/>
  <path d="M75 46 Q63 40 50 38" stroke="#8d6e63" stroke-width="2" fill="none"/>
  
  <!-- Battle damage -->
  <polygon points="40,59 44,61 40,65" fill="#212121"/>
  <polygon points="60,59 64,61 60,65" fill="#212121"/>
  <!-- Patch repairs -->
  <rect x="38" y="60" width="6" height="4" fill="#8d6e63" stroke="#6d4c41" stroke-width="1"/>
  
  <!-- Combat wake -->
  <ellipse cx="8" cy="67" rx="5" ry="3" fill="#81d4fa" opacity="0.8"/>
  <ellipse cx="5" cy="70" rx="4" ry="2" fill="#81d4fa" opacity="0.6"/>
  <ellipse cx="3" cy="73" rx="3" ry="1.5" fill="#81d4fa" opacity="0.4"/>
  <ellipse cx="1" cy="75" rx="2" ry="1" fill="#81d4fa" opacity="0.3"/>
  
  <!-- Water splashes from cannon fire -->
  <circle cx="92" cy="65" r="2" fill="#81d4fa" opacity="0.7"/>
  <circle cx="95" cy="67" r="1.5" fill="#81d4fa" opacity="0.5"/>
  <circle cx="97" cy="70" r="1" fill="#81d4fa" opacity="0.4"/>
  
  <!-- Speed lines -->
  <path d="M3 60 Q0 58 3 55" stroke="#e3f2fd" stroke-width="2" fill="none" opacity="0.8"/>
  <path d="M5 65 Q2 63 5 60" stroke="#e3f2fd" stroke-width="2" fill="none" opacity="0.8"/>
  <path d="M7 70 Q4 68 7 65" stroke="#e3f2fd" stroke-width="2" fill="none" opacity="0.8"/>
</svg>