<svg viewBox="0 0 100 100" xmlns="http://www.w3.org/2000/svg">
  <defs>
    <linearGradient id="bellGrad" x1="0%" y1="0%" x2="0%" y2="100%">
      <stop offset="0%" stop-color="#a1887f"/>
      <stop offset="50%" stop-color="#8d6e63"/>
      <stop offset="100%" stop-color="#5d4037"/>
    </linearGradient>
    <radialGradient id="waterGrad" cx="50%" cy="50%">
      <stop offset="0%" stop-color="#4fc3f7"/>
      <stop offset="100%" stop-color="#1976d2"/>
    </radialGradient>
    <linearGradient id="metalGrad" x1="0%" y1="0%" x2="0%" y2="100%">
      <stop offset="0%" stop-color="#9e9e9e"/>
      <stop offset="50%" stop-color="#616161"/>
      <stop offset="100%" stop-color="#212121"/>
    </linearGradient>
    <radialGradient id="airGrad" cx="50%" cy="30%">
      <stop offset="0%" stop-color="#e3f2fd"/>
      <stop offset="100%" stop-color="#81d4fa"/>
    </radialGradient>
  </defs>
  
  <!-- Diving Bell - Submarine equivalent -->
  
  <!-- Bell-shaped hull -->
  <path d="M30 40 Q30 25 50 25 Q70 25 70 40 L70 65 Q70 75 50 75 Q30 75 30 65 Z" 
        fill="url(#bellGrad)" stroke="#3e2723" stroke-width="3"/>
  
  <!-- Metal reinforcement bands -->
  <rect x="30" y="35" width="40" height="3" fill="url(#metalGrad)" stroke="#000" stroke-width="1"/>
  <rect x="30" y="45" width="40" height="3" fill="url(#metalGrad)" stroke="#000" stroke-width="1"/>
  <rect x="30" y="55" width="40" height="3" fill="url(#metalGrad)" stroke="#000" stroke-width="1"/>
  <rect x="30" y="65" width="40" height="3" fill="url(#metalGrad)" stroke="#000" stroke-width="1"/>
  
  <!-- Rivets along bands -->
  <circle cx="33" cy="36.5" r="1" fill="#424242"/>
  <circle cx="40" cy="36.5" r="1" fill="#424242"/>
  <circle cx="50" cy="36.5" r="1" fill="#424242"/>
  <circle cx="60" cy="36.5" r="1" fill="#424242"/>
  <circle cx="67" cy="36.5" r="1" fill="#424242"/>
  <circle cx="33" cy="46.5" r="1" fill="#424242"/>
  <circle cx="40" cy="46.5" r="1" fill="#424242"/>
  <circle cx="50" cy="46.5" r="1" fill="#424242"/>
  <circle cx="60" cy="46.5" r="1" fill="#424242"/>
  <circle cx="67" cy="46.5" r="1" fill="#424242"/>
  <circle cx="33" cy="56.5" r="1" fill="#424242"/>
  <circle cx="40" cy="56.5" r="1" fill="#424242"/>
  <circle cx="50" cy="56.5" r="1" fill="#424242"/>
  <circle cx="60" cy="56.5" r="1" fill="#424242"/>
  <circle cx="67" cy="56.5" r="1" fill="#424242"/>
  <circle cx="33" cy="66.5" r="1" fill="#424242"/>
  <circle cx="40" cy="66.5" r="1" fill="#424242"/>
  <circle cx="50" cy="66.5" r="1" fill="#424242"/>
  <circle cx="60" cy="66.5" r="1" fill="#424242"/>
  <circle cx="67" cy="66.5" r="1" fill="#424242"/>
  
  <!-- Viewing windows -->
  <circle cx="40" cy="40" r="5" fill="#81d4fa" stroke="#0277bd" stroke-width="2"/>
  <circle cx="60" cy="40" r="5" fill="#81d4fa" stroke="#0277bd" stroke-width="2"/>
  <circle cx="50" cy="30" r="4" fill="#81d4fa" stroke="#0277bd" stroke-width="2"/>
  <!-- Window frames -->
  <circle cx="40" cy="40" r="6" fill="none" stroke="url(#metalGrad)" stroke-width="2"/>
  <circle cx="60" cy="40" r="6" fill="none" stroke="url(#metalGrad)" stroke-width="2"/>
  <circle cx="50" cy="30" r="5" fill="none" stroke="url(#metalGrad)" stroke-width="2"/>
  
  <!-- Crew inside (visible through windows) -->
  <circle cx="40" cy="38" r="2" fill="#ffdbcb"/>
  <circle cx="60" cy="38" r="2" fill="#ffdbcb"/>
  <circle cx="50" cy="28" r="1.5" fill="#ffdbcb"/>
  
  <!-- Air hose connection at top -->
  <rect x="47" y="15" width="6" height="10" fill="url(#metalGrad)" stroke="#000" stroke-width="2"/>
  <circle cx="50" cy="18" r="3" fill="#616161" stroke="#000" stroke-width="1"/>
  <!-- Hose -->
  <path d="M50 15 Q45 10 40 8 Q35 6 30 8 Q25 10 20 8 Q15 6 10 8" 
        stroke="url(#metalGrad)" stroke-width="4" fill="none"/>
  <!-- Hose segments -->
  <circle cx="45" cy="10" r="1.5" fill="#424242"/>
  <circle cx="35" cy="7" r="1.5" fill="#424242"/>
  <circle cx="25" cy="9" r="1.5" fill="#424242"/>
  <circle cx="15" cy="7" r="1.5" fill="#424242"/>
  
  <!-- Surface air pump -->
  <rect x="5" y="3" width="8" height="10" fill="url(#bellGrad)" stroke="#3e2723" stroke-width="2"/>
  <circle cx="9" cy="8" r="2" fill="url(#metalGrad)"/>
  <line x1="9" y1="6" x2="9" y2="10" stroke="#424242" stroke-width="2"/>
  
  <!-- Weighted bottom -->
  <rect x="35" y="70" width="30" height="8" fill="url(#metalGrad)" stroke="#000" stroke-width="2"/>
  <!-- Weight details -->
  <rect x="37" y="72" width="26" height="4" fill="#424242"/>
  <circle cx="42" cy="74" r="1" fill="#616161"/>
  <circle cx="50" cy="74" r="1" fill="#616161"/>
  <circle cx="58" cy="74" r="1" fill="#616161"/>
  
  <!-- Anchor chains -->
  <line x1="35" y1="75" x2="25" y2="85" stroke="#424242" stroke-width="3"/>
  <line x1="65" y1="75" x2="75" y2="85" stroke="#424242" stroke-width="3"/>
  <circle cx="30" cy="80" r="1" fill="#424242"/>
  <circle cx="27" cy="83" r="1" fill="#424242"/>
  <circle cx="70" cy="80" r="1" fill="#424242"/>
  <circle cx="73" cy="83" r="1" fill="#424242"/>
  
  <!-- Anchors -->
  <path d="M25 85 Q23 87 25 89 Q27 87 25 85" fill="url(#metalGrad)" stroke="#000" stroke-width="1"/>
  <line x1="25" y1="85" x2="25" y2="82" stroke="#424242" stroke-width="2"/>
  <line x1="23" y1="84" x2="27" y2="84" stroke="#424242" stroke-width="2"/>
  <path d="M75 85 Q73 87 75 89 Q77 87 75 85" fill="url(#metalGrad)" stroke="#000" stroke-width="1"/>
  <line x1="75" y1="85" x2="75" y2="82" stroke="#424242" stroke-width="2"/>
  <line x1="73" y1="84" x2="77" y2="84" stroke="#424242" stroke-width="2"/>
  
  <!-- Emergency equipment -->
  <rect x="32" y="58" width="4" height="8" fill="#f44336" stroke="#d32f2f" stroke-width="1"/>
  <circle cx="34" cy="62" r="1" fill="#fff"/>
  <rect x="64" y="58" width="4" height="8" fill="#ffc107" stroke="#ff8f00" stroke-width="1"/>
  <circle cx="66" cy="62" r="1" fill="#fff"/>
  
  <!-- Air bubble escape -->
  <circle cx="45" cy="20" r="2" fill="url(#airGrad)" opacity="0.7"/>
  <circle cx="43" cy="17" r="1.5" fill="url(#airGrad)" opacity="0.6"/>
  <circle cx="47" cy="15" r="1" fill="url(#airGrad)" opacity="0.5"/>
  <circle cx="55" cy="20" r="2" fill="url(#airGrad)" opacity="0.7"/>
  <circle cx="57" cy="17" r="1.5" fill="url(#airGrad)" opacity="0.6"/>
  <circle cx="53" cy="15" r="1" fill="url(#airGrad)" opacity="0.5"/>
  
  <!-- Water around bell -->
  <ellipse cx="50" cy="85" rx="35" ry="8" fill="url(#waterGrad)" opacity="0.7"/>
  <ellipse cx="50" cy="87" rx="30" ry="6" fill="#4fc3f7" opacity="0.5"/>
  <ellipse cx="50" cy="89" rx="25" ry="4" fill="#81d4fa" opacity="0.4"/>
  
  <!-- Water pressure lines -->
  <path d="M20 50 Q15 48 20 45" stroke="#4fc3f7" stroke-width="2" fill="none" opacity="0.6"/>
  <path d="M80 50 Q85 48 80 45" stroke="#4fc3f7" stroke-width="2" fill="none" opacity="0.6"/>
  <path d="M22 60 Q17 58 22 55" stroke="#1976d2" stroke-width="1.5" fill="none" opacity="0.5"/>
  <path d="M78 60 Q83 58 78 55" stroke="#1976d2" stroke-width="1.5" fill="none" opacity="0.5"/>
  
  <!-- Depth markings on side -->
  <line x1="72" y1="35" x2="75" y2="35" stroke="#f5f5f5" stroke-width="1"/>
  <line x1="72" y1="40" x2="74" y2="40" stroke="#f5f5f5" stroke-width="1"/>
  <line x1="72" y1="45" x2="75" y2="45" stroke="#f5f5f5" stroke-width="1"/>
  <line x1="72" y1="50" x2="74" y2="50" stroke="#f5f5f5" stroke-width="1"/>
  <line x1="72" y1="55" x2="75" y2="55" stroke="#f5f5f5" stroke-width="1"/>
  <line x1="72" y1="60" x2="74" y2="60" stroke="#f5f5f5" stroke-width="1"/>
  
  <!-- Pressure gauge -->
  <circle cx="55" cy="50" r="3" fill="#f5f5f5" stroke="#616161" stroke-width="1"/>
  <line x1="55" y1="50" x2="57" y2="48" stroke="#d32f2f" stroke-width="2"/>
  <circle cx="55" cy="50" r="2" fill="none" stroke="#424242" stroke-width="1"/>
  
  <!-- Internal lighting -->
  <circle cx="50" cy="50" r="8" fill="#ffeb3b" opacity="0.3"/>
  <circle cx="50" cy="50" r="5" fill="#fff" opacity="0.2"/>
  
  <!-- Rope ladder -->
  <line x1="40" y1="25" x2="40" y2="15" stroke="#8d6e63" stroke-width="2"/>
  <line x1="60" y1="25" x2="60" y2="15" stroke="#8d6e63" stroke-width="2"/>
  <line x1="40" y1="17" x2="60" y2="17" stroke="#8d6e63" stroke-width="1"/>
  <line x1="40" y1="20" x2="60" y2="20" stroke="#8d6e63" stroke-width="1"/>
  <line x1="40" y1="23" x2="60" y2="23" stroke="#8d6e63" stroke-width="1"/>
  
  <!-- Bell top crown -->
  <circle cx="50" cy="25" r="3" fill="url(#metalGrad)" stroke="#000" stroke-width="1"/>
  <circle cx="50" cy="25" r="1.5" fill="#616161"/>
</svg>