<svg viewBox="0 0 100 100" xmlns="http://www.w3.org/2000/svg">
  <defs>
    <linearGradient id="hullGrad" x1="0%" y1="0%" x2="0%" y2="100%">
      <stop offset="0%" stop-color="#6d4c41"/>
      <stop offset="50%" stop-color="#5d4037"/>
      <stop offset="100%" stop-color="#3e2723"/>
    </linearGradient>
    <linearGradient id="metalGrad" x1="0%" y1="0%" x2="0%" y2="100%">
      <stop offset="0%" stop-color="#9e9e9e"/>
      <stop offset="50%" stop-color="#616161"/>
      <stop offset="100%" stop-color="#212121"/>
    </linearGradient>
    <linearGradient id="dragonGrad" x1="0%" y1="0%" x2="0%" y2="100%">
      <stop offset="0%" stop-color="#388e3c"/>
      <stop offset="50%" stop-color="#2e7d32"/>
      <stop offset="100%" stop-color="#1b5e20"/>
    </linearGradient>
    <radialGradient id="fireGrad" cx="50%" cy="50%">
      <stop offset="0%" stop-color="#ffeb3b"/>
      <stop offset="50%" stop-color="#ff5722"/>
      <stop offset="100%" stop-color="#d84315"/>
    </radialGradient>
    <linearGradient id="sailGrad" x1="0%" y1="0%" x2="0%" y2="100%">
      <stop offset="0%" stop-color="#f5f5f5"/>
      <stop offset="50%" stop-color="#e0e0e0"/>
      <stop offset="100%" stop-color="#bdbdbd"/>
    </linearGradient>
  </defs>
  
  <!-- Dragon Carrier - Aircraft Carrier equivalent -->
  
  <!-- Massive ship hull -->
  <path d="M5 60 Q50 50 95 60 Q95 70 90 75 Q50 80 10 75 Q5 70 5 60" fill="url(#hullGrad)" stroke="#212121" stroke-width="3"/>
  <!-- Hull reinforcement bands -->
  <path d="M8 62 Q50 54 92 62" stroke="#3e2723" stroke-width="2" fill="none"/>
  <path d="M8 66 Q50 58 92 66" stroke="#3e2723" stroke-width="2" fill="none"/>
  <path d="M8 70 Q50 62 92 70" stroke="#3e2723" stroke-width="2" fill="none"/>
  <!-- Metal armor plating -->
  <rect x="10" y="61" width="80" height="3" fill="url(#metalGrad)"/>
  <rect x="10" y="68" width="80" height="3" fill="url(#metalGrad)"/>
  
  <!-- Massive flight deck -->
  <ellipse cx="50" cy="57" rx="42" ry="7" fill="#795548" stroke="#5d4037" stroke-width="2"/>
  <!-- Deck planking -->
  <line x1="10" y1="55" x2="90" y2="55" stroke="#6d4c41" stroke-width="1"/>
  <line x1="10" y1="57" x2="90" y2="57" stroke="#6d4c41" stroke-width="1"/>
  <line x1="10" y1="59" x2="90" y2="59" stroke="#6d4c41" stroke-width="1"/>
  
  <!-- Dragon perches/roosts -->
  <rect x="15" y="45" width="8" height="12" fill="url(#metalGrad)" stroke="#000" stroke-width="1"/>
  <rect x="30" y="45" width="8" height="12" fill="url(#metalGrad)" stroke="#000" stroke-width="1"/>
  <rect x="45" y="45" width="8" height="12" fill="url(#metalGrad)" stroke="#000" stroke-width="1"/>
  <rect x="62" y="45" width="8" height="12" fill="url(#metalGrad)" stroke="#000" stroke-width="1"/>
  <rect x="77" y="45" width="8" height="12" fill="url(#metalGrad)" stroke="#000" stroke-width="1"/>
  
  <!-- Perch crossbars -->
  <line x1="17" y1="47" x2="21" y2="47" stroke="#424242" stroke-width="2"/>
  <line x1="32" y1="47" x2="36" y2="47" stroke="#424242" stroke-width="2"/>
  <line x1="47" y1="47" x2="51" y2="47" stroke="#424242" stroke-width="2"/>
  <line x1="64" y1="47" x2="68" y2="47" stroke="#424242" stroke-width="2"/>
  <line x1="79" y1="47" x2="83" y2="47" stroke="#424242" stroke-width="2"/>
  
  <!-- Dragons on deck -->
  <!-- Dragon 1 - Perched -->
  <ellipse cx="19" cy="40" rx="6" ry="4" fill="url(#dragonGrad)" stroke="#1b5e20" stroke-width="1"/>
  <ellipse cx="25" cy="38" rx="3" ry="2" fill="url(#dragonGrad)" stroke="#1b5e20" stroke-width="1"/>
  <!-- Dragon wings folded -->
  <path d="M16 38 Q12 35 14 42" fill="#4caf50" stroke="#2e7d32" stroke-width="1"/>
  <path d="M22 38 Q26 35 24 42" fill="#4caf50" stroke="#2e7d32" stroke-width="1"/>
  <!-- Dragon eyes -->
  <circle cx="26" cy="37" r="1" fill="#ff5722"/>
  <!-- Dragon tail -->
  <ellipse cx="12" cy="42" rx="3" ry="2" fill="url(#dragonGrad)"/>
  
  <!-- Dragon 2 - Taking off -->
  <ellipse cx="49" cy="35" rx="8" ry="5" fill="#d32f2f" stroke="#b71c1c" stroke-width="1"/>
  <ellipse cx="58" cy="32" rx="4" ry="3" fill="#d32f2f" stroke="#b71c1c" stroke-width="1"/>
  <!-- Extended wings -->
  <path d="M45 32 Q35 25 30 35 Q40 40 45 35" fill="#f44336" stroke="#d32f2f" stroke-width="1"/>
  <path d="M53 32 Q63 25 68 35 Q58 40 53 35" fill="#f44336" stroke="#d32f2f" stroke-width="1"/>
  <!-- Dragon breathing fire -->
  <ellipse cx="62" cy="32" rx="3" ry="2" fill="url(#fireGrad)" opacity="0.8"/>
  <circle cx="60" cy="31" r="1" fill="#ff5722"/>
  
  <!-- Dragon 3 - Landing -->
  <ellipse cx="81" cy="38" rx="7" ry="4" fill="#9c27b0" stroke="#6a1b9a" stroke-width="1"/>
  <ellipse cx="87" cy="36" rx="3" ry="2" fill="#9c27b0" stroke="#6a1b9a" stroke-width="1"/>
  <!-- Wings spread for landing -->
  <path d="M78 36 Q70 30 72 40" fill="#ba68c8" stroke="#9c27b0" stroke-width="1"/>
  <path d="M84 36 Q92 30 90 40" fill="#ba68c8" stroke="#9c27b0" stroke-width="1"/>
  <!-- Talons extended -->
  <polygon points="79,42 77,44 81,44" fill="#424242"/>
  <polygon points="83,42 81,44 85,44" fill="#424242"/>
  
  <!-- Command tower/bridge -->
  <rect x="85" y="30" width="12" height="20" fill="url(#metalGrad)" stroke="#000" stroke-width="2"/>
  <!-- Tower details -->
  <rect x="87" y="32" width="8" height="3" fill="#616161"/>
  <rect x="87" y="40" width="8" height="3" fill="#616161"/>
  <!-- Command windows -->
  <rect x="88" y="35" width="2" height="2" fill="#81d4fa"/>
  <rect x="91" y="35" width="2" height="2" fill="#81d4fa"/>
  <rect x="94" y="35" width="2" height="2" fill="#81d4fa"/>
  
  <!-- Dragon handler crew -->
  <!-- Handler 1 -->
  <circle cx="20" cy="50" r="2.5" fill="#ffdbcb" stroke="#d4a574" stroke-width="1"/>
  <path d="M17.5 47 Q20 45 22.5 47" fill="#8d6e63"/>
  <circle cx="18.5" cy="49" r="0.8" fill="#1976d2"/>
  <circle cx="21.5" cy="49" r="0.8" fill="#1976d2"/>
  <rect x="17.5" y="52.5" width="5" height="6" fill="#795548" stroke="#5d4037" stroke-width="1"/>
  <!-- Dragon whistle -->
  <circle cx="16" cy="48" r="1" fill="#ffc107"/>
  
  <!-- Handler 2 -->
  <circle cx="65" cy="50" r="2.5" fill="#ffdbcb" stroke="#d4a574" stroke-width="1"/>
  <path d="M62.5 47 Q65 45 67.5 47" fill="#5d4037"/>
  <circle cx="63.5" cy="49" r="0.8" fill="#1976d2"/>
  <circle cx="66.5" cy="49" r="0.8" fill="#1976d2"/>
  <rect x="62.5" y="52.5" width="5" height="6" fill="#795548" stroke="#5d4037" stroke-width="1"/>
  <!-- Dragon prod -->
  <line x1="60" y1="45" x2="60" y2="52" stroke="#8d6e63" stroke-width="2"/>
  <circle cx="60" cy="45" r="1" fill="#ff5722"/>
  
  <!-- Captain -->
  <circle cx="90" cy="25" r="3" fill="#ffdbcb" stroke="#d4a574" stroke-width="1"/>
  <!-- Captain's hat -->
  <path d="M87 20 Q90 17 93 20 Q93 25 90 25 Q87 25 87 20" fill="#1976d2" stroke="#0d47a1" stroke-width="1"/>
  <circle cx="91" cy="22" r="0.8" fill="#ffc107"/>
  <!-- Captain's uniform -->
  <rect x="87" y="28" width="6" height="8" fill="#1976d2" stroke="#0d47a1" stroke-width="1"/>
  <rect x="88" y="30" width="4" height="2" fill="#ffc107"/>
  
  <!-- Dragon feeding areas -->
  <rect x="12" y="52" width="6" height="4" fill="#8d6e63" stroke="#6d4c41" stroke-width="1"/>
  <rect x="72" y="52" width="6" height="4" fill="#8d6e63" stroke="#6d4c41" stroke-width="1"/>
  <!-- Meat/food -->
  <ellipse cx="15" cy="54" rx="2" ry="1.5" fill="#d32f2f"/>
  <ellipse cx="75" cy="54" rx="2" ry="1.5" fill="#d32f2f"/>
  
  <!-- Masts for dragon navigation -->
  <line x1="25" y1="20" x2="25" y2="45" stroke="#6d4c41" stroke-width="3"/>
  <line x1="75" y1="20" x2="75" y2="45" stroke="#6d4c41" stroke-width="3"/>
  
  <!-- Navigation sails -->
  <rect x="15" y="22" width="20" height="15" fill="url(#sailGrad)" stroke="#bdbdbd" stroke-width="1"/>
  <rect x="65" y="22" width="20" height="15" fill="url(#sailGrad)" stroke="#bdbdbd" stroke-width="1"/>
  <!-- Dragon heraldry on sails -->
  <path d="M25 29 Q27 26 29 29 Q27 32 25 29" fill="#d32f2f"/>
  <path d="M75 29 Q77 26 79 29 Q77 32 75 29" fill="#2e7d32"/>
  
  <!-- Dragons in flight around ship -->
  <!-- Flying dragon 1 -->
  <ellipse cx="15" cy="15" rx="5" ry="3" fill="#ff9800" stroke="#f57f17" stroke-width="1"/>
  <ellipse cx="10" cy="13" rx="2" ry="1.5" fill="#ff9800"/>
  <path d="M12 13 Q8 10 6 13 Q10 16 12 15" fill="#ffb74d" stroke="#ff9800" stroke-width="1"/>
  <path d="M18 13 Q22 10 24 13 Q20 16 18 15" fill="#ffb74d" stroke="#ff9800" stroke-width="1"/>
  <!-- Rider on flying dragon -->
  <circle cx="15" cy="12" r="1.5" fill="#ffdbcb"/>
  <rect x="14" y="13.5" width="2" height="3" fill="#795548"/>
  
  <!-- Flying dragon 2 -->
  <ellipse cx="85" cy="10" rx="6" ry="3" fill="#673ab7" stroke="#512da8" stroke-width="1"/>
  <ellipse cx="92" cy="8" rx="3" ry="2" fill="#673ab7"/>
  <path d="M82 8 Q76 5 74 8 Q78 12 82 10" fill="#9575cd" stroke="#673ab7" stroke-width="1"/>
  <path d="M88 8 Q94 5 96 8 Q92 12 88 10" fill="#9575cd" stroke="#673ab7" stroke-width="1"/>
  
  <!-- Dragon landing guides -->
  <rect x="40" y="50" width="20" height="2" fill="#ffeb3b" stroke="#ff8f00" stroke-width="1"/>
  <polygon points="35,51 40,49 40,53" fill="#f44336"/>
  <polygon points="65,51 60,49 60,53" fill="#f44336"/>
  
  <!-- Ship's wake -->
  <ellipse cx="2" cy="70" rx="4" ry="3" fill="#81d4fa" opacity="0.7"/>
  <ellipse cx="0" cy="73" rx="3" ry="2" fill="#81d4fa" opacity="0.5"/>
  <ellipse cx="-2" cy="75" rx="2" ry="1.5" fill="#81d4fa" opacity="0.3"/>
  
  <!-- Dragon droppings/evidence -->
  <circle cx="22" cy="59" r="1" fill="#8d6e63"/>
  <circle cx="55" cy="59" r="1" fill="#8d6e63"/>
  <circle cx="78" cy="59" r="1" fill="#8d6e63"/>
  
  <!-- Protective barriers -->
  <rect x="8" y="55" width="84" height="2" fill="url(#metalGrad)" stroke="#000" stroke-width="1"/>
  <!-- Barrier supports -->
  <rect x="15" y="53" width="2" height="4" fill="#424242"/>
  <rect x="25" y="53" width="2" height="4" fill="#424242"/>
  <rect x="40" y="53" width="2" height="4" fill="#424242"/>
  <rect x="55" y="53" width="2" height="4" fill="#424242"/>
  <rect x="70" y="53" width="2" height="4" fill="#424242"/>
  <rect x="83" y="53" width="2" height="4" fill="#424242"/>
  
  <!-- Wind effects from dragon wings -->
  <path d="M28 30 Q25 28 28 25" stroke="#e3f2fd" stroke-width="1.5" fill="none" opacity="0.6"/>
  <path d="M32 32 Q29 30 32 27" stroke="#e3f2fd" stroke-width="1.5" fill="none" opacity="0.6"/>
  <path d="M65 30 Q68 28 65 25" stroke="#e3f2fd" stroke-width="1.5" fill="none" opacity="0.6"/>
  <path d="M69 32 Q72 30 69 27" stroke="#e3f2fd" stroke-width="1.5" fill="none" opacity="0.6"/>
</svg>