<svg viewBox="0 0 100 100" xmlns="http://www.w3.org/2000/svg">
  <defs>
    <linearGradient id="dragonGrad" x1="0%" y1="0%" x2="0%" y2="100%">
      <stop offset="0%" stop-color="#d32f2f"/>
      <stop offset="50%" stop-color="#c62828"/>
      <stop offset="100%" stop-color="#b71c1c"/>
    </linearGradient>
    <linearGradient id="metalGrad" x1="0%" y1="0%" x2="0%" y2="100%">
      <stop offset="0%" stop-color="#ffc107"/>
      <stop offset="50%" stop-color="#ff8f00"/>
      <stop offset="100%" stop-color="#e65100"/>
    </linearGradient>
    <radialGradient id="fireGrad" cx="50%" cy="50%">
      <stop offset="0%" stop-color="#ffeb3b"/>
      <stop offset="50%" stop-color="#ff5722"/>
      <stop offset="100%" stop-color="#d84315"/>
    </radialGradient>
    <linearGradient id="woodGrad" x1="0%" y1="0%" x2="0%" y2="100%">
      <stop offset="0%" stop-color="#8d6e63"/>
      <stop offset="100%" stop-color="#3e2723"/>
    </linearGradient>
  </defs>
  
  <!-- Dragon Cannon - Artillery Level 4 (Mega) -->
  
  <!-- Massive reinforced base -->
  <rect x="15" y="65" width="70" height="12" fill="url(#woodGrad)" stroke="#212121" stroke-width="3" rx="3"/>
  <!-- Heavy metal reinforcements -->
  <rect x="17" y="67" width="66" height="3" fill="url(#metalGrad)" stroke="#b71c1c" stroke-width="1"/>
  <rect x="17" y="73" width="66" height="3" fill="url(#metalGrad)" stroke="#b71c1c" stroke-width="1"/>
  <!-- Decorative metal studs -->
  <circle cx="25" cy="71" r="1.5" fill="#ffc107"/>
  <circle cx="35" cy="71" r="1.5" fill="#ffc107"/>
  <circle cx="45" cy="71" r="1.5" fill="#ffc107"/>
  <circle cx="55" cy="71" r="1.5" fill="#ffc107"/>
  <circle cx="65" cy="71" r="1.5" fill="#ffc107"/>
  <circle cx="75" cy="71" r="1.5" fill="#ffc107"/>
  
  <!-- Massive wheels with ornate design -->
  <circle cx="25" cy="82" r="10" fill="url(#woodGrad)" stroke="#212121" stroke-width="3"/>
  <circle cx="75" cy="82" r="10" fill="url(#woodGrad)" stroke="#212121" stroke-width="3"/>
  <!-- Ornate metal wheel rims -->
  <circle cx="25" cy="82" r="10" fill="none" stroke="url(#metalGrad)" stroke-width="3"/>
  <circle cx="75" cy="82" r="10" fill="none" stroke="url(#metalGrad)" stroke-width="3"/>
  <!-- Detailed spokes with dragon motifs -->
  <line x1="25" y1="72" x2="25" y2="92" stroke="#ffc107" stroke-width="3"/>
  <line x1="15" y1="82" x2="35" y2="82" stroke="#ffc107" stroke-width="3"/>
  <line x1="19" y1="76" x2="31" y2="88" stroke="#ffc107" stroke-width="2"/>
  <line x1="31" y1="76" x2="19" y2="88" stroke="#ffc107" stroke-width="2"/>
  <line x1="75" y1="72" x2="75" y2="92" stroke="#ffc107" stroke-width="3"/>
  <line x1="65" y1="82" x2="85" y2="82" stroke="#ffc107" stroke-width="3"/>
  <line x1="69" y1="76" x2="81" y2="88" stroke="#ffc107" stroke-width="2"/>
  <line x1="81" y1="76" x2="69" y2="88" stroke="#ffc107" stroke-width="2"/>
  
  <!-- Dragon-shaped cannon barrel -->
  <ellipse cx="50" cy="45" rx="25" ry="8" fill="url(#dragonGrad)" stroke="#b71c1c" stroke-width="2"/>
  <!-- Dragon head at muzzle -->
  <ellipse cx="75" cy="45" rx="8" ry="6" fill="url(#dragonGrad)" stroke="#b71c1c" stroke-width="2"/>
  <!-- Dragon features -->
  <circle cx="78" cy="42" r="2" fill="#ff5722"/>
  <circle cx="78" cy="42" r="1" fill="#ffeb3b"/>
  <circle cx="78" cy="48" r="2" fill="#ff5722"/>
  <circle cx="78" cy="48" r="1" fill="#ffeb3b"/>
  <!-- Dragon nostrils with smoke -->
  <circle cx="82" cy="44" r="1" fill="#212121"/>
  <circle cx="82" cy="46" r="1" fill="#212121"/>
  <circle cx="85" cy="43" r="1.5" fill="#9e9e9e" opacity="0.7"/>
  <circle cx="87" cy="41" r="1" fill="#9e9e9e" opacity="0.5"/>
  
  <!-- Dragon scales on barrel -->
  <ellipse cx="60" cy="42" rx="2" ry="1" fill="#f44336"/>
  <ellipse cx="65" cy="43" rx="2" ry="1" fill="#f44336"/>
  <ellipse cx="70" cy="44" rx="2" ry="1" fill="#f44336"/>
  <ellipse cx="60" cy="47" rx="2" ry="1" fill="#f44336"/>
  <ellipse cx="65" cy="48" rx="2" ry="1" fill="#f44336"/>
  <ellipse cx="70" cy="49" rx="2" ry="1" fill="#f44336"/>
  
  <!-- Ornate cannon mount -->
  <rect x="35" y="50" width="30" height="15" fill="url(#metalGrad)" stroke="#b71c1c" stroke-width="2"/>
  <!-- Decorative dragon reliefs -->
  <polygon points="38,53 42,50 46,53 42,56" fill="#d32f2f"/>
  <polygon points="54,53 58,50 62,53 58,56" fill="#d32f2f"/>
  <!-- Elevation mechanism -->
  <circle cx="50" cy="57" r="3" fill="#ffc107" stroke="#e65100" stroke-width="1"/>
  <circle cx="50" cy="57" r="1.5" fill="#ff8f00"/>
  
  <!-- Magical fire chamber -->
  <rect x="25" y="40" width="15" height="10" fill="url(#dragonGrad)" stroke="#b71c1c" stroke-width="2"/>
  <!-- Fire glow from chamber -->
  <circle cx="32" cy="45" r="4" fill="url(#fireGrad)" opacity="0.8"/>
  <circle cx="32" cy="45" r="6" fill="#ff5722" opacity="0.4"/>
  <!-- Chamber vents -->
  <rect x="27" y="42" width="2" height="6" fill="#ffeb3b"/>
  <rect x="35" y="42" width="2" height="6" fill="#ffeb3b"/>
  
  <!-- Master artillery crew -->
  <!-- Fire mage operator -->
  <circle cx="30" cy="25" r="5" fill="#ffdbcb" stroke="#d4a574" stroke-width="1"/>
  <!-- Mage hood -->
  <path d="M25 18 Q30 12 35 18 Q35 30 30 30 Q25 30 25 18" fill="#9c27b0" stroke="#6a1b9a" stroke-width="1"/>
  <!-- Glowing eyes -->
  <circle cx="28" cy="23" r="1.5" fill="#ff5722"/>
  <circle cx="32" cy="23" r="1.5" fill="#ff5722"/>
  <!-- Mystical beard -->
  <path d="M27 28 Q30 32 33 28 Q31 30 30 30 Q29 30 27 28" fill="#9e9e9e"/>
  <!-- Ornate robes -->
  <rect x="25" y="30" width="10" height="20" fill="#9c27b0" stroke="#6a1b9a" stroke-width="1"/>
  <polygon points="30,35 27,38 30,41 33,38" fill="#ffc107"/>
  
  <!-- Magic staff -->
  <line x1="15" y1="10" x2="15" y2="45" stroke="#8d6e63" stroke-width="3"/>
  <polygon points="15,10 12,13 15,16 18,13" fill="#e1bee7"/>
  <circle cx="15" cy="13" r="4" fill="#9c27b0" opacity="0.7"/>
  <!-- Staff runes -->
  <circle cx="15" cy="20" r="1" fill="#ffc107"/>
  <circle cx="15" cy="25" r="1" fill="#ffc107"/>
  <circle cx="15" cy="30" r="1" fill="#ffc107"/>
  
  <!-- Dragon handler -->
  <circle cx="70" cy="25" r="4" fill="#ffdbcb" stroke="#d4a574" stroke-width="1"/>
  <!-- Dragon scale armor -->
  <path d="M66 20 Q70 17 74 20 Q74 25 70 25 Q66 25 66 20" fill="url(#dragonGrad)" stroke="#b71c1c" stroke-width="1"/>
  <circle cx="68" cy="23" r="1" fill="#1976d2"/>
  <circle cx="72" cy="23" r="1" fill="#1976d2"/>
  <!-- Armored body -->
  <rect x="66" y="29" width="8" height="15" fill="url(#dragonGrad)" stroke="#b71c1c" stroke-width="1"/>
  <!-- Scale pattern -->
  <circle cx="68" cy="32" r="1" fill="#f44336"/>
  <circle cx="72" cy="32" r="1" fill="#f44336"/>
  <circle cx="70" cy="35" r="1" fill="#f44336"/>
  <circle cx="68" cy="38" r="1" fill="#f44336"/>
  <circle cx="72" cy="38" r="1" fill="#f44336"/>
  
  <!-- Control chains -->
  <path d="M30 30 Q40 35 50 40" stroke="#ffc107" stroke-width="2" fill="none"/>
  <path d="M70 29 Q60 35 50 40" stroke="#ffc107" stroke-width="2" fill="none"/>
  
  <!-- Ammunition (dragon eggs) -->
  <ellipse cx="10" cy="70" rx="3" ry="4" fill="url(#dragonGrad)" stroke="#b71c1c" stroke-width="1"/>
  <ellipse cx="15" cy="67" rx="3" ry="4" fill="url(#dragonGrad)" stroke="#b71c1c" stroke-width="1"/>
  <ellipse cx="20" cy="64" rx="3" ry="4" fill="url(#dragonGrad)" stroke="#b71c1c" stroke-width="1"/>
  <!-- Egg patterns -->
  <circle cx="10" cy="69" r="1" fill="#ff5722"/>
  <circle cx="15" cy="66" r="1" fill="#ff5722"/>
  <circle cx="20" cy="63" r="1" fill="#ff5722"/>
  
  <!-- Magical aura around entire weapon -->
  <circle cx="50" cy="50" r="35" fill="none" stroke="#ff5722" stroke-width="1" opacity="0.3"/>
  <circle cx="50" cy="50" r="40" fill="none" stroke="#ff5722" stroke-width="1" opacity="0.2"/>
</svg>