<svg viewBox="0 0 100 100" xmlns="http://www.w3.org/2000/svg">
  <defs>
    <linearGradient id="dragonGrad" x1="0%" y1="0%" x2="0%" y2="100%">
      <stop offset="0%" stop-color="#d32f2f"/>
      <stop offset="50%" stop-color="#c62828"/>
      <stop offset="100%" stop-color="#b71c1c"/>
    </linearGradient>
    <linearGradient id="bellyGrad" x1="0%" y1="0%" x2="0%" y2="100%">
      <stop offset="0%" stop-color="#ffab91"/>
      <stop offset="50%" stop-color="#ff7043"/>
      <stop offset="100%" stop-color="#d84315"/>
    </linearGradient>
    <radialGradient id="fireGrad" cx="50%" cy="50%">
      <stop offset="0%" stop-color="#ffeb3b"/>
      <stop offset="50%" stop-color="#ff5722"/>
      <stop offset="100%" stop-color="#d84315"/>
    </radialGradient>
    <linearGradient id="bombGrad" x1="0%" y1="0%" x2="0%" y2="100%">
      <stop offset="0%" stop-color="#424242"/>
      <stop offset="50%" stop-color="#212121"/>
      <stop offset="100%" stop-color="#000"/>
    </linearGradient>
    <radialGradient id="eyeGrad" cx="50%" cy="30%">
      <stop offset="0%" stop-color="#ff5722"/>
      <stop offset="100%" stop-color="#d84315"/>
    </radialGradient>
  </defs>
  
  <!-- Dragon Bomber - Bomber equivalent -->
  
  <!-- Massive dragon body -->
  <ellipse cx="50" cy="50" rx="25" ry="12" fill="url(#dragonGrad)" stroke="#b71c1c" stroke-width="3"/>
  <!-- Dragon belly -->
  <ellipse cx="50" cy="55" rx="20" ry="8" fill="url(#bellyGrad)" stroke="#d84315" stroke-width="2"/>
  
  <!-- Dragon scales pattern -->
  <ellipse cx="35" cy="45" rx="3" ry="2" fill="#f44336"/>
  <ellipse cx="40" cy="47" rx="3" ry="2" fill="#f44336"/>
  <ellipse cx="45" cy="45" rx="3" ry="2" fill="#f44336"/>
  <ellipse cx="50" cy="47" rx="3" ry="2" fill="#f44336"/>
  <ellipse cx="55" cy="45" rx="3" ry="2" fill="#f44336"/>
  <ellipse cx="60" cy="47" rx="3" ry="2" fill="#f44336"/>
  <ellipse cx="65" cy="45" rx="3" ry="2" fill="#f44336"/>
  <ellipse cx="35" cy="52" rx="3" ry="2" fill="#f44336"/>
  <ellipse cx="40" cy="54" rx="3" ry="2" fill="#f44336"/>
  <ellipse cx="45" cy="52" rx="3" ry="2" fill="#f44336"/>
  <ellipse cx="50" cy="54" rx="3" ry="2" fill="#f44336"/>
  <ellipse cx="55" cy="52" rx="3" ry="2" fill="#f44336"/>
  <ellipse cx="60" cy="54" rx="3" ry="2" fill="#f44336"/>
  <ellipse cx="65" cy="52" rx="3" ry="2" fill="#f44336"/>
  
  <!-- Dragon head -->
  <ellipse cx="80" cy="45" rx="12" ry="8" fill="url(#dragonGrad)" stroke="#b71c1c" stroke-width="2"/>
  <!-- Head details -->
  <path d="M75 40 Q80 35 85 40" fill="#f44336"/>
  <path d="M75 50 Q80 55 85 50" fill="#f44336"/>
  
  <!-- Dragon snout -->
  <ellipse cx="92" cy="45" rx="5" ry="4" fill="url(#dragonGrad)" stroke="#b71c1c" stroke-width="2"/>
  <!-- Nostrils with smoke -->
  <circle cx="95" cy="43" r="1" fill="#212121"/>
  <circle cx="95" cy="47" r="1" fill="#212121"/>
  <circle cx="98" cy="41" r="1.5" fill="#9e9e9e" opacity="0.7"/>
  <circle cx="99" cy="38" r="1" fill="#9e9e9e" opacity="0.5"/>
  <circle cx="98" cy="49" r="1.5" fill="#9e9e9e" opacity="0.7"/>
  <circle cx="99" cy="52" r="1" fill="#9e9e9e" opacity="0.5"/>
  
  <!-- Fearsome dragon eyes -->
  <circle cx="82" cy="42" r="3" fill="url(#eyeGrad)" stroke="#b71c1c" stroke-width="1"/>
  <circle cx="82" cy="42" r="2" fill="#ffeb3b"/>
  <circle cx="82" cy="42" r="1" fill="#212121"/>
  <circle cx="82" cy="48" r="3" fill="url(#eyeGrad)" stroke="#b71c1c" stroke-width="1"/>
  <circle cx="82" cy="48" r="2" fill="#ffeb3b"/>
  <circle cx="82" cy="48" r="1" fill="#212121"/>
  
  <!-- Dragon teeth -->
  <polygon points="90,41 92,43 88,43" fill="#f5f5f5"/>
  <polygon points="92,42 94,44 90,44" fill="#f5f5f5"/>
  <polygon points="90,47 92,49 88,49" fill="#f5f5f5"/>
  <polygon points="92,48 94,50 90,50" fill="#f5f5f5"/>
  
  <!-- Massive wings spread -->
  <path d="M30 35 Q10 15 5 25 Q8 45 25 55 Q30 50 35 45" fill="url(#dragonGrad)" stroke="#b71c1c" stroke-width="3"/>
  <path d="M70 35 Q90 15 95 25 Q92 45 75 55 Q70 50 65 45" fill="url(#dragonGrad)" stroke="#b71c1c" stroke-width="3"/>
  
  <!-- Wing membrane details -->
  <path d="M25 40 Q15 25 8 30" stroke="#d84315" stroke-width="2" fill="none"/>
  <path d="M28 45 Q18 30 11 35" stroke="#d84315" stroke-width="2" fill="none"/>
  <path d="M30 50 Q20 35 13 40" stroke="#d84315" stroke-width="2" fill="none"/>
  <path d="M75 40 Q85 25 92 30" stroke="#d84315" stroke-width="2" fill="none"/>
  <path d="M72 45 Q82 30 89 35" stroke="#d84315" stroke-width="2" fill="none"/>
  <path d="M70 50 Q80 35 87 40" stroke="#d84315" stroke-width="2" fill="none"/>
  
  <!-- Wing claws -->
  <polygon points="5,25 2,23 8,20" fill="#212121"/>
  <polygon points="95,25 98,23 92,20" fill="#212121"/>
  
  <!-- Dragon neck -->
  <ellipse cx="65" cy="47" rx="8" ry="5" fill="url(#dragonGrad)" stroke="#b71c1c" stroke-width="2"/>
  <path d="M60 45 Q65 42 70 45" stroke="#f44336" stroke-width="1" fill="none"/>
  <path d="M60 49 Q65 52 70 49" stroke="#f44336" stroke-width="1" fill="none"/>
  
  <!-- Dragon tail -->
  <ellipse cx="25" cy="52" rx="8" ry="5" fill="url(#dragonGrad)" stroke="#b71c1c" stroke-width="2"/>
  <ellipse cx="12" cy="55" rx="6" ry="4" fill="url(#dragonGrad)" stroke="#b71c1c" stroke-width="2"/>
  <!-- Tail spikes -->
  <polygon points="15,52 12,50 18,47" fill="#212121"/>
  <polygon points="10,54 7,52 13,49" fill="#212121"/>
  <polygon points="8,57 5,55 11,52" fill="#212121"/>
  
  <!-- Dragon legs with bomb attachments -->
  <ellipse cx="40" cy="65" rx="4" ry="8" fill="url(#dragonGrad)" stroke="#b71c1c" stroke-width="2"/>
  <ellipse cx="60" cy="65" rx="4" ry="8" fill="url(#dragonGrad)" stroke="#b71c1c" stroke-width="2"/>
  
  <!-- Powerful talons -->
  <polygon points="38,73 35,75 41,75" fill="#212121"/>
  <polygon points="40,74 37,76 43,76" fill="#212121"/>
  <polygon points="42,73 39,75 45,75" fill="#212121"/>
  <polygon points="58,73 55,75 61,75" fill="#212121"/>
  <polygon points="60,74 57,76 63,76" fill="#212121"/>
  <polygon points="62,73 59,75 65,75" fill="#212121"/>
  
  <!-- Bomb payload -->
  <ellipse cx="35" cy="70" rx="3" ry="5" fill="url(#bombGrad)" stroke="#000" stroke-width="2"/>
  <ellipse cx="45" cy="72" rx="3" ry="5" fill="url(#bombGrad)" stroke="#000" stroke-width="2"/>
  <ellipse cx="55" cy="72" rx="3" ry="5" fill="url(#bombGrad)" stroke="#000" stroke-width="2"/>
  <ellipse cx="65" cy="70" rx="3" ry="5" fill="url(#bombGrad)" stroke="#000" stroke-width="2"/>
  
  <!-- Bomb fuses -->
  <line x1="35" y1="65" x2="35" y2="62" stroke="#ff5722" stroke-width="2"/>
  <circle cx="35" cy="62" r="1" fill="#ffeb3b"/>
  <line x1="45" y1="67" x2="45" y2="64" stroke="#ff5722" stroke-width="2"/>
  <circle cx="45" cy="64" r="1" fill="#ffeb3b"/>
  <line x1="55" y1="67" x2="55" y2="64" stroke="#ff5722" stroke-width="2"/>
  <circle cx="55" cy="64" r="1" fill="#ffeb3b"/>
  <line x1="65" y1="65" x2="65" y2="62" stroke="#ff5722" stroke-width="2"/>
  <circle cx="65" cy="62" r="1" fill="#ffeb3b"/>
  
  <!-- Bomb release mechanism -->
  <rect x="48" y="58" width="4" height="3" fill="#795548" stroke="#5d4037" stroke-width="1"/>
  <circle cx="50" cy="59.5" r="1" fill="#424242"/>
  
  <!-- Dragon rider (bomber crew) -->
  <circle cx="50" cy="35" r="4" fill="#ffdbcb" stroke="#d4a574" stroke-width="1"/>
  <!-- Bomber helmet -->
  <path d="M46 28 Q50 25 54 28 Q54 35 50 35 Q46 35 46 28" fill="#795548" stroke="#5d4037" stroke-width="1"/>
  <!-- Goggles -->
  <circle cx="48" cy="33" r="2" fill="#81d4fa" stroke="#0277bd" stroke-width="1"/>
  <circle cx="52" cy="33" r="2" fill="#81d4fa" stroke="#0277bd" stroke-width="1"/>
  <rect x="46" y="32" width="8" height="2" fill="#8d6e63"/>
  
  <!-- Bomber jacket -->
  <rect x="46" y="39" width="8" height="12" fill="#795548" stroke="#5d4037" stroke-width="1"/>
  <rect x="47" y="41" width="6" height="2" fill="#8d6e63"/>
  <circle cx="48" cy="45" r="1" fill="#424242"/>
  <circle cx="52" cy="45" r="1" fill="#424242"/>
  
  <!-- Targeting scope -->
  <rect x="42" y="30" width="2" height="8" fill="#424242" stroke="#000" stroke-width="1"/>
  <circle cx="43" cy="28" r="2" fill="#81d4fa" stroke="#0277bd" stroke-width="1"/>
  <circle cx="43" cy="28" r="1" fill="#1976d2"/>
  
  <!-- Bomb sight -->
  <rect x="48" y="52" width="4" height="2" fill="#9e9e9e" stroke="#616161" stroke-width="1"/>
  <line x1="49" y1="54" x2="51" y2="84" stroke="#f44336" stroke-width="1" opacity="0.7"/>
  <line x1="51" y1="54" x2="49" y2="84" stroke="#f44336" stroke-width="1" opacity="0.7"/>
  
  <!-- Dragon harness -->
  <path d="M46 39 Q50 45 54 39" stroke="#8d6e63" stroke-width="3" fill="none"/>
  <path d="M50 45 Q55 50 60 45" stroke="#8d6e63" stroke-width="3" fill="none"/>
  <path d="M50 45 Q45 50 40 45" stroke="#8d6e63" stroke-width="3" fill="none"/>
  
  <!-- Dragon breathing fire -->
  <ellipse cx="100" cy="45" rx="8" ry="6" fill="url(#fireGrad)" opacity="0.8"/>
  <ellipse cx="105" cy="45" rx="6" ry="4" fill="#ffeb3b" opacity="0.6"/>
  <ellipse cx="108" cy="45" rx="4" ry="3" fill="#ff5722" opacity="0.4"/>
  
  <!-- Falling bombs -->
  <ellipse cx="25" cy="80" rx="2" ry="3" fill="url(#bombGrad)" stroke="#000" stroke-width="1"/>
  <line x1="25" y1="77" x2="25" y2="75" stroke="#ff5722" stroke-width="1"/>
  <ellipse cx="40" cy="85" rx="2" ry="3" fill="url(#bombGrad)" stroke="#000" stroke-width="1"/>
  <line x1="40" y1="82" x2="40" y2="80" stroke="#ff5722" stroke-width="1"/>
  <ellipse cx="60" cy="85" rx="2" ry="3" fill="url(#bombGrad)" stroke="#000" stroke-width="1"/>
  <line x1="60" y1="82" x2="60" y2="80" stroke="#ff5722" stroke-width="1"/>
  <ellipse cx="75" cy="80" rx="2" ry="3" fill="url(#bombGrad)" stroke="#000" stroke-width="1"/>
  <line x1="75" y1="77" x2="75" y2="75" stroke="#ff5722" stroke-width="1"/>
  
  <!-- Bomb trails -->
  <circle cx="25" cy="75" r="0.8" fill="#ff5722" opacity="0.8"/>
  <circle cx="25" cy="72" r="0.6" fill="#ff5722" opacity="0.6"/>
  <circle cx="40" cy="78" r="0.8" fill="#ff5722" opacity="0.8"/>
  <circle cx="40" cy="75" r="0.6" fill="#ff5722" opacity="0.6"/>
  <circle cx="60" cy="78" r="0.8" fill="#ff5722" opacity="0.8"/>
  <circle cx="60" cy="75" r="0.6" fill="#ff5722" opacity="0.6"/>
  <circle cx="75" cy="75" r="0.8" fill="#ff5722" opacity="0.8"/>
  <circle cx="75" cy="72" r="0.6" fill="#ff5722" opacity="0.6"/>
  
  <!-- Ground explosions (distant) -->
  <circle cx="20" cy="95" r="4" fill="#ff5722" opacity="0.8"/>
  <circle cx="20" cy="95" r="6" fill="#ffeb3b" opacity="0.6"/>
  <circle cx="80" cy="95" r="4" fill="#ff5722" opacity="0.8"/>
  <circle cx="80" cy="95" r="6" fill="#ffeb3b" opacity="0.6"/>
  
  <!-- Flight wind effects -->
  <path d="M1 40 Q-2 38 1 35" stroke="#e3f2fd" stroke-width="2" fill="none" opacity="0.7"/>
  <path d="M3 45 Q0 43 3 40" stroke="#e3f2fd" stroke-width="2" fill="none" opacity="0.7"/>
  <path d="M5 50 Q2 48 5 45" stroke="#e3f2fd" stroke-width="2" fill="none" opacity="0.7"/>
  
  <!-- Dragon roar effects -->
  <path d="M100 40 Q105 35 110 40" stroke="#ff5722" stroke-width="2" fill="none" opacity="0.6"/>
  <path d="M100 50 Q105 55 110 50" stroke="#ff5722" stroke-width="2" fill="none" opacity="0.6"/>
</svg>