<svg viewBox="0 0 100 100" xmlns="http://www.w3.org/2000/svg">
  <defs>
    <radialGradient id="mineGrad" cx="50%" cy="30%">
      <stop offset="0%" stop-color="#616161"/>
      <stop offset="50%" stop-color="#424242"/>
      <stop offset="100%" stop-color="#212121"/>
    </radialGradient>
    <radialGradient id="waterGrad" cx="50%" cy="50%">
      <stop offset="0%" stop-color="#4fc3f7"/>
      <stop offset="100%" stop-color="#1976d2"/>
    </radialGradient>
    <linearGradient id="runeGrad" x1="0%" y1="0%" x2="0%" y2="100%">
      <stop offset="0%" stop-color="#ff5722"/>
      <stop offset="50%" stop-color="#d84315"/>
      <stop offset="100%" stop-color="#bf360c"/>
    </linearGradient>
    <radialGradient id="dangerGrad" cx="50%" cy="50%">
      <stop offset="0%" stop-color="#ffeb3b"/>
      <stop offset="50%" stop-color="#ff9800"/>
      <stop offset="100%" stop-color="#f44336"/>
    </radialGradient>
  </defs>
  
  <!-- Floating Explosive - Sea Mine equivalent -->
  
  <!-- Main spherical mine body -->
  <circle cx="50" cy="50" r="18" fill="url(#mineGrad)" stroke="#000" stroke-width="3"/>
  
  <!-- Metal seams -->
  <path d="M32 40 Q50 35 68 40" stroke="#757575" stroke-width="2" fill="none"/>
  <path d="M32 60 Q50 65 68 60" stroke="#757575" stroke-width="2" fill="none"/>
  <path d="M40 32 Q45 50 40 68" stroke="#757575" stroke-width="2" fill="none"/>
  <path d="M60 32 Q55 50 60 68" stroke="#757575" stroke-width="2" fill="none"/>
  
  <!-- Pressure spikes -->
  <polygon points="50,32 48,28 52,28" fill="#757575" stroke="#424242" stroke-width="1"/>
  <polygon points="68,50 72,48 72,52" fill="#757575" stroke="#424242" stroke-width="1"/>
  <polygon points="50,68 48,72 52,72" fill="#757575" stroke="#424242" stroke-width="1"/>
  <polygon points="32,50 28,48 28,52" fill="#757575" stroke="#424242" stroke-width="1"/>
  <polygon points="63,37 67,35 65,39" fill="#757575" stroke="#424242" stroke-width="1"/>
  <polygon points="63,63 67,65 65,61" fill="#757575" stroke="#424242" stroke-width="1"/>
  <polygon points="37,63 35,67 39,65" fill="#757575" stroke="#424242" stroke-width="1"/>
  <polygon points="37,37 35,35 39,35" fill="#757575" stroke="#424242" stroke-width="1"/>
  
  <!-- Magical runes on surface -->
  <polygon points="50,45 47,48 50,51 53,48" fill="url(#runeGrad)" opacity="0.8"/>
  <circle cx="50" cy="48" r="2" fill="#ff5722" opacity="0.7"/>
  <polygon points="42,42 40,44 42,46 44,44" fill="url(#runeGrad)" opacity="0.6"/>
  <polygon points="58,54 56,56 58,58 60,56" fill="url(#runeGrad)" opacity="0.6"/>
  <polygon points="42,56 40,58 42,60 44,58" fill="url(#runeGrad)" opacity="0.6"/>
  <polygon points="58,42 56,44 58,46 60,44" fill="url(#runeGrad)" opacity="0.6"/>
  
  <!-- Warning symbols -->
  <polygon points="45,38 48,35 51,38 48,41" fill="url(#dangerGrad)" stroke="#d84315" stroke-width="1"/>
  <polygon points="55,58 58,55 61,58 58,61" fill="url(#dangerGrad)" stroke="#d84315" stroke-width="1"/>
  <polygon points="39,52 42,49 45,52 42,55" fill="url(#dangerGrad)" stroke="#d84315" stroke-width="1"/>
  <polygon points="61,46 64,43 67,46 64,49" fill="url(#dangerGrad)" stroke="#d84315" stroke-width="1"/>
  
  <!-- Skull warning -->
  <ellipse cx="50" cy="40" rx="3" ry="2.5" fill="#f5f5f5" stroke="#e0e0e0" stroke-width="1"/>
  <circle cx="48" cy="39" r="0.8" fill="#212121"/>
  <circle cx="52" cy="39" r="0.8" fill="#212121"/>
  <path d="M48 41 Q50 42 52 41" stroke="#212121" stroke-width="1" fill="none"/>
  
  <!-- Chain anchor -->
  <line x1="50" y1="68" x2="50" y2="85" stroke="#424242" stroke-width="4"/>
  <circle cx="50" cy="72" r="1.5" fill="#424242"/>
  <circle cx="50" cy="76" r="1.5" fill="#424242"/>
  <circle cx="50" cy="80" r="1.5" fill="#424242"/>
  <circle cx="50" cy="84" r="1.5" fill="#424242"/>
  
  <!-- Anchor weight -->
  <rect x="45" y="85" width="10" height="6" fill="url(#mineGrad)" stroke="#000" stroke-width="2"/>
  <circle cx="47" cy="88" r="1" fill="#757575"/>
  <circle cx="53" cy="88" r="1" fill="#757575"/>
  
  <!-- Flotation chamber -->
  <ellipse cx="50" cy="25" rx="8" ry="4" fill="#795548" stroke="#5d4037" stroke-width="2"/>
  <!-- Air valve -->
  <rect x="48" y="21" width="4" height="3" fill="#424242" stroke="#000" stroke-width="1"/>
  <circle cx="50" cy="22.5" r="1" fill="#616161"/>
  
  <!-- Contact triggers -->
  <circle cx="38" cy="38" r="2" fill="#f44336" stroke="#d32f2f" stroke-width="1"/>
  <circle cx="62" cy="38" r="2" fill="#f44336" stroke="#d32f2f" stroke-width="1"/>
  <circle cx="38" cy="62" r="2" fill="#f44336" stroke="#d32f2f" stroke-width="1"/>
  <circle cx="62" cy="62" r="2" fill="#f44336" stroke="#d32f2f" stroke-width="1"/>
  <!-- Trigger springs -->
  <line x1="38" y1="38" x2="35" y2="35" stroke="#9e9e9e" stroke-width="2"/>
  <line x1="62" y1="38" x2="65" y2="35" stroke="#9e9e9e" stroke-width="2"/>
  <line x1="38" y1="62" x2="35" y2="65" stroke="#9e9e9e" stroke-width="2"/>
  <line x1="62" y1="62" x2="65" y2="65" stroke="#9e9e9e" stroke-width="2"/>
  
  <!-- Magical activation crystal -->
  <polygon points="50,55 48,57 50,59 52,57" fill="#e1bee7" stroke="#9c27b0" stroke-width="1"/>
  <circle cx="50" cy="57" r="1.5" fill="#ba68c8" opacity="0.8"/>
  
  <!-- Water displacement -->
  <ellipse cx="50" cy="75" rx="22" ry="6" fill="url(#waterGrad)" opacity="0.6"/>
  <ellipse cx="50" cy="77" rx="18" ry="4" fill="#4fc3f7" opacity="0.5"/>
  <ellipse cx="50" cy="79" rx="14" ry="3" fill="#81d4fa" opacity="0.4"/>
  
  <!-- Water ripples -->
  <circle cx="50" cy="50" r="25" fill="none" stroke="#4fc3f7" stroke-width="1" opacity="0.4"/>
  <circle cx="50" cy="50" r="30" fill="none" stroke="#81d4fa" stroke-width="1" opacity="0.3"/>
  <circle cx="50" cy="50" r="35" fill="none" stroke="#b3e5fc" stroke-width="1" opacity="0.2"/>
  
  <!-- Magical energy field -->
  <circle cx="50" cy="50" r="20" fill="none" stroke="#ff5722" stroke-width="1" opacity="0.5"/>
  <circle cx="50" cy="50" r="22" fill="none" stroke="#ff9800" stroke-width="1" opacity="0.4"/>
  <circle cx="50" cy="50" r="24" fill="none" stroke="#ffeb3b" stroke-width="1" opacity="0.3"/>
  
  <!-- Proximity sensors -->
  <circle cx="45" cy="35" r="1.5" fill="#2196f3"/>
  <circle cx="55" cy="35" r="1.5" fill="#2196f3"/>
  <circle cx="35" cy="45" r="1.5" fill="#2196f3"/>
  <circle cx="65" cy="45" r="1.5" fill="#2196f3"/>
  <circle cx="35" cy="55" r="1.5" fill="#2196f3"/>
  <circle cx="65" cy="55" r="1.5" fill="#2196f3"/>
  <circle cx="45" cy="65" r="1.5" fill="#2196f3"/>
  <circle cx="55" cy="65" r="1.5" fill="#2196f3"/>
  
  <!-- Sensor beams -->
  <line x1="45" y1="35" x2="40" y2="30" stroke="#2196f3" stroke-width="1" opacity="0.6"/>
  <line x1="55" y1="35" x2="60" y2="30" stroke="#2196f3" stroke-width="1" opacity="0.6"/>
  <line x1="35" y1="45" x2="30" y2="40" stroke="#2196f3" stroke-width="1" opacity="0.6"/>
  <line x1="65" y1="45" x2="70" y2="40" stroke="#2196f3" stroke-width="1" opacity="0.6"/>
  
  <!-- Barnacles and sea growth -->
  <circle cx="40" cy="45" r="1" fill="#4caf50" opacity="0.7"/>
  <circle cx="58" cy="48" r="1.2" fill="#66bb6a" opacity="0.7"/>
  <circle cx="45" cy="58" r="0.8" fill="#4caf50" opacity="0.7"/>
  <circle cx="55" cy="40" r="1" fill="#81c784" opacity="0.7"/>
  
  <!-- Seaweed attached -->
  <path d="M35 65 Q32 70 35 75" stroke="#4caf50" stroke-width="2" fill="none" opacity="0.6"/>
  <path d="M65 65 Q68 70 65 75" stroke="#4caf50" stroke-width="2" fill="none" opacity="0.6"/>
  <path d="M33 68 Q30 73 33 78" stroke="#66bb6a" stroke-width="1.5" fill="none" opacity="0.5"/>
  <path d="M67 68 Q70 73 67 78" stroke="#66bb6a" stroke-width="1.5" fill="none" opacity="0.5"/>
  
  <!-- Construction markings -->
  <rect x="46" y="62" width="8" height="2" fill="#f5f5f5" stroke="#e0e0e0" stroke-width="1"/>
  <rect x="47" y="62.5" width="2" height="1" fill="#212121"/>
  <rect x="50" y="62.5" width="2" height="1" fill="#212121"/>
  <rect x="53" y="62.5" width="2" height="1" fill="#212121"/>
  
  <!-- Dangerous energy crackling -->
  <path d="M30 40 Q28 38 32 35" stroke="#ff5722" stroke-width="1" fill="none" opacity="0.7"/>
  <path d="M70 60 Q72 58 68 55" stroke="#ff5722" stroke-width="1" fill="none" opacity="0.7"/>
  <path d="M35 70 Q33 72 37 75" stroke="#ff9800" stroke-width="1" fill="none" opacity="0.6"/>
  <path d="M65 30 Q67 28 63 25" stroke="#ff9800" stroke-width="1" fill="none" opacity="0.6"/>
  
  <!-- Warning buoy marker -->
  <rect x="20" y="20" width="3" height="8" fill="#ff5722" stroke="#d84315" stroke-width="1"/>
  <polygon points="21.5,20 19,18 24,18" fill="#ffeb3b"/>
  <text x="21.5" y="24" text-anchor="middle" font-size="4" fill="#f5f5f5">!</text>
  
  <!-- Depth marker -->
  <line x1="85" y1="45" x2="90" y2="45" stroke="#9e9e9e" stroke-width="1"/>
  <line x1="85" y1="50" x2="88" y2="50" stroke="#9e9e9e" stroke-width="1"/>
  <line x1="85" y1="55" x2="90" y2="55" stroke="#9e9e9e" stroke-width="1"/>
</svg>