<svg viewBox="0 0 100 100" xmlns="http://www.w3.org/2000/svg">
  <defs>
    <linearGradient id="carpetGrad" x1="0%" y1="0%" x2="0%" y2="100%">
      <stop offset="0%" stop-color="#7b1fa2"/>
      <stop offset="50%" stop-color="#9c27b0"/>
      <stop offset="100%" stop-color="#4a148c"/>
    </linearGradient>
    <linearGradient id="tassleGrad" x1="0%" y1="0%" x2="0%" y2="100%">
      <stop offset="0%" stop-color="#ffc107"/>
      <stop offset="100%" stop-color="#ff8f00"/>
    </linearGradient>
    <radialGradient id="magicGrad" cx="50%" cy="50%">
      <stop offset="0%" stop-color="#e1bee7"/>
      <stop offset="100%" stop-color="#9c27b0"/>
    </radialGradient>
  </defs>
  
  <!-- Flying Carpet - Helicopter equivalent -->
  
  <!-- Main carpet with rich pattern -->
  <ellipse cx="50" cy="50" rx="30" ry="15" fill="url(#carpetGrad)" stroke="#4a148c" stroke-width="2"/>
  
  <!-- Ornate carpet patterns -->
  <!-- Central medallion -->
  <circle cx="50" cy="50" r="8" fill="#ffc107" stroke="#ff8f00" stroke-width="1"/>
  <circle cx="50" cy="50" r="5" fill="#e1bee7"/>
  <polygon points="50,45 53,50 50,55 47,50" fill="#9c27b0"/>
  
  <!-- Corner patterns -->
  <circle cx="30" cy="45" r="4" fill="#ffc107"/>
  <polygon points="30,41 32,45 30,49 28,45" fill="#4a148c"/>
  <circle cx="70" cy="45" r="4" fill="#ffc107"/>
  <polygon points="70,41 72,45 70,49 68,45" fill="#4a148c"/>
  <circle cx="30" cy="55" r="4" fill="#ffc107"/>
  <polygon points="30,51 32,55 30,59 28,55" fill="#4a148c"/>
  <circle cx="70" cy="55" r="4" fill="#ffc107"/>
  <polygon points="70,51 72,55 70,59 68,55" fill="#4a148c"/>
  
  <!-- Border design -->
  <ellipse cx="50" cy="50" rx="28" ry="13" fill="none" stroke="#ffc107" stroke-width="2"/>
  <ellipse cx="50" cy="50" rx="25" ry="11" fill="none" stroke="#ff8f00" stroke-width="1"/>
  
  <!-- Geometric patterns -->
  <polygon points="40,45 45,40 50,45 45,50" fill="#e1bee7" opacity="0.7"/>
  <polygon points="55,45 60,40 65,45 60,50" fill="#e1bee7" opacity="0.7"/>
  <polygon points="40,55 45,50 50,55 45,60" fill="#e1bee7" opacity="0.7"/>
  <polygon points="55,55 60,50 65,55 60,60" fill="#e1bee7" opacity="0.7"/>
  
  <!-- Tassels with detailed texture -->
  <ellipse cx="22" cy="52" rx="2" ry="6" fill="url(#tassleGrad)" stroke="#e65100" stroke-width="1"/>
  <ellipse cx="78" cy="52" rx="2" ry="6" fill="url(#tassleGrad)" stroke="#e65100" stroke-width="1"/>
  <ellipse cx="22" cy="48" rx="2" ry="6" fill="url(#tassleGrad)" stroke="#e65100" stroke-width="1"/>
  <ellipse cx="78" cy="48" rx="2" ry="6" fill="url(#tassleGrad)" stroke="#e65100" stroke-width="1"/>
  <!-- Tassel threads -->
  <line x1="20" y1="55" x2="20" y2="62" stroke="#ff8f00" stroke-width="1"/>
  <line x1="22" y1="55" x2="22" y2="62" stroke="#ff8f00" stroke-width="1"/>
  <line x1="24" y1="55" x2="24" y2="62" stroke="#ff8f00" stroke-width="1"/>
  <line x1="76" y1="55" x2="76" y2="62" stroke="#ff8f00" stroke-width="1"/>
  <line x1="78" y1="55" x2="78" y2="62" stroke="#ff8f00" stroke-width="1"/>
  <line x1="80" y1="55" x2="80" y2="62" stroke="#ff8f00" stroke-width="1"/>
  
  <!-- Pilot with detailed Arabian costume -->
  <circle cx="50" cy="35" r="5" fill="#d7a86e" stroke="#c49958" stroke-width="1"/>
  <!-- Turban with jewel -->
  <path d="M45 28 Q50 22 55 28 Q55 35 50 35 Q45 35 45 28" fill="#ffc107" stroke="#ff8f00" stroke-width="1"/>
  <circle cx="50" cy="30" r="2" fill="#e1bee7"/>
  <!-- Eyes -->
  <circle cx="48" cy="33" r="1.5" fill="#1976d2"/>
  <circle cx="52" cy="33" r="1.5" fill="#1976d2"/>
  <!-- Mustache -->
  <path d="M47 36 Q50 38 53 36" stroke="#8d4a47" stroke-width="2" fill="none"/>
  
  <!-- Ornate vest -->
  <rect x="46" y="40" width="8" height="10" fill="#9c27b0" stroke="#6a1b9a" stroke-width="1"/>
  <circle cx="48" cy="43" r="1" fill="#ffc107"/>
  <circle cx="52" cy="43" r="1" fill="#ffc107"/>
  <circle cx="50" cy="47" r="1" fill="#ffc107"/>
  
  <!-- Flowing pants -->
  <ellipse cx="47" cy="55" rx="3" ry="8" fill="#e1bee7" stroke="#ba68c8" stroke-width="1"/>
  <ellipse cx="53" cy="55" rx="3" ry="8" fill="#e1bee7" stroke="#ba68c8" stroke-width="1"/>
  
  <!-- Curled shoes -->
  <path d="M44 63 Q42 65 45 67 Q48 65 47 63" fill="#8d6e63" stroke="#5d4037" stroke-width="1"/>
  <path d="M53 63 Q55 65 52 67 Q49 65 50 63" fill="#8d6e63" stroke="#5d4037" stroke-width="1"/>
  
  <!-- Control artifacts -->
  <!-- Magic lamp -->
  <ellipse cx="40" cy="45" rx="3" ry="4" fill="#ffc107" stroke="#ff8f00" stroke-width="1"/>
  <rect x="38" y="43" width="4" height="2" fill="#ff8f00"/>
  <circle cx="40" cy="41" r="1" fill="#e65100"/>
  <!-- Smoke from lamp -->
  <circle cx="38" cy="38" r="1.5" fill="#9e9e9e" opacity="0.6"/>
  <circle cx="36" cy="35" r="1" fill="#9e9e9e" opacity="0.4"/>
  
  <!-- Magic scroll -->
  <rect x="58" y="43" width="6" height="8" fill="#f5f5f5" stroke="#e0e0e0" stroke-width="1"/>
  <line x1="59" y1="45" x2="63" y2="45" stroke="#9c27b0" stroke-width="1"/>
  <line x1="59" y1="47" x2="63" y2="47" stroke="#9c27b0" stroke-width="1"/>
  <line x1="59" y1="49" x2="63" y2="49" stroke="#9c27b0" stroke-width="1"/>
  
  <!-- Magical energy trails -->
  <circle cx="20" cy="40" r="2" fill="url(#magicGrad)" opacity="0.7"/>
  <circle cx="15" cy="35" r="1.5" fill="url(#magicGrad)" opacity="0.5"/>
  <circle cx="12" cy="30" r="1" fill="url(#magicGrad)" opacity="0.3"/>
  <circle cx="80" cy="40" r="2" fill="url(#magicGrad)" opacity="0.7"/>
  <circle cx="85" cy="35" r="1.5" fill="url(#magicGrad)" opacity="0.5"/>
  <circle cx="88" cy="30" r="1" fill="url(#magicGrad)" opacity="0.3"/>
  
  <!-- Wind currents -->
  <path d="M10 45 Q5 43 8 40" stroke="#e3f2fd" stroke-width="2" fill="none" opacity="0.6"/>
  <path d="M12 50 Q7 48 10 45" stroke="#e3f2fd" stroke-width="2" fill="none" opacity="0.6"/>
  <path d="M14 55 Q9 53 12 50" stroke="#e3f2fd" stroke-width="2" fill="none" opacity="0.6"/>
  <path d="M90 45 Q95 43 92 40" stroke="#e3f2fd" stroke-width="2" fill="none" opacity="0.6"/>
  <path d="M88 50 Q93 48 90 45" stroke="#e3f2fd" stroke-width="2" fill="none" opacity="0.6"/>
  <path d="M86 55 Q91 53 88 50" stroke="#e3f2fd" stroke-width="2" fill="none" opacity="0.6"/>
  
  <!-- Magical lifting aura beneath carpet -->
  <ellipse cx="50" cy="70" rx="25" ry="8" fill="url(#magicGrad)" opacity="0.4"/>
  <ellipse cx="50" cy="72" rx="20" ry="6" fill="url(#magicGrad)" opacity="0.3"/>
  <ellipse cx="50" cy="74" rx="15" ry="4" fill="url(#magicGrad)" opacity="0.2"/>
  
  <!-- Sparkles around carpet -->
  <circle cx="25" cy="30" r="1" fill="#ffc107"/>
  <circle cx="75" cy="35" r="1" fill="#ffc107"/>
  <circle cx="30" cy="70" r="1" fill="#e1bee7"/>
  <circle cx="70" cy="65" r="1" fill="#e1bee7"/>
  <circle cx="35" cy="25" r="1" fill="#9c27b0"/>
  <circle cx="65" cy="25" r="1" fill="#9c27b0"/>
</svg>