<svg viewBox="0 0 100 100" xmlns="http://www.w3.org/2000/svg">
  <defs>
    <linearGradient id="hullGrad" x1="0%" y1="0%" x2="0%" y2="100%">
      <stop offset="0%" stop-color="#6d4c41"/>
      <stop offset="50%" stop-color="#5d4037"/>
      <stop offset="100%" stop-color="#3e2723"/>
    </linearGradient>
    <linearGradient id="stackGrad" x1="0%" y1="0%" x2="0%" y2="100%">
      <stop offset="0%" stop-color="#424242"/>
      <stop offset="50%" stop-color="#212121"/>
      <stop offset="100%" stop-color="#000"/>
    </linearGradient>
    <radialGradient id="waterGrad" cx="50%" cy="50%">
      <stop offset="0%" stop-color="#4fc3f7"/>
      <stop offset="100%" stop-color="#1976d2"/>
    </radialGradient>
    <radialGradient id="steamGrad" cx="50%" cy="50%">
      <stop offset="0%" stop-color="#f5f5f5"/>
      <stop offset="100%" stop-color="#e0e0e0"/>
    </radialGradient>
  </defs>
  
  <!-- Harbor Tugger - Tugboat equivalent -->
  
  <!-- Compact sturdy hull -->
  <path d="M20 55 Q50 50 80 55 Q80 65 75 70 Q50 75 25 70 Q20 65 20 55" fill="url(#hullGrad)" stroke="#212121" stroke-width="2"/>
  <!-- Hull reinforcement -->
  <path d="M22 57 Q50 52 78 57" stroke="#3e2723" stroke-width="2" fill="none"/>
  <path d="M22 62 Q50 57 78 62" stroke="#3e2723" stroke-width="2" fill="none"/>
  <path d="M22 67 Q50 62 78 67" stroke="#3e2723" stroke-width="2" fill="none"/>
  
  <!-- Armored bow for pushing -->
  <path d="M80 55 Q88 57 90 60 Q88 63 80 65" fill="#616161" stroke="#424242" stroke-width="2"/>
  <!-- Bow reinforcement spikes -->
  <polygon points="90,58 93,60 90,62" fill="#424242"/>
  <polygon points="88,56 91,58 88,60" fill="#424242"/>
  <polygon points="88,62 91,64 88,66" fill="#424242"/>
  
  <!-- Tugboat deck -->
  <ellipse cx="50" cy="55" rx="28" ry="4" fill="#795548" stroke="#5d4037" stroke-width="1"/>
  <!-- Deck planks -->
  <line x1="25" y1="54" x2="75" y2="54" stroke="#6d4c41" stroke-width="1"/>
  <line x1="25" y1="56" x2="75" y2="56" stroke="#6d4c41" stroke-width="1"/>
  
  <!-- Steam smokestack -->
  <rect x="45" y="20" width="10" height="25" fill="url(#stackGrad)" stroke="#000" stroke-width="2"/>
  <!-- Stack rings -->
  <rect x="44" y="25" width="12" height="2" fill="#616161"/>
  <rect x="44" y="35" width="12" height="2" fill="#616161"/>
  <!-- Stack top -->
  <ellipse cx="50" cy="20" rx="6" ry="2" fill="#424242" stroke="#000" stroke-width="1"/>
  
  <!-- Steam emissions -->
  <circle cx="50" cy="18" r="3" fill="url(#steamGrad)" opacity="0.8"/>
  <circle cx="48" cy="14" r="2.5" fill="url(#steamGrad)" opacity="0.7"/>
  <circle cx="52" cy="12" r="2" fill="url(#steamGrad)" opacity="0.6"/>
  <circle cx="49" cy="9" r="1.8" fill="url(#steamGrad)" opacity="0.5"/>
  <circle cx="53" cy="7" r="1.5" fill="url(#steamGrad)" opacity="0.4"/>
  <circle cx="47" cy="5" r="1.2" fill="url(#steamGrad)" opacity="0.3"/>
  
  <!-- Pilot house -->
  <rect x="35" y="35" width="30" height="15" fill="#8d6e63" stroke="#5d4037" stroke-width="2"/>
  <!-- Pilot house roof -->
  <polygon points="33,35 50,30 67,35" fill="#6d4c41" stroke="#3e2723" stroke-width="1"/>
  <!-- Windows -->
  <rect x="38" y="38" width="5" height="5" fill="#81d4fa" stroke="#0277bd" stroke-width="1"/>
  <rect x="45" y="38" width="5" height="5" fill="#81d4fa" stroke="#0277bd" stroke-width="1"/>
  <rect x="52" y="38" width="5" height="5" fill="#81d4fa" stroke="#0277bd" stroke-width="1"/>
  <rect x="59" y="38" width="5" height="5" fill="#81d4fa" stroke="#0277bd" stroke-width="1"/>
  <!-- Window frames -->
  <rect x="37" y="37" width="7" height="7" fill="none" stroke="#424242" stroke-width="1"/>
  <rect x="44" y="37" width="7" height="7" fill="none" stroke="#424242" stroke-width="1"/>
  <rect x="51" y="37" width="7" height="7" fill="none" stroke="#424242" stroke-width="1"/>
  <rect x="58" y="37" width="7" height="7" fill="none" stroke="#424242" stroke-width="1"/>
  
  <!-- Captain -->
  <circle cx="50" cy="30" r="3" fill="#ffdbcb" stroke="#d4a574" stroke-width="1"/>
  <!-- Captain's cap -->
  <path d="M47 25 Q50 22 53 25 Q53 30 50 30 Q47 30 47 25" fill="#1976d2" stroke="#0d47a1" stroke-width="1"/>
  <circle cx="51" cy="27" r="0.8" fill="#ffc107"/>
  <!-- Eyes -->
  <circle cx="48" cy="28" r="1" fill="#1976d2"/>
  <circle cx="52" cy="28" r="1" fill="#1976d2"/>
  <!-- Captain's beard -->
  <path d="M47 31 Q50 33 53 31" stroke="#e0e0e0" stroke-width="2" fill="none"/>
  
  <!-- Steam engine housing -->
  <rect x="40" y="45" width="20" height="10" fill="#616161" stroke="#424242" stroke-width="2"/>
  <!-- Engine details -->
  <circle cx="45" cy="50" r="2" fill="#424242"/>
  <circle cx="55" cy="50" r="2" fill="#424242"/>
  <rect x="48" y="47" width="4" height="6" fill="#9e9e9e"/>
  
  <!-- Heavy towing equipment -->
  <circle cx="15" cy="60" r="4" fill="#424242" stroke="#000" stroke-width="2"/>
  <!-- Towing hook -->
  <path d="M15 56 Q12 58 15 60 Q18 58 15 56" fill="#616161" stroke="#424242" stroke-width="1"/>
  <!-- Towing chain -->
  <circle cx="11" cy="58" r="1" fill="#424242"/>
  <circle cx="8" cy="60" r="1" fill="#424242"/>
  <circle cx="5" cy="62" r="1" fill="#424242"/>
  <circle cx="2" cy="64" r="1" fill="#424242"/>
  
  <!-- Towing cable -->
  <line x1="15" y1="60" x2="5" y2="65" stroke="#8d6e63" stroke-width="3"/>
  <line x1="5" y1="65" x2="0" y2="68" stroke="#8d6e63" stroke-width="3"/>
  
  <!-- Stern equipment -->
  <rect x="22" y="52" width="8" height="6" fill="#795548" stroke="#5d4037" stroke-width="1"/>
  <!-- Bumpers -->
  <ellipse cx="23" cy="55" rx="1" ry="3" fill="#424242"/>
  <ellipse cx="25" cy="55" rx="1" ry="3" fill="#424242"/>
  <ellipse cx="27" cy="55" rx="1" ry="3" fill="#424242"/>
  <ellipse cx="29" cy="55" rx="1" ry="3" fill="#424242"/>
  
  <!-- Crew -->
  <!-- Deck hand -->
  <circle cx="35" cy="48" r="2.5" fill="#ffdbcb" stroke="#d4a574" stroke-width="1"/>
  <path d="M32.5 44 Q35 41 37.5 44" fill="#8d6e63"/>
  <circle cx="33.5" cy="46" r="0.8" fill="#1976d2"/>
  <circle cx="36.5" cy="46" r="0.8" fill="#1976d2"/>
  <rect x="32" y="50.5" width="6" height="8" fill="#795548" stroke="#5d4037" stroke-width="1"/>
  
  <!-- Engineer -->
  <circle cx="65" cy="48" r="2.5" fill="#ffdbcb" stroke="#d4a574" stroke-width="1"/>
  <path d="M62.5 44 Q65 41 67.5 44" fill="#5d4037"/>
  <circle cx="63.5" cy="46" r="0.8" fill="#1976d2"/>
  <circle cx="66.5" cy="46" r="0.8" fill="#1976d2"/>
  <rect x="62" y="50.5" width="6" height="8" fill="#616161" stroke="#424242" stroke-width="1"/>
  
  <!-- Navigation light -->
  <circle cx="75" cy="45" r="2" fill="#4caf50"/>
  <circle cx="75" cy="45" r="3" fill="#81c784" opacity="0.6"/>
  
  <!-- Ship's bell -->
  <circle cx="40" cy="32" r="2" fill="#ffc107" stroke="#ff8f00" stroke-width="1"/>
  <line x1="40" y1="30" x2="40" y2="28" stroke="#8d6e63" stroke-width="2"/>
  
  <!-- Work equipment -->
  <!-- Rope coils -->
  <circle cx="25" cy="48" r="3" fill="#8d6e63" stroke="#6d4c41" stroke-width="1"/>
  <circle cx="25" cy="48" r="1.5" fill="#6d4c41"/>
  <circle cx="75" cy="48" r="3" fill="#8d6e63" stroke="#6d4c41" stroke-width="1"/>
  <circle cx="75" cy="48" r="1.5" fill="#6d4c41"/>
  
  <!-- Fenders -->
  <ellipse cx="20" cy="62" rx="2" ry="4" fill="#424242" stroke="#000" stroke-width="1"/>
  <ellipse cx="80" cy="62" rx="2" ry="4" fill="#424242" stroke="#000" stroke-width="1"/>
  
  <!-- Harbor flag -->
  <line x1="67" y1="35" x2="67" y2="28" stroke="#6d4c41" stroke-width="2"/>
  <rect x="67" y="28" width="8" height="5" fill="#2196f3" stroke="#1976d2" stroke-width="1"/>
  <circle cx="71" cy="30.5" r="1" fill="#f5f5f5"/>
  
  <!-- Water wake -->
  <ellipse cx="12" cy="70" rx="6" ry="3" fill="url(#waterGrad)" opacity="0.7"/>
  <ellipse cx="8" cy="73" rx="4" ry="2" fill="url(#waterGrad)" opacity="0.5"/>
  <ellipse cx="5" cy="75" rx="3" ry="1.5" fill="url(#waterGrad)" opacity="0.4"/>
  <ellipse cx="3" cy="77" rx="2" ry="1" fill="url(#waterGrad)" opacity="0.3"/>
  
  <!-- Stern wake -->
  <ellipse cx="88" cy="68" rx="4" ry="2" fill="url(#waterGrad)" opacity="0.6"/>
  <ellipse cx="92" cy="70" rx="3" ry="1.5" fill="url(#waterGrad)" opacity="0.4"/>
  <ellipse cx="95" cy="72" rx="2" ry="1" fill="url(#waterGrad)" opacity="0.3"/>
  
  <!-- Engine exhaust -->
  <circle cx="52" cy="22" r="1.5" fill="#9e9e9e" opacity="0.7"/>
  <circle cx="54" cy="24" r="1.2" fill="#9e9e9e" opacity="0.5"/>
  <circle cx="48" cy="24" r="1" fill="#9e9e9e" opacity="0.4"/>
  
  <!-- Tugboat identification -->
  <rect x="42" y="50" width="16" height="3" fill="#f5f5f5" stroke="#e0e0e0" stroke-width="1"/>
  <rect x="44" y="51" width="3" height="1" fill="#f44336"/>
  <rect x="48" y="51" width="4" height="1" fill="#1976d2"/>
  <rect x="53" y="51" width="3" height="1" fill="#f44336"/>
  
  <!-- Anchor windlass -->
  <circle cx="30" cy="45" r="3" fill="#616161" stroke="#424242" stroke-width="1"/>
  <line x1="30" y1="42" x2="30" y2="48" stroke="#424242" stroke-width="2"/>
  <line x1="27" y1="45" x2="33" y2="45" stroke="#424242" stroke-width="2"/>
  
  <!-- Anchor chain -->
  <line x1="30" y1="48" x2="30" y2="55" stroke="#424242" stroke-width="2"/>
  <circle cx="30" cy="53" r="0.8" fill="#424242"/>
  <circle cx="30" cy="56" r="0.8" fill="#424242"/>
</svg>