<svg viewBox="0 0 100 100" xmlns="http://www.w3.org/2000/svg">
  <!-- Knight - Level 2 Soldier -->
  
  <!-- Head (partially visible under helmet) -->
  <circle cx="50" cy="25" r="8" fill="#ffdbcb" stroke="#d4a574" stroke-width="1"/>
  <!-- Eyes visible through helmet -->
  <circle cx="47" cy="24" r="1.5" fill="#1976d2"/>
  <circle cx="53" cy="24" r="1.5" fill="#1976d2"/>
  
  <!-- Full Knight Helmet -->
  <path d="M42 15 Q50 8 58 15 Q58 30 50 32 Q42 30 42 15" fill="#9e9e9e" stroke="#616161" stroke-width="1"/>
  <!-- Helmet visor -->
  <rect x="45" y="22" width="10" height="4" fill="#424242"/>
  <rect x="46" y="23" width="2" height="2" fill="#212121"/>
  <rect x="52" y="23" width="2" height="2" fill="#212121"/>
  <!-- Helmet plume -->
  <path d="M50 8 Q48 5 50 3 Q52 5 50 8" fill="#f44336"/>
  
  <!-- Armored body -->
  <rect x="44" y="32" width="12" height="22" fill="#9e9e9e" stroke="#616161" stroke-width="1" rx="2"/>
  <!-- Chain mail details -->
  <circle cx="47" cy="36" r="1" fill="#757575"/>
  <circle cx="50" cy="36" r="1" fill="#757575"/>
  <circle cx="53" cy="36" r="1" fill="#757575"/>
  <circle cx="47" cy="40" r="1" fill="#757575"/>
  <circle cx="50" cy="40" r="1" fill="#757575"/>
  <circle cx="53" cy="40" r="1" fill="#757575"/>
  <!-- Heraldic symbol -->
  <polygon points="50,44 47,47 50,50 53,47" fill="#f44336"/>
  
  <!-- Armored arms -->
  <circle cx="40" cy="38" r="4" fill="#9e9e9e" stroke="#616161" stroke-width="1"/>
  <rect x="36" y="34" width="8" height="10" fill="#9e9e9e" stroke="#616161" stroke-width="1"/>
  <circle cx="60" cy="38" r="4" fill="#9e9e9e" stroke="#616161" stroke-width="1"/>
  <rect x="56" y="34" width="8" height="10" fill="#9e9e9e" stroke="#616161" stroke-width="1"/>
  
  <!-- Armored legs -->
  <rect x="46" y="54" width="4" height="16" fill="#9e9e9e" stroke="#616161" stroke-width="1"/>
  <rect x="50" y="54" width="4" height="16" fill="#9e9e9e" stroke="#616161" stroke-width="1"/>
  <!-- Armored boots -->
  <ellipse cx="48" cy="72" rx="3" ry="2" fill="#616161"/>
  <ellipse cx="52" cy="72" rx="3" ry="2" fill="#616161"/>
  
  <!-- Sword -->
  <rect x="30" y="15" width="3" height="25" fill="#616161"/>
  <rect x="28" y="40" width="7" height="3" fill="#795548"/>
  <circle cx="31.5" cy="45" r="2" fill="#795548"/>
  
  <!-- Large Knight Shield -->
  <path d="M65 25 Q72 20 79 25 Q79 50 72 55 Q65 50 65 25" fill="#f44336" stroke="#d32f2f" stroke-width="2"/>
  <polygon points="72,30 69,33 72,36 75,33" fill="#ffeb3b"/>
  <rect x="70" y="40" width="4" height="8" fill="#ffeb3b"/>
  
  <!-- Cape -->
  <path d="M44 35 Q35 30 30 40 Q35 50 44 45" fill="#1976d2" opacity="0.8"/>
</svg>