<svg viewBox="0 0 100 100" xmlns="http://www.w3.org/2000/svg">
  <defs>
    <radialGradient id="eyeGrad" cx="50%" cy="50%">
      <stop offset="0%" stop-color="#e1bee7"/>
      <stop offset="30%" stop-color="#ba68c8"/>
      <stop offset="70%" stop-color="#9c27b0"/>
      <stop offset="100%" stop-color="#6a1b9a"/>
    </radialGradient>
    <radialGradient id="irisGrad" cx="50%" cy="30%">
      <stop offset="0%" stop-color="#2196f3"/>
      <stop offset="50%" stop-color="#1976d2"/>
      <stop offset="100%" stop-color="#0d47a1"/>
    </radialGradient>
    <radialGradient id="magicGrad" cx="50%" cy="50%">
      <stop offset="0%" stop-color="#ffffff"/>
      <stop offset="30%" stop-color="#e1bee7"/>
      <stop offset="70%" stop-color="#9c27b0"/>
      <stop offset="100%" stop-color="#4a148c"/>
    </radialGradient>
    <linearGradient id="levitationGrad" x1="0%" y1="0%" x2="0%" y2="100%">
      <stop offset="0%" stop-color="#e3f2fd"/>
      <stop offset="50%" stop-color="#bbdefb"/>
      <stop offset="100%" stop-color="#90caf9"/>
    </linearGradient>
  </defs>
  
  <!-- Magical Eye - Drone equivalent -->
  
  <!-- Floating orb body -->
  <circle cx="50" cy="50" r="20" fill="url(#eyeGrad)" stroke="#4a148c" stroke-width="3"/>
  
  <!-- Mystical surface patterns -->
  <circle cx="50" cy="50" r="16" fill="url(#magicGrad)" opacity="0.7"/>
  <circle cx="50" cy="50" r="12" fill="#e1bee7" opacity="0.5"/>
  
  <!-- Central eye -->
  <ellipse cx="50" cy="50" rx="10" ry="12" fill="#f5f5f5" stroke="#9c27b0" stroke-width="2"/>
  <!-- Iris -->
  <circle cx="50" cy="50" r="6" fill="url(#irisGrad)" stroke="#0d47a1" stroke-width="1"/>
  <!-- Pupil -->
  <circle cx="50" cy="50" r="3" fill="#000"/>
  <!-- Reflection -->
  <circle cx="48" cy="47" r="1.5" fill="#ffffff"/>
  <circle cx="52" cy="49" r="0.8" fill="#bbdefb"/>
  
  <!-- Magical iris patterns -->
  <circle cx="50" cy="50" r="4" fill="none" stroke="#e1bee7" stroke-width="0.5"/>
  <circle cx="50" cy="50" r="5" fill="none" stroke="#ba68c8" stroke-width="0.5"/>
  <polygon points="50,45 52,50 50,55 48,50" fill="#9c27b0" opacity="0.6"/>
  <polygon points="45,50 50,48 55,50 50,52" fill="#9c27b0" opacity="0.6"/>
  
  <!-- Arcane symbols around eye -->
  <polygon points="50,25 48,28 52,28" fill="#9c27b0" opacity="0.8"/>
  <polygon points="75,50 72,48 72,52" fill="#9c27b0" opacity="0.8"/>
  <polygon points="50,75 48,72 52,72" fill="#9c27b0" opacity="0.8"/>
  <polygon points="25,50 28,48 28,52" fill="#9c27b0" opacity="0.8"/>
  <polygon points="65,35 63,37 67,37" fill="#9c27b0" opacity="0.8"/>
  <polygon points="65,65 63,63 67,63" fill="#9c27b0" opacity="0.8"/>
  <polygon points="35,65 37,63 37,67" fill="#9c27b0" opacity="0.8"/>
  <polygon points="35,35 37,37 37,33" fill="#9c27b0" opacity="0.8"/>
  
  <!-- Floating crystal stabilizers -->
  <polygon points="30,30 28,32 30,34 32,32" fill="#e1bee7" stroke="#9c27b0" stroke-width="1"/>
  <polygon points="70,30 68,32 70,34 72,32" fill="#e1bee7" stroke="#9c27b0" stroke-width="1"/>
  <polygon points="30,70 28,68 30,66 32,68" fill="#e1bee7" stroke="#9c27b0" stroke-width="1"/>
  <polygon points="70,70 68,68 70,66 72,68" fill="#e1bee7" stroke="#9c27b0" stroke-width="1"/>
  
  <!-- Crystal energy connections -->
  <line x1="32" y1="32" x2="40" y2="40" stroke="#ba68c8" stroke-width="1" opacity="0.7"/>
  <line x1="68" y1="32" x2="60" y2="40" stroke="#ba68c8" stroke-width="1" opacity="0.7"/>
  <line x1="32" y1="68" x2="40" y2="60" stroke="#ba68c8" stroke-width="1" opacity="0.7"/>
  <line x1="68" y1="68" x2="60" y2="60" stroke="#ba68c8" stroke-width="1" opacity="0.7"/>
  
  <!-- Levitation field -->
  <ellipse cx="50" cy="80" rx="25" ry="6" fill="url(#levitationGrad)" opacity="0.5"/>
  <ellipse cx="50" cy="82" rx="20" ry="4" fill="#e3f2fd" opacity="0.4"/>
  <ellipse cx="50" cy="84" rx="15" ry="3" fill="#bbdefb" opacity="0.3"/>
  
  <!-- Magical energy aura -->
  <circle cx="50" cy="50" r="25" fill="none" stroke="#e1bee7" stroke-width="2" opacity="0.4"/>
  <circle cx="50" cy="50" r="30" fill="none" stroke="#ba68c8" stroke-width="1.5" opacity="0.3"/>
  <circle cx="50" cy="50" r="35" fill="none" stroke="#9c27b0" stroke-width="1" opacity="0.2"/>
  
  <!-- Scanning beams -->
  <path d="M50 40 L20 10" stroke="#2196f3" stroke-width="2" opacity="0.7"/>
  <path d="M50 40 L80 10" stroke="#2196f3" stroke-width="2" opacity="0.7"/>
  <path d="M40 50 L10 50" stroke="#e1bee7" stroke-width="2" opacity="0.6"/>
  <path d="M60 50 L90 50" stroke="#e1bee7" stroke-width="2" opacity="0.6"/>
  <path d="M40 60 L10 90" stroke="#9c27b0" stroke-width="2" opacity="0.5"/>
  <path d="M60 60 L90 90" stroke="#9c27b0" stroke-width="2" opacity="0.5"/>
  
  <!-- Scanned targets -->
  <circle cx="20" cy="20" r="2" fill="#f44336" opacity="0.8"/>
  <circle cx="80" cy="20" r="2" fill="#4caf50" opacity="0.8"/>
  <circle cx="15" cy="50" r="2" fill="#ff9800" opacity="0.8"/>
  <circle cx="85" cy="50" r="2" fill="#2196f3" opacity="0.8"/>
  
  <!-- Targeting reticles -->
  <circle cx="20" cy="20" r="4" fill="none" stroke="#f44336" stroke-width="1" opacity="0.6"/>
  <line x1="16" y1="20" x2="24" y2="20" stroke="#f44336" stroke-width="1" opacity="0.6"/>
  <line x1="20" y1="16" x2="20" y2="24" stroke="#f44336" stroke-width="1" opacity="0.6"/>
  
  <circle cx="80" cy="20" r="4" fill="none" stroke="#4caf50" stroke-width="1" opacity="0.6"/>
  <line x1="76" y1="20" x2="84" y2="20" stroke="#4caf50" stroke-width="1" opacity="0.6"/>
  <line x1="80" y1="16" x2="80" y2="24" stroke="#4caf50" stroke-width="1" opacity="0.6"/>
  
  <!-- Information overlay -->
  <rect x="5" y="5" width="15" height="8" fill="#212121" opacity="0.8"/>
  <line x1="7" y1="7" x2="12" y2="7" stroke="#4caf50" stroke-width="1"/>
  <line x1="7" y1="9" x2="10" y2="9" stroke="#ff9800" stroke-width="1"/>
  <line x1="7" y1="11" x2="14" y2="11" stroke="#2196f3" stroke-width="1"/>
  
  <!-- Mystic runes floating around -->
  <path d="M15 35 Q18 32 21 35 Q18 38 15 35" fill="#e1bee7" opacity="0.7"/>
  <path d="M85 65 Q82 68 79 65 Q82 62 85 65" fill="#ba68c8" opacity="0.7"/>
  <path d="M25 75 Q28 72 31 75 Q28 78 25 75" fill="#9c27b0" opacity="0.7"/>
  <path d="M75 25 Q72 28 69 25 Q72 22 75 25" fill="#e1bee7" opacity="0.7"/>
  
  <!-- Magical dust trail -->
  <circle cx="35" cy="25" r="1" fill="#e1bee7" opacity="0.8"/>
  <circle cx="32" cy="22" r="0.8" fill="#ba68c8" opacity="0.7"/>
  <circle cx="29" cy="19" r="0.6" fill="#9c27b0" opacity="0.6"/>
  <circle cx="65" cy="75" r="1" fill="#e1bee7" opacity="0.8"/>
  <circle cx="68" cy="78" r="0.8" fill="#ba68c8" opacity="0.7"/>
  <circle cx="71" cy="81" r="0.6" fill="#9c27b0" opacity="0.6"/>
  
  <!-- Protective ward -->
  <circle cx="50" cy="50" r="22" fill="none" stroke="#ffffff" stroke-width="1" opacity="0.3"/>
  <polygon points="50,28 52,30 50,32 48,30" fill="#ffffff" opacity="0.4"/>
  <polygon points="72,50 70,48 68,50 70,52" fill="#ffffff" opacity="0.4"/>
  <polygon points="50,72 48,70 50,68 52,70" fill="#ffffff" opacity="0.4"/>
  <polygon points="28,50 30,52 32,50 30,48" fill="#ffffff" opacity="0.4"/>
  
  <!-- Energy pulse rings -->
  <circle cx="50" cy="50" r="18" fill="none" stroke="#e1bee7" stroke-width="1" opacity="0.6">
    <animate attributeName="r" values="18;22;18" dur="3s" repeatCount="indefinite"/>
    <animate attributeName="opacity" values="0.6;0.1;0.6" dur="3s" repeatCount="indefinite"/>
  </circle>
  
  <!-- Floating sparks -->
  <circle cx="40" cy="20" r="0.5" fill="#ffffff"/>
  <circle cx="60" cy="25" r="0.5" fill="#e1bee7"/>
  <circle cx="75" cy="40" r="0.5" fill="#ba68c8"/>
  <circle cx="80" cy="60" r="0.5" fill="#9c27b0"/>
  <circle cx="60" cy="80" r="0.5" fill="#ffffff"/>
  <circle cx="40" cy="75" r="0.5" fill="#e1bee7"/>
  <circle cx="25" cy="60" r="0.5" fill="#ba68c8"/>
  <circle cx="20" cy="40" r="0.5" fill="#9c27b0"/>
  
  <!-- Dimensional anchor points -->
  <polygon points="50,15 49,17 51,17" fill="#4a148c" opacity="0.8"/>
  <polygon points="85,50 83,49 83,51" fill="#4a148c" opacity="0.8"/>
  <polygon points="50,85 49,83 51,83" fill="#4a148c" opacity="0.8"/>
  <polygon points="15,50 17,49 17,51" fill="#4a148c" opacity="0.8"/>
</svg>