<svg viewBox="0 0 100 100" xmlns="http://www.w3.org/2000/svg">
  <defs>
    <linearGradient id="weatheredGrad" x1="0%" y1="0%" x2="0%" y2="100%">
      <stop offset="0%" stop-color="#8d6e63"/>
      <stop offset="50%" stop-color="#6d4c41"/>
      <stop offset="100%" stop-color="#3e2723"/>
    </linearGradient>
    <linearGradient id="dirtGrad" x1="0%" y1="0%" x2="0%" y2="100%">
      <stop offset="0%" stop-color="#a1887f"/>
      <stop offset="50%" stop-color="#8d6e63"/>
      <stop offset="100%" stop-color="#5d4037"/>
    </linearGradient>
    <linearGradient id="goldGrad" x1="0%" y1="0%" x2="0%" y2="100%">
      <stop offset="0%" stop-color="#ffd54f"/>
      <stop offset="50%" stop-color="#ffc107"/>
      <stop offset="100%" stop-color="#ff8f00"/>
    </linearGradient>
    <radialGradient id="gemGrad" cx="50%" cy="30%">
      <stop offset="0%" stop-color="#e1bee7"/>
      <stop offset="100%" stop-color="#9c27b0"/>
    </radialGradient>
  </defs>
  
  <!-- Prospector - Miner equivalent -->
  
  <!-- Weathered face with beard -->
  <circle cx="50" cy="25" r="7" fill="#d7a86e" stroke="#c49958" stroke-width="1"/>
  <!-- Wide-brimmed hat -->
  <ellipse cx="50" cy="18" rx="12" ry="3" fill="url(#weatheredGrad)" stroke="#212121" stroke-width="1"/>
  <circle cx="50" cy="18" r="8" fill="url(#weatheredGrad)" stroke="#212121" stroke-width="1"/>
  <!-- Hat band -->
  <ellipse cx="50" cy="20" rx="8" ry="2" fill="#8d6e63"/>
  <!-- Feather in hat -->
  <line x1="58" y1="16" x2="62" y2="12" stroke="#4caf50" stroke-width="2"/>
  <line x1="58" y1="16" x2="61" y2="11" stroke="#2e7d32" stroke-width="1"/>
  
  <!-- Weathered face features -->
  <circle cx="47" cy="23" r="1.5" fill="#1976d2"/>
  <circle cx="53" cy="23" r="1.5" fill="#1976d2"/>
  <!-- Crow's feet (age lines) -->
  <line x1="45" y1="21" x2="43" y2="20" stroke="#c49958" stroke-width="1"/>
  <line x1="55" y1="21" x2="57" y2="20" stroke="#c49958" stroke-width="1"/>
  <!-- Full beard -->
  <path d="M43 28 Q50 35 57 28 Q55 32 50 33 Q45 32 43 28" fill="#9e9e9e" stroke="#616161" stroke-width="1"/>
  <!-- Mustache -->
  <path d="M46 26 Q50 28 54 26" stroke="#9e9e9e" stroke-width="2" fill="none"/>
  
  <!-- Rugged work shirt -->
  <rect x="43" y="32" width="14" height="22" fill="url(#dirtGrad)" stroke="#3e2723" stroke-width="1" rx="2"/>
  <!-- Shirt patches and wear -->
  <rect x="45" y="36" width="3" height="4" fill="#6d4c41" stroke="#3e2723" stroke-width="1"/>
  <rect x="52" y="42" width="3" height="3" fill="#6d4c41" stroke="#3e2723" stroke-width="1"/>
  <!-- Shirt buttons -->
  <circle cx="47" cy="38" r="1" fill="#795548"/>
  <circle cx="47" cy="44" r="1" fill="#795548"/>
  <circle cx="47" cy="50" r="1" fill="#795548"/>
  <!-- Rolled sleeves -->
  <rect x="44" y="40" width="2" height="4" fill="#8d6e63"/>
  <rect x="54" y="40" width="2" height="4" fill="#8d6e63"/>
  
  <!-- Suspenders -->
  <line x1="46" y1="32" x2="46" y2="54" stroke="#6d4c41" stroke-width="3"/>
  <line x1="54" y1="32" x2="54" y2="54" stroke="#6d4c41" stroke-width="3"/>
  <!-- Suspender clasps -->
  <rect x="45" y="52" width="2" height="2" fill="#795548"/>
  <rect x="53" y="52" width="2" height="2" fill="#795548"/>
  
  <!-- Muscular arms from hard work -->
  <ellipse cx="37" cy="42" rx="5" ry="9" fill="#d7a86e" stroke="#c49958" stroke-width="1"/>
  <ellipse cx="63" cy="42" rx="5" ry="9" fill="#d7a86e" stroke="#c49958" stroke-width="1"/>
  <!-- Arm hair -->
  <line x1="35" y1="40" x2="39" y2="40" stroke="#8d6e63" stroke-width="0.5"/>
  <line x1="61" y1="40" x2="65" y2="40" stroke="#8d6e63" stroke-width="0.5"/>
  <!-- Callused hands -->
  <circle cx="32" cy="51" r="4" fill="#c49958" stroke="#b0956b" stroke-width="1"/>
  <circle cx="68" cy="51" r="4" fill="#c49958" stroke="#b0956b" stroke-width="1"/>
  
  <!-- Heavy work pants -->
  <rect x="45" y="54" width="5" height="20" fill="url(#dirtGrad)" stroke="#3e2723" stroke-width="1"/>
  <rect x="50" y="54" width="5" height="20" fill="url(#dirtGrad)" stroke="#3e2723" stroke-width="1"/>
  <!-- Knee reinforcements -->
  <rect x="45" y="64" width="5" height="5" fill="#5d4037" stroke="#3e2723" stroke-width="1"/>
  <rect x="50" y="64" width="5" height="5" fill="#5d4037" stroke="#3e2723" stroke-width="1"/>
  
  <!-- Heavy mining boots -->
  <ellipse cx="47.5" cy="77" rx="4" ry="3" fill="#3e2723" stroke="#212121" stroke-width="2"/>
  <ellipse cx="52.5" cy="77" rx="4" ry="3" fill="#3e2723" stroke="#212121" stroke-width="2"/>
  <!-- Boot reinforcements -->
  <rect x="45" y="75" width="5" height="2" fill="#616161"/>
  <rect x="50" y="75" width="5" height="2" fill="#616161"/>
  
  <!-- Primary tool - Pickaxe -->
  <line x1="20" y1="15" x2="20" y2="50" stroke="url(#weatheredGrad)" stroke-width="4"/>
  <!-- Pickaxe head -->
  <polygon points="20,15 15,18 20,21 25,18" fill="#616161" stroke="#424242" stroke-width="1"/>
  <polygon points="20,15 18,12 20,9 22,12" fill="#616161" stroke="#424242" stroke-width="1"/>
  <!-- Handle wrap -->
  <rect x="19" y="25" width="2" height="15" fill="#8d6e63"/>
  <rect x="19" y="35" width="2" height="15" fill="#8d6e63"/>
  
  <!-- Mining pan -->
  <ellipse cx="75" cy="55" rx="6" ry="3" fill="#ffc107" stroke="#ff8f00" stroke-width="1"/>
  <!-- Gold flakes in pan -->
  <circle cx="73" cy="54" r="1" fill="url(#goldGrad)"/>
  <circle cx="77" cy="55" r="0.8" fill="url(#goldGrad)"/>
  <circle cx="75" cy="56" r="0.6" fill="url(#goldGrad)"/>
  
  <!-- Tool belt -->
  <rect x="40" y="50" width="20" height="3" fill="#5d4037" stroke="#3e2723" stroke-width="1"/>
  <!-- Belt buckle -->
  <rect x="58" y="50" width="3" height="3" fill="#795548" stroke="#5d4037" stroke-width="1"/>
  
  <!-- Tools on belt -->
  <!-- Small hammer -->
  <rect x="42" y="53" width="1" height="6" fill="url(#weatheredGrad)"/>
  <rect x="41" y="54" width="3" height="2" fill="#616161"/>
  
  <!-- Chisel -->
  <rect x="45" y="53" width="1" height="7" fill="#616161"/>
  <polygon points="45,53 44,52 46,52" fill="#757575"/>
  
  <!-- Cloth pouch -->
  <ellipse cx="48" cy="56" rx="2" ry="3" fill="url(#dirtGrad)" stroke="#3e2723" stroke-width="1"/>
  <line x1="46" y1="54" x2="50" y2="54" stroke="#6d4c41" stroke-width="2"/>
  
  <!-- Water bottle -->
  <ellipse cx="52" cy="55" rx="1.5" ry="4" fill="#81d4fa" stroke="#0277bd" stroke-width="1"/>
  <circle cx="52" cy="52" r="1" fill="#795548"/>
  
  <!-- Specimen bag -->
  <rect x="75" y="40" width="8" height="10" fill="url(#dirtGrad)" stroke="#3e2723" stroke-width="1"/>
  <!-- Bag tie -->
  <line x1="77" y1="40" x2="81" y2="40" stroke="#6d4c41" stroke-width="2"/>
  <!-- Visible gems in bag -->
  <circle cx="77" cy="44" r="1" fill="url(#gemGrad)"/>
  <circle cx="81" cy="46" r="1" fill="#f44336"/>
  <circle cx="79" cy="48" r="1" fill="#4caf50"/>
  
  <!-- Ore samples on ground -->
  <circle cx="15" cy="70" r="2" fill="#616161" stroke="#424242" stroke-width="1"/>
  <circle cx="12" cy="67" r="2" fill="url(#goldGrad)" stroke="#e65100" stroke-width="1"/>
  <circle cx="18" cy="67" r="2" fill="#795548" stroke="#5d4037" stroke-width="1"/>
  <circle cx="15" cy="64" r="2" fill="url(#gemGrad)" stroke="#6a1b9a" stroke-width="1"/>
  
  <!-- Mining cart -->
  <rect x="80" y="65" width="15" height="8" fill="url(#weatheredGrad)" stroke="#212121" stroke-width="2"/>
  <!-- Cart wheels -->
  <circle cx="85" cy="75" r="3" fill="#3e2723" stroke="#212121" stroke-width="1"/>
  <circle cx="90" cy="75" r="3" fill="#3e2723" stroke="#212121" stroke-width="1"/>
  <!-- Ore in cart -->
  <circle cx="83" cy="67" r="1.5" fill="#616161"/>
  <circle cx="87" cy="68" r="1.5" fill="url(#goldGrad)"/>
  <circle cx="91" cy="67" r="1.5" fill="#795548"/>
  <circle cx="85" cy="69" r="1.5" fill="url(#gemGrad)"/>
  
  <!-- Lantern -->
  <rect x="25" y="60" width="4" height="6" fill="#795548" stroke="#5d4037" stroke-width="1"/>
  <circle cx="27" cy="63" r="2" fill="#ffeb3b" opacity="0.8"/>
  <circle cx="27" cy="63" r="3" fill="#ffc107" opacity="0.4"/>
  <!-- Lantern handle -->
  <path d="M25 60 Q27 57 29 60" stroke="#5d4037" stroke-width="2" fill="none"/>
  
  <!-- Dust clouds from work -->
  <circle cx="30" cy="45" r="2" fill="#d7ccc8" opacity="0.6"/>
  <circle cx="27" cy="42" r="1.5" fill="#d7ccc8" opacity="0.4"/>
  <circle cx="33" cy="41" r="1" fill="#d7ccc8" opacity="0.3"/>
  <circle cx="70" cy="50" r="2" fill="#d7ccc8" opacity="0.6"/>
  <circle cx="73" cy="47" r="1.5" fill="#d7ccc8" opacity="0.4"/>
</svg>