<svg viewBox="0 0 100 100" xmlns="http://www.w3.org/2000/svg">
  <!-- Siege Engine - Level 2 Tank -->
  
  <!-- Main body platform -->
  <rect x="20" y="45" width="60" height="15" fill="#6d4c41" stroke="#5d4037" stroke-width="2" rx="2"/>
  <!-- Platform supports -->
  <rect x="25" y="55" width="3" height="8" fill="#5d4037"/>
  <rect x="35" y="55" width="3" height="8" fill="#5d4037"/>
  <rect x="45" y="55" width="3" height="8" fill="#5d4037"/>
  <rect x="55" y="55" width="3" height="8" fill="#5d4037"/>
  <rect x="65" y="55" width="3" height="8" fill="#5d4037"/>
  <rect x="75" y="55" width="3" height="8" fill="#5d4037"/>
  
  <!-- Ram mechanism -->
  <rect x="25" y="35" width="35" height="8" fill="#8d6e63" stroke="#6d4c41" stroke-width="1" rx="4"/>
  <!-- Ram head (metal) -->
  <polygon points="60,35 70,39 60,43" fill="#616161" stroke="#424242" stroke-width="1"/>
  <!-- Ram chains -->
  <circle cx="30" cy="39" r="1" fill="#424242"/>
  <circle cx="33" cy="39" r="1" fill="#424242"/>
  <circle cx="36" cy="39" r="1" fill="#424242"/>
  <circle cx="39" cy="39" r="1" fill="#424242"/>
  <circle cx="42" cy="39" r="1" fill="#424242"/>
  <circle cx="45" cy="39" r="1" fill="#424242"/>
  <circle cx="48" cy="39" r="1" fill="#424242"/>
  <circle cx="51" cy="39" r="1" fill="#424242"/>
  <circle cx="54" cy="39" r="1" fill="#424242"/>
  <circle cx="57" cy="39" r="1" fill="#424242"/>
  
  <!-- Support frame -->
  <line x1="25" y1="30" x2="25" y2="45" stroke="#6d4c41" stroke-width="3"/>
  <line x1="60" y1="30" x2="60" y2="45" stroke="#6d4c41" stroke-width="3"/>
  <line x1="25" y1="30" x2="60" y2="30" stroke="#6d4c41" stroke-width="3"/>
  
  <!-- Wheels (larger, reinforced) -->
  <circle cx="30" cy="68" r="10" fill="#795548" stroke="#5d4037" stroke-width="3"/>
  <circle cx="70" cy="68" r="10" fill="#795548" stroke="#5d4037" stroke-width="3"/>
  <!-- Metal wheel rims -->
  <circle cx="30" cy="68" r="10" fill="none" stroke="#424242" stroke-width="2"/>
  <circle cx="70" cy="68" r="10" fill="none" stroke="#424242" stroke-width="2"/>
  <!-- Wheel spokes -->
  <line x1="30" y1="58" x2="30" y2="78" stroke="#424242" stroke-width="2"/>
  <line x1="20" y1="68" x2="40" y2="68" stroke="#424242" stroke-width="2"/>
  <line x1="70" y1="58" x2="70" y2="78" stroke="#424242" stroke-width="2"/>
  <line x1="60" y1="68" x2="80" y2="68" stroke="#424242" stroke-width="2"/>
  
  <!-- Operators -->
  <!-- Operator 1 -->
  <circle cx="35" cy="25" r="4" fill="#ffdbcb" stroke="#d4a574" stroke-width="1"/>
  <path d="M31 21 Q35 18 39 21" fill="#8d6e63"/>
  <circle cx="33" cy="24" r="1" fill="#1976d2"/>
  <circle cx="37" cy="24" r="1" fill="#1976d2"/>
  <rect x="32" y="29" width="6" height="10" fill="#6d4c41"/>
  
  <!-- Operator 2 -->
  <circle cx="55" cy="25" r="4" fill="#ffdbcb" stroke="#d4a574" stroke-width="1"/>
  <path d="M51 21 Q55 18 59 21" fill="#5d4037"/>
  <circle cx="53" cy="24" r="1" fill="#1976d2"/>
  <circle cx="57" cy="24" r="1" fill="#1976d2"/>
  <rect x="52" y="29" width="6" height="10" fill="#6d4c41"/>
  
  <!-- Control ropes -->
  <path d="M35 29 Q40 25 45 29" stroke="#8d6e63" stroke-width="2" fill="none"/>
  <path d="M55 29 Q50 25 45 29" stroke="#8d6e63" stroke-width="2" fill="none"/>
  
  <!-- Armor plating -->
  <rect x="22" y="47" width="15" height="8" fill="#616161" stroke="#424242" stroke-width="1"/>
  <rect x="63" y="47" width="15" height="8" fill="#616161" stroke="#424242" stroke-width="1"/>
  
  <!-- Banner -->
  <line x1="75" y1="20" x2="75" y2="45" stroke="#6d4c41" stroke-width="2"/>
  <polygon points="75,20 85,23 75,26" fill="#f44336"/>
</svg>