<svg viewBox="0 0 100 100" xmlns="http://www.w3.org/2000/svg">
  <defs>
    <linearGradient id="wyvernGrad" x1="0%" y1="0%" x2="0%" y2="100%">
      <stop offset="0%" stop-color="#4caf50"/>
      <stop offset="50%" stop-color="#388e3c"/>
      <stop offset="100%" stop-color="#1b5e20"/>
    </linearGradient>
    <linearGradient id="cargoGrad" x1="0%" y1="0%" x2="0%" y2="100%">
      <stop offset="0%" stop-color="#8d6e63"/>
      <stop offset="50%" stop-color="#6d4c41"/>
      <stop offset="100%" stop-color="#3e2723"/>
    </linearGradient>
    <radialGradient id="eyeGrad" cx="50%" cy="30%">
      <stop offset="0%" stop-color="#ffeb3b"/>
      <stop offset="100%" stop-color="#ff8f00"/>
    </radialGradient>
    <linearGradient id="bellyGrad" x1="0%" y1="0%" x2="0%" y2="100%">
      <stop offset="0%" stop-color="#81c784"/>
      <stop offset="100%" stop-color="#4caf50"/>
    </linearGradient>
  </defs>
  
  <!-- Supply Wyvern - Stratotanker equivalent -->
  
  <!-- Robust wyvern body -->
  <ellipse cx="50" cy="50" rx="20" ry="10" fill="url(#wyvernGrad)" stroke="#1b5e20" stroke-width="2"/>
  <!-- Belly -->
  <ellipse cx="50" cy="55" rx="16" ry="7" fill="url(#bellyGrad)" stroke="#2e7d32" stroke-width="1"/>
  
  <!-- Body scale pattern -->
  <ellipse cx="38" cy="46" rx="2" ry="1.5" fill="#66bb6a"/>
  <ellipse cx="42" cy="48" rx="2" ry="1.5" fill="#66bb6a"/>
  <ellipse cx="46" cy="46" rx="2" ry="1.5" fill="#66bb6a"/>
  <ellipse cx="50" cy="48" rx="2" ry="1.5" fill="#66bb6a"/>
  <ellipse cx="54" cy="46" rx="2" ry="1.5" fill="#66bb6a"/>
  <ellipse cx="58" cy="48" rx="2" ry="1.5" fill="#66bb6a"/>
  <ellipse cx="62" cy="46" rx="2" ry="1.5" fill="#66bb6a"/>
  
  <!-- Wyvern head -->
  <ellipse cx="75" cy="42" rx="10" ry="6" fill="url(#wyvernGrad)" stroke="#1b5e20" stroke-width="2"/>
  <!-- Head crest -->
  <polygon points="75,35 73,37 75,39 77,37" fill="#388e3c"/>
  <polygon points="77,33 75,35 77,37 79,35" fill="#388e3c"/>
  
  <!-- Wyvern snout -->
  <ellipse cx="85" cy="42" rx="4" ry="3" fill="url(#wyvernGrad)" stroke="#1b5e20" stroke-width="1"/>
  <!-- Nostrils -->
  <circle cx="87" cy="41" r="0.8" fill="#1b5e20"/>
  <circle cx="87" cy="43" r="0.8" fill="#1b5e20"/>
  
  <!-- Gentle eyes -->
  <circle cx="76" cy="39" r="2.5" fill="url(#eyeGrad)" stroke="#2e7d32" stroke-width="1"/>
  <circle cx="76" cy="39" r="1.5" fill="#8d4a47"/>
  <circle cx="76" cy="38" r="0.8" fill="#f5f5f5"/>
  <circle cx="74" cy="44" r="2.5" fill="url(#eyeGrad)" stroke="#2e7d32" stroke-width="1"/>
  <circle cx="74" cy="44" r="1.5" fill="#8d4a47"/>
  <circle cx="74" cy="43" r="0.8" fill="#f5f5f5"/>
  
  <!-- Strong wings for cargo carrying -->
  <path d="M35 40 Q15 25 10 35 Q15 50 30 55 Q35 50 40 45" fill="url(#wyvernGrad)" stroke="#1b5e20" stroke-width="2"/>
  <path d="M65 40 Q85 25 90 35 Q85 50 70 55 Q65 50 60 45" fill="url(#wyvernGrad)" stroke="#1b5e20" stroke-width="2"/>
  
  <!-- Wing membrane details -->
  <path d="M30 43 Q20 30 13 38" stroke="#2e7d32" stroke-width="1.5" fill="none"/>
  <path d="M32 48 Q22 35 15 43" stroke="#2e7d32" stroke-width="1.5" fill="none"/>
  <path d="M34 53 Q24 40 17 48" stroke="#2e7d32" stroke-width="1.5" fill="none"/>
  <path d="M70 43 Q80 30 87 38" stroke="#2e7d32" stroke-width="1.5" fill="none"/>
  <path d="M68 48 Q78 35 85 43" stroke="#2e7d32" stroke-width="1.5" fill="none"/>
  <path d="M66 53 Q76 40 83 48" stroke="#2e7d32" stroke-width="1.5" fill="none"/>
  
  <!-- Wing structural support -->
  <line x1="25" y1="40" x2="35" y2="45" stroke="#1b5e20" stroke-width="2"/>
  <line x1="20" y1="45" x2="30" y2="50" stroke="#1b5e20" stroke-width="2"/>
  <line x1="75" y1="40" x2="65" y2="45" stroke="#1b5e20" stroke-width="2"/>
  <line x1="80" y1="45" x2="70" y2="50" stroke="#1b5e20" stroke-width="2"/>
  
  <!-- Wyvern neck -->
  <ellipse cx="62" cy="45" rx="6" ry="4" fill="url(#wyvernGrad)" stroke="#1b5e20" stroke-width="1"/>
  
  <!-- Wyvern tail -->
  <ellipse cx="30" cy="53" rx="6" ry="4" fill="url(#wyvernGrad)" stroke="#1b5e20" stroke-width="1"/>
  <ellipse cx="18" cy="56" rx="4" ry="3" fill="url(#wyvernGrad)" stroke="#1b5e20" stroke-width="1"/>
  <!-- Tail fin -->
  <polygon points="15,54 10,52 15,50 18,52" fill="#388e3c"/>
  <polygon points="12,58 7,56 12,54 15,56" fill="#388e3c"/>
  
  <!-- Strong cargo-carrying legs -->
  <ellipse cx="45" cy="65" rx="4" ry="8" fill="url(#wyvernGrad)" stroke="#1b5e20" stroke-width="2"/>
  <ellipse cx="55" cy="65" rx="4" ry="8" fill="url(#wyvernGrad)" stroke="#1b5e20" stroke-width="2"/>
  
  <!-- Talons with cargo hooks -->
  <polygon points="43,73 40,75 46,75" fill="#3e2723"/>
  <polygon points="45,74 42,76 48,76" fill="#3e2723"/>
  <polygon points="47,73 44,75 50,75" fill="#3e2723"/>
  <polygon points="53,73 50,75 56,75" fill="#3e2723"/>
  <polygon points="55,74 52,76 58,76" fill="#3e2723"/>
  <polygon points="57,73 54,75 60,75" fill="#3e2723"/>
  
  <!-- Large cargo containers -->
  <rect x="35" y="58" width="12" height="8" fill="url(#cargoGrad)" stroke="#212121" stroke-width="2"/>
  <rect x="53" y="58" width="12" height="8" fill="url(#cargoGrad)" stroke="#212121" stroke-width="2"/>
  <!-- Container reinforcements -->
  <rect x="36" y="59" width="10" height="2" fill="#5d4037"/>
  <rect x="36" y="63" width="10" height="2" fill="#5d4037"/>
  <rect x="54" y="59" width="10" height="2" fill="#5d4037"/>
  <rect x="54" y="63" width="10" height="2" fill="#5d4037"/>
  
  <!-- Cargo harness system -->
  <path d="M35 58 Q30 55 25 58" stroke="#8d6e63" stroke-width="3" fill="none"/>
  <path d="M47 58 Q50 55 53 58" stroke="#8d6e63" stroke-width="3" fill="none"/>
  <path d="M65 58 Q70 55 75 58" stroke="#8d6e63" stroke-width="3" fill="none"/>
  <!-- Harness buckles -->
  <rect x="28" y="56" width="3" height="3" fill="#424242"/>
  <rect x="48" y="56" width="3" height="3" fill="#424242"/>
  <rect x="68" y="56" width="3" height="3" fill="#424242"/>
  
  <!-- Supply crates hanging -->
  <rect x="25" y="70" width="6" height="5" fill="url(#cargoGrad)" stroke="#212121" stroke-width="1"/>
  <rect x="69" y="70" width="6" height="5" fill="url(#cargoGrad)" stroke="#212121" stroke-width="1"/>
  <!-- Hanging chains -->
  <line x1="28" y1="70" x2="28" y2="65" stroke="#424242" stroke-width="2"/>
  <line x1="72" y1="70" x2="72" y2="65" stroke="#424242" stroke-width="2"/>
  <circle cx="28" cy="67" r="0.8" fill="#424242"/>
  <circle cx="72" cy="67" r="0.8" fill="#424242"/>
  
  <!-- Medical supplies -->
  <rect x="37" y="60" width="3" height="3" fill="#f5f5f5" stroke="#e0e0e0" stroke-width="1"/>
  <line x1="38" y1="59" x2="38" y2="64" stroke="#f44336" stroke-width="2"/>
  <line x1="36" y1="61.5" x2="40" y2="61.5" stroke="#f44336" stroke-width="2"/>
  
  <!-- Food supplies -->
  <rect x="56" y="60" width="3" height="3" fill="#ff9800" stroke="#e65100" stroke-width="1"/>
  <circle cx="57.5" cy="61.5" r="1" fill="#ffeb3b"/>
  
  <!-- Equipment pouches -->
  <ellipse cx="42" cy="63" rx="2" ry="1.5" fill="#795548" stroke="#5d4037" stroke-width="1"/>
  <ellipse cx="60" cy="63" rx="2" ry="1.5" fill="#795548" stroke="#5d4037" stroke-width="1"/>
  
  <!-- Rider/handler -->
  <circle cx="50" cy="35" r="4" fill="#ffdbcb" stroke="#d4a574" stroke-width="1"/>
  <!-- Pilot's helmet -->
  <path d="M46 28 Q50 25 54 28 Q54 35 50 35 Q46 35 46 28" fill="#795548" stroke="#5d4037" stroke-width="1"/>
  <circle cx="48" cy="33" r="1" fill="#1976d2"/>
  <circle cx="52" cy="33" r="1" fill="#1976d2"/>
  
  <!-- Supply master's outfit -->
  <rect x="46" y="39" width="8" height="12" fill="#4caf50" stroke="#2e7d32" stroke-width="1"/>
  <rect x="47" y="41" width="6" height="2" fill="#66bb6a"/>
  <circle cx="48" cy="45" r="1" fill="#795548"/>
  <circle cx="52" cy="45" r="1" fill="#795548"/>
  
  <!-- Supply manifest -->
  <rect x="42" y="40" width="3" height="4" fill="#f5f5f5" stroke="#e0e0e0" stroke-width="1"/>
  <line x1="43" y1="41" x2="44" y2="41" stroke="#1976d2" stroke-width="0.5"/>
  <line x1="43" y1="42" x2="44" y2="42" stroke="#1976d2" stroke-width="0.5"/>
  <line x1="43" y1="43" x2="44" y2="43" stroke="#1976d2" stroke-width="0.5"/>
  
  <!-- Communication horn -->
  <polygon points="55,40 58,38 58,42 55,40" fill="#ffc107" stroke="#ff8f00" stroke-width="1"/>
  
  <!-- Flight path markers -->
  <circle cx="20" cy="25" r="1.5" fill="#4caf50" opacity="0.8"/>
  <circle cx="15" cy="20" r="1.2" fill="#4caf50" opacity="0.6"/>
  <circle cx="10" cy="18" r="1" fill="#4caf50" opacity="0.4"/>
  <circle cx="80" cy="25" r="1.5" fill="#4caf50" opacity="0.8"/>
  <circle cx="85" cy="20" r="1.2" fill="#4caf50" opacity="0.6"/>
  <circle cx="90" cy="18" r="1" fill="#4caf50" opacity="0.4"/>
  
  <!-- Wind currents -->
  <path d="M5 40 Q2 38 5 35" stroke="#e3f2fd" stroke-width="2" fill="none" opacity="0.7"/>
  <path d="M7 45 Q4 43 7 40" stroke="#e3f2fd" stroke-width="2" fill="none" opacity="0.7"/>
  <path d="M95 40 Q98 38 95 35" stroke="#e3f2fd" stroke-width="2" fill="none" opacity="0.7"/>
  <path d="M93 45 Q96 43 93 40" stroke="#e3f2fd" stroke-width="2" fill="none" opacity="0.7"/>
  
  <!-- Supply drop indicators -->
  <circle cx="35" cy="80" r="2" fill="#4caf50" opacity="0.6"/>
  <circle cx="65" cy="80" r="2" fill="#4caf50" opacity="0.6"/>
  <path d="M35 80 L32 85" stroke="#4caf50" stroke-width="2" opacity="0.5"/>
  <path d="M65 80 L68 85" stroke="#4caf50" stroke-width="2" opacity="0.5"/>
  
  <!-- Altitude safety gear -->
  <ellipse cx="50" cy="30" rx="8" ry="3" fill="#81d4fa" opacity="0.4"/>
  
  <!-- Navigation beacon -->
  <circle cx="75" cy="35" r="2" fill="#ffeb3b"/>
  <circle cx="75" cy="35" r="3" fill="#ff9800" opacity="0.6"/>
  <circle cx="75" cy="35" r="4" fill="#fff" opacity="0.3"/>
  
  <!-- Friendly identification markings -->
  <polygon points="48,52 50,50 52,52 50,54" fill="#4caf50"/>
  <circle cx="50" cy="52" r="1.5" fill="#66bb6a"/>
</svg>