<svg viewBox="0 0 100 100" xmlns="http://www.w3.org/2000/svg">
  <!-- War Cart - Level 1 Tank -->
  
  <!-- Cart body -->
  <rect x="25" y="40" width="50" height="20" fill="#8d6e63" stroke="#5d4037" stroke-width="2" rx="3"/>
  <!-- Wood planks -->
  <line x1="30" y1="42" x2="30" y2="58" stroke="#6d4c41" stroke-width="1"/>
  <line x1="35" y1="42" x2="35" y2="58" stroke="#6d4c41" stroke-width="1"/>
  <line x1="40" y1="42" x2="40" y2="58" stroke="#6d4c41" stroke-width="1"/>
  <line x1="45" y1="42" x2="45" y2="58" stroke="#6d4c41" stroke-width="1"/>
  <line x1="50" y1="42" x2="50" y2="58" stroke="#6d4c41" stroke-width="1"/>
  <line x1="55" y1="42" x2="55" y2="58" stroke="#6d4c41" stroke-width="1"/>
  <line x1="60" y1="42" x2="60" y2="58" stroke="#6d4c41" stroke-width="1"/>
  <line x1="65" y1="42" x2="65" y2="58" stroke="#6d4c41" stroke-width="1"/>
  <line x1="70" y1="42" x2="70" y2="58" stroke="#6d4c41" stroke-width="1"/>
  
  <!-- Wheels -->
  <circle cx="35" cy="65" r="8" fill="#795548" stroke="#5d4037" stroke-width="2"/>
  <circle cx="65" cy="65" r="8" fill="#795548" stroke="#5d4037" stroke-width="2"/>
  <!-- Wheel spokes -->
  <line x1="35" y1="57" x2="35" y2="73" stroke="#5d4037" stroke-width="2"/>
  <line x1="27" y1="65" x2="43" y2="65" stroke="#5d4037" stroke-width="2"/>
  <line x1="65" y1="57" x2="65" y2="73" stroke="#5d4037" stroke-width="2"/>
  <line x1="57" y1="65" x2="73" y2="65" stroke="#5d4037" stroke-width="2"/>
  
  <!-- Driver -->
  <circle cx="40" cy="30" r="5" fill="#ffdbcb" stroke="#d4a574" stroke-width="1"/>
  <!-- Driver's hair -->
  <path d="M35 26 Q40 22 45 26" fill="#8d6e63"/>
  <!-- Driver's eyes -->
  <circle cx="38" cy="29" r="1" fill="#1976d2"/>
  <circle cx="42" cy="29" r="1" fill="#1976d2"/>
  <!-- Driver's body -->
  <rect x="37" y="35" width="6" height="8" fill="#795548"/>
  
  <!-- Spear rack -->
  <line x1="20" y1="25" x2="20" y2="45" stroke="#8d6e63" stroke-width="2"/>
  <line x1="22" y1="25" x2="22" y2="45" stroke="#8d6e63" stroke-width="2"/>
  <line x1="24" y1="25" x2="24" y2="45" stroke="#8d6e63" stroke-width="2"/>
  <polygon points="20,25 22,28 18,28" fill="#616161"/>
  <polygon points="22,25 24,28 20,28" fill="#616161"/>
  <polygon points="24,25 26,28 22,28" fill="#616161"/>
  
  <!-- Shield mounted on side -->
  <circle cx="75" cy="50" r="6" fill="#795548" stroke="#5d4037" stroke-width="2"/>
  <circle cx="75" cy="50" r="3" fill="#424242"/>
  
  <!-- Reins -->
  <path d="M40 35 Q30 30 20 35" stroke="#8d6e63" stroke-width="1" fill="none"/>
  <path d="M40 35 Q30 32 20 37" stroke="#8d6e63" stroke-width="1" fill="none"/>
  
  <!-- Horse (pulling the cart) -->
  <ellipse cx="15" cy="45" rx="8" ry="12" fill="#795548"/>
  <!-- Horse head -->
  <ellipse cx="8" cy="38" rx="4" ry="6" fill="#795548"/>
  <!-- Horse mane -->
  <path d="M4 32 Q8 28 12 32 Q10 35 8 35 Q6 35 4 32" fill="#5d4037"/>
  <!-- Horse legs -->
  <rect x="12" y="57" width="2" height="8" fill="#795548"/>
  <rect x="15" y="57" width="2" height="8" fill="#795548"/>
  <rect x="18" y="57" width="2" height="8" fill="#795548"/>
  <rect x="21" y="57" width="2" height="8" fill="#795548"/>
  <!-- Horse hooves -->
  <ellipse cx="13" cy="67" rx="1.5" ry="1" fill="#3e2723"/>
  <ellipse cx="16" cy="67" rx="1.5" ry="1" fill="#3e2723"/>
  <ellipse cx="19" cy="67" rx="1.5" ry="1" fill="#3e2723"/>
  <ellipse cx="22" cy="67" rx="1.5" ry="1" fill="#3e2723"/>
</svg>