<svg viewBox="0 0 100 100" xmlns="http://www.w3.org/2000/svg">
  <defs>
    <linearGradient id="platformGrad" x1="0%" y1="0%" x2="0%" y2="100%">
      <stop offset="0%" stop-color="#8d6e63"/>
      <stop offset="50%" stop-color="#6d4c41"/>
      <stop offset="100%" stop-color="#3e2723"/>
    </linearGradient>
    <radialGradient id="crystalGrad" cx="50%" cy="30%">
      <stop offset="0%" stop-color="#e1bee7"/>
      <stop offset="100%" stop-color="#9c27b0"/>
    </radialGradient>
    <radialGradient id="windGrad" cx="50%" cy="50%">
      <stop offset="0%" stop-color="#e3f2fd"/>
      <stop offset="50%" stop-color="#81d4fa"/>
      <stop offset="100%" stop-color="#4fc3f7"/>
    </radialGradient>
    <linearGradient id="sailGrad" x1="0%" y1="0%" x2="0%" y2="100%">
      <stop offset="0%" stop-color="#f5f5f5"/>
      <stop offset="50%" stop-color="#e0e0e0"/>
      <stop offset="100%" stop-color="#bdbdbd"/>
    </linearGradient>
  </defs>
  
  <!-- Wind Rider - Hovercraft equivalent -->
  
  <!-- Floating platform base -->
  <ellipse cx="50" cy="60" rx="25" ry="8" fill="url(#platformGrad)" stroke="#212121" stroke-width="2"/>
  <!-- Platform details -->
  <ellipse cx="50" cy="58" rx="20" ry="6" fill="#a1887f"/>
  <line x1="35" y1="58" x2="65" y2="58" stroke="#6d4c41" stroke-width="1"/>
  <line x1="35" y1="60" x2="65" y2="60" stroke="#6d4c41" stroke-width="1"/>
  <line x1="35" y1="62" x2="65" y2="62" stroke="#6d4c41" stroke-width="1"/>
  
  <!-- Wind crystals underneath for levitation -->
  <polygon points="40,68 38,71 42,71" fill="url(#crystalGrad)" stroke="#6a1b9a" stroke-width="1"/>
  <polygon points="50,68 48,71 52,71" fill="url(#crystalGrad)" stroke="#6a1b9a" stroke-width="1"/>
  <polygon points="60,68 58,71 62,71" fill="url(#crystalGrad)" stroke="#6a1b9a" stroke-width="1"/>
  <!-- Crystal energy -->
  <circle cx="40" cy="69" r="2" fill="#e1bee7" opacity="0.7"/>
  <circle cx="50" cy="69" r="2" fill="#e1bee7" opacity="0.7"/>
  <circle cx="60" cy="69" r="2" fill="#e1bee7" opacity="0.7"/>
  
  <!-- Central wind mast -->
  <line x1="50" y1="25" x2="50" y2="58" stroke="#6d4c41" stroke-width="3"/>
  <!-- Mast bindings -->
  <rect x="49" y="30" width="2" height="3" fill="#8d6e63"/>
  <rect x="49" y="40" width="2" height="3" fill="#8d6e63"/>
  <rect x="49" y="50" width="2" height="3" fill="#8d6e63"/>
  
  <!-- Wind sail -->
  <path d="M30 30 Q50 25 70 30 Q70 45 50 50 Q30 45 30 30" fill="url(#sailGrad)" stroke="#bdbdbd" stroke-width="1"/>
  <!-- Sail stress patterns -->
  <path d="M35 33 Q50 30 65 33" stroke="#bdbdbd" stroke-width="1" fill="none"/>
  <path d="M35 38 Q50 35 65 38" stroke="#bdbdbd" stroke-width="1" fill="none"/>
  <path d="M35 43 Q50 40 65 43" stroke="#bdbdbd" stroke-width="1" fill="none"/>
  
  <!-- Wind capture apparatus -->
  <circle cx="35" cy="35" r="4" fill="url(#crystalGrad)" stroke="#6a1b9a" stroke-width="1"/>
  <circle cx="65" cy="35" r="4" fill="url(#crystalGrad)" stroke="#6a1b9a" stroke-width="1"/>
  <circle cx="35" cy="45" r="4" fill="url(#crystalGrad)" stroke="#6a1b9a" stroke-width="1"/>
  <circle cx="65" cy="45" r="4" fill="url(#crystalGrad)" stroke="#6a1b9a" stroke-width="1"/>
  
  <!-- Wind vortex generators -->
  <circle cx="25" cy="40" r="3" fill="url(#windGrad)" opacity="0.8"/>
  <circle cx="75" cy="40" r="3" fill="url(#windGrad)" opacity="0.8"/>
  <circle cx="25" cy="40" r="5" fill="#e3f2fd" opacity="0.4"/>
  <circle cx="75" cy="40" r="5" fill="#e3f2fd" opacity="0.4"/>
  
  <!-- Pilot with wind robes -->
  <circle cx="50" cy="45" r="4" fill="#ffdbcb" stroke="#d4a574" stroke-width="1"/>
  <!-- Wind rider hood -->
  <path d="M46 38 Q50 35 54 38 Q54 46 50 46 Q46 46 46 38" fill="#81d4fa" stroke="#4fc3f7" stroke-width="1"/>
  <!-- Eyes -->
  <circle cx="48" cy="43" r="1" fill="#1976d2"/>
  <circle cx="52" cy="43" r="1" fill="#1976d2"/>
  <!-- Flowing robes -->
  <rect x="46" y="49" width="8" height="10" fill="#81d4fa" stroke="#4fc3f7" stroke-width="1"/>
  <path d="M44 52 Q42 48 40 52" fill="#e3f2fd" opacity="0.8"/>
  <path d="M56 52 Q58 48 60 52" fill="#e3f2fd" opacity="0.8"/>
  
  <!-- Wind control staff -->
  <line x1="40" y1="35" x2="40" y2="50" stroke="#9c27b0" stroke-width="3"/>
  <polygon points="40,35 38,37 42,37" fill="url(#crystalGrad)" stroke="#6a1b9a" stroke-width="1"/>
  <circle cx="40" cy="35" r="2" fill="#e1bee7" opacity="0.8"/>
  
  <!-- Elemental wind spirits -->
  <ellipse cx="20" cy="30" rx="3" ry="5" fill="#e3f2fd" opacity="0.7" transform="rotate(15 20 30)"/>
  <ellipse cx="80" cy="35" rx="3" ry="5" fill="#e3f2fd" opacity="0.7" transform="rotate(-20 80 35)"/>
  <ellipse cx="25" cy="55" rx="3" ry="5" fill="#e3f2fd" opacity="0.7" transform="rotate(25 25 55)"/>
  <ellipse cx="75" cy="50" rx="3" ry="5" fill="#e3f2fd" opacity="0.7" transform="rotate(-30 75 50)"/>
  
  <!-- Wind currents around vehicle -->
  <path d="M15 35 Q10 33 15 30" stroke="#e3f2fd" stroke-width="3" fill="none" opacity="0.8"/>
  <path d="M17 40 Q12 38 17 35" stroke="#e3f2fd" stroke-width="3" fill="none" opacity="0.8"/>
  <path d="M19 45 Q14 43 19 40" stroke="#e3f2fd" stroke-width="3" fill="none" opacity="0.8"/>
  <path d="M85 35 Q90 33 85 30" stroke="#e3f2fd" stroke-width="3" fill="none" opacity="0.8"/>
  <path d="M83 40 Q88 38 83 35" stroke="#e3f2fd" stroke-width="3" fill="none" opacity="0.8"/>
  <path d="M81 45 Q86 43 81 40" stroke="#e3f2fd" stroke-width="3" fill="none" opacity="0.8"/>
  
  <!-- Levitation field -->
  <ellipse cx="50" cy="75" rx="30" ry="5" fill="url(#windGrad)" opacity="0.5"/>
  <ellipse cx="50" cy="77" rx="25" ry="3" fill="#e3f2fd" opacity="0.4"/>
  <ellipse cx="50" cy="79" rx="20" ry="2" fill="#81d4fa" opacity="0.3"/>
  
  <!-- Wind vortexes beneath -->
  <circle cx="35" cy="75" r="4" fill="none" stroke="#e3f2fd" stroke-width="2" opacity="0.6"/>
  <circle cx="50" cy="75" r="4" fill="none" stroke="#e3f2fd" stroke-width="2" opacity="0.6"/>
  <circle cx="65" cy="75" r="4" fill="none" stroke="#e3f2fd" stroke-width="2" opacity="0.6"/>
  
  <!-- Navigation compass -->
  <circle cx="60" cy="50" r="3" fill="#ffc107" stroke="#ff8f00" stroke-width="1"/>
  <line x1="60" y1="47" x2="60" y2="53" stroke="#ff8f00" stroke-width="1"/>
  <line x1="57" y1="50" x2="63" y2="50" stroke="#ff8f00" stroke-width="1"/>
  <polygon points="60,47 59,49 61,49" fill="#d32f2f"/>
  
  <!-- Cargo nets -->
  <path d="M30 55 Q35 53 40 55" stroke="#8d6e63" stroke-width="1" fill="none"/>
  <path d="M30 57 Q35 55 40 57" stroke="#8d6e63" stroke-width="1" fill="none"/>
  <path d="M60 55 Q65 53 70 55" stroke="#8d6e63" stroke-width="1" fill="none"/>
  <path d="M60 57 Q65 55 70 57" stroke="#8d6e63" stroke-width="1" fill="none"/>
  <line x1="30" y1="55" x2="30" y2="57" stroke="#8d6e63" stroke-width="1"/>
  <line x1="35" y1="53" x2="35" y2="55" stroke="#8d6e63" stroke-width="1"/>
  <line x1="40" y1="55" x2="40" y2="57" stroke="#8d6e63" stroke-width="1"/>
  <line x1="60" y1="55" x2="60" y2="57" stroke="#8d6e63" stroke-width="1"/>
  <line x1="65" y1="53" x2="65" y2="55" stroke="#8d6e63" stroke-width="1"/>
  <line x1="70" y1="55" x2="70" y2="57" stroke="#8d6e63" stroke-width="1"/>
  
  <!-- Supply crates -->
  <rect x="32" y="54" width="5" height="4" fill="#8d6e63" stroke="#6d4c41" stroke-width="1"/>
  <rect x="63" y="54" width="5" height="4" fill="#8d6e63" stroke="#6d4c41" stroke-width="1"/>
  
  <!-- Wind streamers -->
  <path d="M50 25 Q45 20 50 15" stroke="#e3f2fd" stroke-width="2" fill="none"/>
  <path d="M50 25 Q55 20 50 15" stroke="#e3f2fd" stroke-width="2" fill="none"/>
  <ellipse cx="50" cy="18" rx="2" ry="4" fill="#e3f2fd" opacity="0.7"/>
  
  <!-- Magical wind runes -->
  <polygon points="22,25 20,27 22,29 24,27" fill="#e1bee7" opacity="0.8"/>
  <polygon points="78,28 76,30 78,32 80,30" fill="#e1bee7" opacity="0.8"/>
  <polygon points="25,50 23,52 25,54 27,52" fill="#e1bee7" opacity="0.8"/>
  <polygon points="75,53 73,55 75,57 77,55" fill="#e1bee7" opacity="0.8"/>
</svg>