<svg xmlns="http://www.w3.org/2000/svg" viewBox="0 0 100 100">
  <defs>
    <!-- Player color definition - this will be replaced dynamically -->
    <linearGradient id="playerColor">
      <stop offset="0%" stop-color="#888888"/>
      <stop offset="100%" stop-color="#666666"/>
    </linearGradient>
    
    <clipPath id="hexClip">
      <polygon points="50,0 100,17.5 100,82.5 50,100 0,82.5 0,17.5"/>

    </clipPath>
    <linearGradient id="buildingGrad1" x1="0%" y1="0%" x2="100%" y2="100%">
      <stop offset="0%" stop-color="#f5f5f5"/>
      <stop offset="50%" stop-color="#d3d3d3"/>
      <stop offset="100%" stop-color="#a9a9a9"/>
    </linearGradient>
    <linearGradient id="buildingGrad2" x1="0%" y1="0%" x2="100%" y2="100%">
      <stop offset="0%" stop-color="#e6e6fa"/>
      <stop offset="50%" stop-color="#c0c0c0"/>
      <stop offset="100%" stop-color="#808080"/>
    </linearGradient>
    <linearGradient id="roadGrad" x1="0%" y1="0%" x2="100%" y2="100%">
      <stop offset="0%" stop-color="#696969"/>
      <stop offset="50%" stop-color="#555555"/>
      <stop offset="100%" stop-color="#2f2f2f"/>
    </linearGradient>
  </defs>
  
  <g clip-path="url(#hexClip)">
    <!-- Street grid base -->
    <polygon points="50,0 100,17.5 100,82.5 50,100 0,82.5 0,17.5" fill="#708090"/>
    
    <!-- Main streets -->
    <g fill="url(#roadGrad)">
      <rect x="15" y="47" width="70" height="6"/>
      <rect x="47" y="15" width="6" height="70"/>
    </g>
    
    <!-- Street markings -->
    <g fill="#ffff00">
      <rect x="49" y="17" width="2" height="4"/>
      <rect x="49" y="25" width="2" height="4"/>
      <rect x="49" y="33" width="2" height="4"/>
      <rect x="49" y="41" width="2" height="4"/>
      <rect x="49" y="57" width="2" height="4"/>
      <rect x="49" y="65" width="2" height="4"/>
      <rect x="49" y="73" width="2" height="4"/>
      <rect x="49" y="81" width="2" height="4"/>
      
      <rect x="17" y="49" width="4" height="2"/>
      <rect x="25" y="49" width="4" height="2"/>
      <rect x="33" y="49" width="4" height="2"/>
      <rect x="41" y="49" width="4" height="2"/>
      <rect x="57" y="49" width="4" height="2"/>
      <rect x="65" y="49" width="4" height="2"/>
      <rect x="73" y="49" width="4" height="2"/>
      <rect x="81" y="49" width="4" height="2"/>
    </g>
    
    <!-- Skyscrapers (TINTABLE) -->
    <g fill="url(#playerColor)" stroke="#2a2a2a" stroke-width="0.8">
      <!-- Tall building -->
      <rect x="25" y="18" width="15" height="25"/>
      <rect x="25" y="15" width="15" height="3" fill="#8b8b8b"/>
      
      <!-- Medium building -->
      <rect x="60" y="25" width="20" height="20"/>
      <rect x="60" y="22" width="20" height="3" fill="#8b8b8b"/>
      
      <!-- Short building -->
      <rect x="58" y="58" width="22" height="15"/>
      <rect x="58" y="55" width="22" height="3" fill="#8b8b8b"/>
    </g>
    
    <!-- Office buildings (TINTABLE) -->
    <g fill="url(#playerColor)" stroke="#2a2a2a" stroke-width="0.8">
      <rect x="20" y="58" width="25" height="20"/>
      <rect x="20" y="55" width="25" height="3" fill="#696969"/>
    </g>
    
    <!-- Building windows -->
    <g fill="#4169e1" opacity="0.7">
      <!-- Skyscraper 1 windows -->
      <rect x="27" y="20" width="2" height="2"/>
      <rect x="31" y="20" width="2" height="2"/>
      <rect x="35" y="20" width="2" height="2"/>
      <rect x="27" y="25" width="2" height="2"/>
      <rect x="31" y="25" width="2" height="2"/>
      <rect x="35" y="25" width="2" height="2"/>
      <rect x="27" y="30" width="2" height="2"/>
      <rect x="31" y="30" width="2" height="2"/>
      <rect x="35" y="30" width="2" height="2"/>
      <rect x="27" y="35" width="2" height="2"/>
      <rect x="31" y="35" width="2" height="2"/>
      <rect x="35" y="35" width="2" height="2"/>
      
      <!-- Skyscraper 2 windows -->
      <rect x="63" y="28" width="2" height="2"/>
      <rect x="67" y="28" width="2" height="2"/>
      <rect x="71" y="28" width="2" height="2"/>
      <rect x="75" y="28" width="2" height="2"/>
      <rect x="63" y="33" width="2" height="2"/>
      <rect x="67" y="33" width="2" height="2"/>
      <rect x="71" y="33" width="2" height="2"/>
      <rect x="75" y="33" width="2" height="2"/>
      <rect x="63" y="38" width="2" height="2"/>
      <rect x="67" y="38" width="2" height="2"/>
      <rect x="71" y="38" width="2" height="2"/>
      <rect x="75" y="38" width="2" height="2"/>
      
      <!-- Office building windows -->
      <rect x="22" y="60" width="2" height="2"/>
      <rect x="26" y="60" width="2" height="2"/>
      <rect x="30" y="60" width="2" height="2"/>
      <rect x="34" y="60" width="2" height="2"/>
      <rect x="38" y="60" width="2" height="2"/>
      <rect x="42" y="60" width="2" height="2"/>
      <rect x="22" y="65" width="2" height="2"/>
      <rect x="26" y="65" width="2" height="2"/>
      <rect x="30" y="65" width="2" height="2"/>
      <rect x="34" y="65" width="2" height="2"/>
      <rect x="38" y="65" width="2" height="2"/>
      <rect x="42" y="65" width="2" height="2"/>
      <rect x="22" y="70" width="2" height="2"/>
      <rect x="26" y="70" width="2" height="2"/>
      <rect x="30" y="70" width="2" height="2"/>
      <rect x="34" y="70" width="2" height="2"/>
      <rect x="38" y="70" width="2" height="2"/>
      <rect x="42" y="70" width="2" height="2"/>
      
      <!-- Building 3 windows -->
      <rect x="61" y="61" width="2" height="2"/>
      <rect x="65" y="61" width="2" height="2"/>
      <rect x="69" y="61" width="2" height="2"/>
      <rect x="73" y="61" width="2" height="2"/>
      <rect x="77" y="61" width="2" height="2"/>
      <rect x="61" y="66" width="2" height="2"/>
      <rect x="65" y="66" width="2" height="2"/>
      <rect x="69" y="66" width="2" height="2"/>
      <rect x="73" y="66" width="2" height="2"/>
      <rect x="77" y="66" width="2" height="2"/>
    </g>
    
    <!-- Traffic lights -->
    <g>
      <rect x="46" y="46" width="1" height="3" fill="#8b8b8b"/>
      <circle cx="46.5" cy="45.5" r="0.3" fill="#ff0000"/>
      <circle cx="46.5" cy="46" r="0.3" fill="#ffff00"/>
      <circle cx="46.5" cy="46.5" r="0.3" fill="#00ff00"/>
      
      <rect x="53" y="46" width="1" height="3" fill="#8b8b8b"/>
      <circle cx="53.5" cy="45.5" r="0.3" fill="#ff0000"/>
      <circle cx="53.5" cy="46" r="0.3" fill="#ffff00"/>
      <circle cx="53.5" cy="46.5" r="0.3" fill="#00ff00"/>
    </g>
    
    <!-- Vehicles on streets -->
    <g fill="#ff0000">
      <rect x="30" y="48.5" width="3" height="1.5"/>
      <circle cx="30.5" cy="49.8" r="0.3" fill="#333333"/>
      <circle cx="32.5" cy="49.8" r="0.3" fill="#333333"/>
    </g>
    
    <g fill="#0000ff">
      <rect x="48.2" y="35" width="1.5" height="3"/>
      <circle cx="48.5" cy="35.5" r="0.2" fill="#333333"/>
      <circle cx="48.5" cy="37.5" r="0.2" fill="#333333"/>
    </g>
    
    <!-- Street lamps -->
    <g fill="#ffd700" opacity="0.8">
      <rect x="45" y="44" width="0.5" height="2" fill="#8b8b8b"/>
      <circle cx="45.25" cy="43.8" r="0.4"/>
      
      <rect x="54.5" y="44" width="0.5" height="2" fill="#8b8b8b"/>
      <circle cx="54.75" cy="43.8" r="0.4"/>
      
      <rect x="49" y="40" width="0.5" height="2" fill="#8b8b8b"/>
      <circle cx="49.25" cy="39.8" r="0.4"/>
    </g>
    
    <!-- Crosswalks -->
    <g fill="#ffffff">
      <rect x="20" y="48" width="25" height="1"/>
      <rect x="20" y="50" width="25" height="1"/>
      <rect x="20" y="52" width="25" height="1"/>
      
      <rect x="48" y="20" width="1" height="25"/>
      <rect x="50" y="20" width="1" height="25"/>
      <rect x="52" y="20" width="1" height="25"/>
    </g>
    
    <!-- Parking meters -->
    <g fill="#c0c0c0">
      <rect x="17" y="45" width="0.3" height="1.5"/>
      <rect x="17" y="44.5" width="0.3" height="0.5" fill="#333333"/>
      
      <rect x="82.7" y="45" width="0.3" height="1.5"/>
      <rect x="82.7" y="44.5" width="0.3" height="0.5" fill="#333333"/>
    </g>
    
    <!-- Bus stop -->
    <g>
      <rect x="16" y="40" width="6" height="4" fill="#4169e1" opacity="0.3"/>
      <rect x="16" y="43" width="6" height="0.5" fill="#ffffff"/>
      <text x="19" y="42.5" font-family="Arial" font-size="1" fill="#ffffff" text-anchor="middle">BUS</text>
    </g>
    
    <!-- Fire hydrant -->
    <g fill="#ff0000">
      <rect x="44" y="54" width="1" height="2"/>
      <circle cx="44.5" cy="53.8" r="0.3"/>
    </g>
    
    <!-- Manholes -->
    <g fill="#333333">
      <circle cx="35" cy="50" r="0.8"/>
      <circle cx="65" cy="50" r="0.8"/>
      <text x="35" y="50.3" font-family="Arial" font-size="0.5" fill="#666666" text-anchor="middle">NYC</text>
      <text x="65" y="50.3" font-family="Arial" font-size="0.5" fill="#666666" text-anchor="middle">NYC</text>
    </g>
  </g>
</svg>
