<svg xmlns="http://www.w3.org/2000/svg" viewBox="0 0 100 100">
  <defs>
    <clipPath id="hexClip">
      <polygon points="50,0 100,17.5 100,82.5 50,100 0,82.5 0,17.5"/>
    </clipPath>
    <linearGradient id="mountainGrad" x1="0%" y1="0%" x2="100%" y2="100%">
      <stop offset="0%" stop-color="#d4d4d8"/>
      <stop offset="30%" stop-color="#a1a1aa"/>
      <stop offset="70%" stop-color="#71717a"/>
      <stop offset="100%" stop-color="#52525b"/>
    </linearGradient>
    <radialGradient id="peakShade">
      <stop offset="0%" stop-color="#e4e4e7"/>
      <stop offset="100%" stop-color="#3f3f46"/>
    </radialGradient>
    <linearGradient id="cliffGrad" x1="0%" y1="0%" x2="0%" y2="100%">
      <stop offset="0%" stop-color="#a1a1aa"/>
      <stop offset="50%" stop-color="#71717a"/>
      <stop offset="100%" stop-color="#27272a"/>
    </linearGradient>
    <pattern id="rockTexture" patternUnits="userSpaceOnUse" width="3" height="3">
      <rect width="3" height="3" fill="#52525b"/>
      <circle cx="1" cy="1" r="0.3" fill="#3f3f46" opacity="0.5"/>
      <circle cx="2.2" cy="2.2" r="0.2" fill="#71717a" opacity="0.3"/>
    </pattern>
    <filter id="roughen">
      <feTurbulence type="fractalNoise" baseFrequency="0.04" numOctaves="3" result="noise"/>
      <feColorMatrix in="noise" type="saturate" values="0"/>
      <feComponentTransfer>
        <feFuncA type="discrete" tableValues="0 0.1 0.2 0.1"/>
      </feComponentTransfer>
      <feComposite operator="over" in2="SourceGraphic"/>
    </filter>
  </defs>
  
  <g clip-path="url(#hexClip)">
    <!-- Mountain base with gradient -->
    <polygon points="50,0 100,17.5 100,82.5 50,100 0,82.5 0,17.5" fill="url(#mountainGrad)" />
    
    <!-- Main mountain peaks -->
    <g opacity="0.9">
      <polygon points="25,70 35,25 45,70" fill="url(#peakShade)"/>
      <polygon points="40,75 50,20 60,75" fill="url(#peakShade)"/>
      <polygon points="55,78 65,30 75,78" fill="url(#peakShade)"/>
    </g>
    
    <!-- Secondary peaks -->
    <g opacity="0.8">
      <polygon points="15,75 25,40 35,75" fill="url(#cliffGrad)"/>
      <polygon points="30,78 40,35 50,78" fill="url(#cliffGrad)"/>
      <polygon points="50,80 60,35 70,80" fill="url(#cliffGrad)"/>
      <polygon points="65,82 75,40 85,82" fill="url(#cliffGrad)"/>
    </g>
    
    <!-- Rock face cliff details -->
    <g stroke="#3f3f46" stroke-width="0.5" fill="none" opacity="0.6">
      <path d="M 28,30 L 32,45 L 30,60 L 35,70"/>
      <path d="M 38,25 L 42,40 L 45,55 L 48,70"/>
      <path d="M 52,22 L 55,35 L 58,50 L 62,65"/>
      <path d="M 65,32 L 68,45 L 70,60 L 73,75"/>
    </g>
    
    <!-- Rock layer stratification -->
    <g stroke="#71717a" stroke-width="0.3" fill="none" opacity="0.4">
      <path d="M 20,45 Q 30,43 40,45 Q 50,47 60,45 Q 70,43 80,45"/>
      <path d="M 22,52 Q 32,50 42,52 Q 52,54 62,52 Q 72,50 82,52"/>
      <path d="M 24,59 Q 34,57 44,59 Q 54,61 64,59 Q 74,57 84,59"/>
      <path d="M 26,66 Q 36,64 46,66 Q 56,68 66,66 Q 76,64 84,66"/>
    </g>
    
    <!-- Rock crevices and cracks -->
    <g stroke="#27272a" stroke-width="0.8" fill="none" opacity="0.7">
      <path d="M 30,30 Q 32,35 30,40 Q 28,45 30,50"/>
      <path d="M 45,25 Q 47,30 45,35 Q 43,40 45,45"/>
      <path d="M 58,28 Q 60,33 58,38 Q 56,43 58,48"/>
      <path d="M 70,35 Q 72,40 70,45 Q 68,50 70,55"/>
    </g>
    
    <!-- Smaller rock cracks -->
    <g stroke="#3f3f46" stroke-width="0.3" fill="none" opacity="0.5">
      <path d="M 26,38 L 28,42"/>
      <path d="M 35,33 L 37,37"/>
      <path d="M 42,28 L 44,32"/>
      <path d="M 48,26 L 50,30"/>
      <path d="M 55,31 L 57,35"/>
      <path d="M 62,29 L 64,33"/>
      <path d="M 68,38 L 70,42"/>
      <path d="M 32,48 L 34,52"/>
      <path d="M 46,45 L 48,49"/>
      <path d="M 60,47 L 62,51"/>
    </g>
    
    <!-- Boulder details -->
    <g opacity="0.6">
      <ellipse cx="32" cy="65" rx="3" ry="2" fill="#52525b"/>
      <ellipse cx="33" cy="64" rx="2" ry="1.2" fill="#71717a"/>
      
      <ellipse cx="48" cy="68" rx="2.5" ry="1.8" fill="#52525b"/>
      <ellipse cx="49" cy="67" rx="1.5" ry="1" fill="#71717a"/>
      
      <ellipse cx="65" cy="70" rx="3.5" ry="2.2" fill="#52525b"/>
      <ellipse cx="66" cy="69" rx="2.5" ry="1.5" fill="#71717a"/>
      
      <ellipse cx="38" cy="58" rx="2" ry="1.3" fill="#52525b"/>
      <ellipse cx="55" cy="62" rx="2.2" ry="1.5" fill="#52525b"/>
    </g>
    
    <!-- Rocky debris and scree -->
    <g opacity="0.4">
      <circle cx="28" cy="55" r="0.5" fill="#3f3f46"/>
      <circle cx="35" cy="62" r="0.4" fill="#52525b"/>
      <circle cx="42" cy="58" r="0.3" fill="#3f3f46"/>
      <circle cx="50" cy="65" r="0.6" fill="#52525b"/>
      <circle cx="58" cy="60" r="0.4" fill="#3f3f46"/>
      <circle cx="65" cy="67" r="0.5" fill="#52525b"/>
      <circle cx="72" cy="62" r="0.3" fill="#3f3f46"/>
      <circle cx="45" cy="72" r="0.4" fill="#52525b"/>
      <circle cx="38" cy="48" r="0.3" fill="#3f3f46"/>
      <circle cx="52" cy="55" r="0.4" fill="#52525b"/>
    </g>
    
    <!-- Snow caps on highest peaks -->
    <g fill="#ffffff" opacity="0.8">
      <polygon points="35,25 38,30 32,30"/>
      <polygon points="50,20 53,26 47,26"/>
      <polygon points="65,30 68,35 62,35"/>
    </g>
    
    <!-- Mountain shadows -->
    <g fill="#27272a" opacity="0.3">
      <polygon points="35,25 45,70 35,70"/>
      <polygon points="50,20 60,75 50,75"/>
      <polygon points="65,30 75,78 65,78"/>
    </g>
    
    <!-- Rock texture overlay -->
    <polygon points="50,0 100,17.5 100,82.5 50,100 0,82.5 0,17.5" fill="url(#rockTexture)" filter="url(#roughen)" opacity="0.3"/>
  </g>
</svg>
